/* XPM */
static char * desktop_xpm[] = {
"20 20 202 2",
"  	c None",
". 	c #4D85AE",
"+ 	c #4C8BB6",
"@ 	c #4C8AB5",
"# 	c #4F8BB6",
"$ 	c #508CB6",
"% 	c #518BB6",
"& 	c #508BB6",
"* 	c #5089B4",
"= 	c #4F88B3",
"- 	c #4E85B0",
"; 	c #4C83AD",
"> 	c #4C7FAA",
", 	c #4A7CA6",
"' 	c #4778A2",
") 	c #46759E",
"! 	c #3A648F",
"~ 	c #263E69",
"{ 	c #437BA5",
"] 	c #7B9CB8",
"^ 	c #739BB8",
"/ 	c #4B86B1",
"( 	c #4C87B2",
"_ 	c #4C86B2",
": 	c #4B84B0",
"< 	c #4A82AE",
"[ 	c #4980AB",
"} 	c #487DA8",
"| 	c #467AA6",
"1 	c #4578A4",
"2 	c #4576A2",
"3 	c #315D8D",
"4 	c #0B285F",
"5 	c #143062",
"6 	c #417AA9",
"7 	c #9DABB5",
"8 	c #7B9EB8",
"9 	c #4880AC",
"0 	c #4981AC",
"a 	c #4981AD",
"b 	c #4981AE",
"c 	c #4A83B1",
"d 	c #4B85B4",
"e 	c #4C87B7",
"f 	c #4C88BB",
"g 	c #4F88B7",
"h 	c #4A7EA9",
"i 	c #4A799F",
"j 	c #244167",
"k 	c #112A51",
"l 	c #0E2349",
"m 	c #172A4C",
"n 	c #42739B",
"o 	c #4F85AB",
"p 	c #457DAB",
"q 	c #4B81AB",
"r 	c #4B82AC",
"s 	c #4C82AD",
"t 	c #4B82AD",
"u 	c #4A7EA8",
"v 	c #487BA4",
"w 	c #45759D",
"x 	c #43739C",
"y 	c #36608D",
"z 	c #153669",
"A 	c #0D2D63",
"B 	c #0F3169",
"C 	c #10336C",
"D 	c #193769",
"E 	c #4375A3",
"F 	c #9FBCA9",
"G 	c #98B4A6",
"H 	c #4377A5",
"I 	c #4679A6",
"J 	c #467AA7",
"K 	c #467AA8",
"L 	c #467BA8",
"M 	c #4578A7",
"N 	c #2E588B",
"O 	c #17417B",
"P 	c #1B4784",
"Q 	c #1A3F75",
"R 	c #14305C",
"S 	c #0B234B",
"T 	c #142B57",
"U 	c #3B6690",
"V 	c #4A7696",
"W 	c #4A7799",
"X 	c #43749D",
"Y 	c #44749C",
"Z 	c #4676A0",
"` 	c #487AA3",
" .	c #487AA4",
"..	c #416F9A",
"+.	c #214878",
"@.	c #173D72",
"#.	c #15386C",
"$.	c #113163",
"%.	c #11346C",
"&.	c #123976",
"*.	c #143975",
"=.	c #1C3B70",
"-.	c #38628C",
";.	c #3F6B95",
">.	c #3F6B97",
",.	c #3F6D99",
"'.	c #3F6E9A",
").	c #3F6E9C",
"!.	c #3E6F9E",
"~.	c #3E709F",
"{.	c #316195",
"].	c #184682",
"^.	c #1B4883",
"/.	c #1A437A",
"(.	c #19437A",
"_.	c #1B4175",
":.	c #14335D",
"<.	c #10264B",
"[.	c #081D41",
"}.	c #13264C",
"|.	c #366191",
"1.	c #3D6997",
"2.	c #3D6A98",
"3.	c #3C6B9A",
"4.	c #3E6D9F",
"5.	c #3F72A5",
"6.	c #4075AB",
"7.	c #2C5C96",
"8.	c #234D7E",
"9.	c #1D3F69",
"0.	c #13325A",
"a.	c #14386A",
"b.	c #153B71",
"c.	c #143970",
"d.	c #12366D",
"e.	c #0F3067",
"f.	c #0B285C",
"g.	c #152D5C",
"h.	c #345A83",
"i.	c #3A648E",
"j.	c #3B6691",
"k.	c #3C6893",
"l.	c #3E6B97",
"m.	c #335E8B",
"n.	c #1F4573",
"o.	c #1C4374",
"p.	c #1F4B82",
"q.	c #214F89",
"r.	c #214E89",
"s.	c #1E4982",
"t.	c #1B437A",
"u.	c #183E74",
"v.	c #163A70",
"w.	c #14376D",
"x.	c #12346A",
"y.	c #18386C",
"z.	c #335783",
"A.	c #375E89",
"B.	c #375D88",
"C.	c #355B86",
"D.	c #1C3E6C",
"E.	c #103365",
"F.	c #13396E",
"G.	c #143C73",
"H.	c #163E76",
"I.	c #143D74",
"J.	c #143971",
"K.	c #12366C",
"L.	c #113368",
"M.	c #0F3063",
"N.	c #0E2C5F",
"O.	c #0C285A",
"P.	c #0F2959",
"Q.	c #294974",
"R.	c #355780",
"S.	c #325482",
"T.	c #1F4073",
"U.	c #1E4075",
"V.	c #214479",
"W.	c #21467D",
"X.	c #23497F",
"Y.	c #244A81",
"Z.	c #234A81",
"`.	c #214378",
" +	c #204278",
".+	c #1D4076",
"++	c #1D3F77",
"@+	c #1B3D76",
"#+	c #12326C",
"$+	c #36557F",
"%+	c #6A8CC1",
"&+	c #030404",
"*+	c #090A0D",
"=+	c #090B0E",
"-+	c #090B0D",
";+	c #0A0B0E",
">+	c #0A0D11",
",+	c #080C10",
"'+	c #2D3035",
")+	c #25282D",
"!+	c #26272A",
"~+	c #293D5D",
"                                        ",
"                                        ",
"                                        ",
"                                        ",
"  . + @ # $ $ % & * = - ; > , ' ) ! ~   ",
"  { ] ^ / ( ( _ / : < [ } | 1 2 3 4 5   ",
"  6 7 8 9 0 a b c d e f g h i j k l m   ",
"  n o p q r s t q u v w x y z A B C D   ",
"  E F G H I J K L K M E N O P Q R S T   ",
"  U V W X Y Z ' `  ...+.@.#.$.%.&.*.=.  ",
"  -.;.>.,.'.).!.~.{.].^./.(._.:.<.[.}.  ",
"  |.1.2.3.4.5.6.7.8.9.0.a.b.c.d.e.f.g.  ",
"  h.i.j.k.l.m.n.o.p.q.r.s.t.u.v.w.x.y.  ",
"  z.A.B.C.D.E.F.G.H.H.I.J.K.L.M.N.O.P.  ",
"  Q.R.S.T.U.V.W.X.Y.Z.X.W.`. +.+++@+#+  ",
"  $+%+&+*+=+-+=+=+=+;+=+=+>+,+'+)+!+~+  ",
"                                        ",
"                                        ",
"                                        ",
"                                        "};
