/* XPM */
static char * linux2_xpm[] = {
"48 20 198 2",
"  	c None",
". 	c #9BBBD6",
"+ 	c #95B8D5",
"@ 	c #94B7D4",
"# 	c #90B4D3",
"$ 	c #8DB2D2",
"% 	c #8EB3D2",
"& 	c #91B5D4",
"* 	c #91B5D3",
"= 	c #B7CDE1",
"- 	c #FAFAFA",
"; 	c #F1F4F6",
"> 	c #8CB0D0",
", 	c #90B4D2",
"' 	c #8FB3D2",
") 	c #89AED0",
"! 	c #DDE6EF",
"~ 	c #A5C0DA",
"{ 	c #8CB1D1",
"] 	c #8BB1D1",
"^ 	c #8CB2D2",
"/ 	c #8FB3D3",
"( 	c #F9F9F9",
"_ 	c #CBDBE9",
": 	c #86ADCF",
"< 	c #89B0D1",
"[ 	c #85ACCF",
"} 	c #87AED0",
"| 	c #84ACCE",
"1 	c #89AFD1",
"2 	c #88AFD0",
"3 	c #86ADD0",
"4 	c #88AED0",
"5 	c #8AB0D0",
"6 	c #88B0D1",
"7 	c #B5CCE1",
"8 	c #D7E2ED",
"9 	c #F2F4F7",
"0 	c #82ABCF",
"a 	c #87AFD0",
"b 	c #84ACCF",
"c 	c #EAEFF4",
"d 	c #F7F8F9",
"e 	c #8BB0D2",
"f 	c #D3E0EC",
"g 	c #F0F3F6",
"h 	c #E3EBF2",
"i 	c #B3CBE0",
"j 	c #83ACCF",
"k 	c #84ADCF",
"l 	c #85ADD0",
"m 	c #7EA8CD",
"n 	c #DFE8F0",
"o 	c #9BBAD8",
"p 	c #DEE7F0",
"q 	c #A0BFD9",
"r 	c #82ABCE",
"s 	c #7EA7CD",
"t 	c #E9EFF4",
"u 	c #EFF3F6",
"v 	c #EEF2F5",
"w 	c #B0C8DF",
"x 	c #81ABCE",
"y 	c #7DA7CC",
"z 	c #AFC8DF",
"A 	c #81AACE",
"B 	c #7BA5CD",
"C 	c #B4CBE1",
"D 	c #CADAE8",
"E 	c #7DA7CD",
"F 	c #7BA5CC",
"G 	c #E9EEF4",
"H 	c #C6D7E7",
"I 	c #79A4CC",
"J 	c #7FA8CE",
"K 	c #BFD3E5",
"L 	c #D9E4EE",
"M 	c #7CA7CD",
"N 	c #7EA8CC",
"O 	c #7BA5CB",
"P 	c #B4CBE0",
"Q 	c #C8D8E7",
"R 	c #79A4CA",
"S 	c #87ADCF",
"T 	c #F2F5F7",
"U 	c #7BA4CB",
"V 	c #7DA7CB",
"W 	c #77A3CA",
"X 	c #E9EEF3",
"Y 	c #97B8D6",
"Z 	c #7CA6CB",
"` 	c #F8F8F9",
" .	c #F6F7F8",
"..	c #77A2CA",
"+.	c #7BA6CB",
"@.	c #75A2C9",
"#.	c #E2E9F1",
"$.	c #98B8D6",
"%.	c #74A1C9",
"&.	c #719EC8",
"*.	c #E0E8F0",
"=.	c #9DBBD8",
"-.	c #E8EEF3",
";.	c #96B7D5",
">.	c #7AA5CA",
",.	c #75A1C9",
"'.	c #98B9D6",
").	c #74A0C9",
"!.	c #79A5CA",
"~.	c #78A4C9",
"{.	c #88ADCF",
"].	c #DBE5EE",
"^.	c #D9E4ED",
"/.	c #D8E3ED",
"(.	c #EDF1F5",
"_.	c #75A2C8",
":.	c #73A0C8",
"<.	c #94B6D4",
"[.	c #D4E0EC",
"}.	c #A4C0DA",
"|.	c #72A0C8",
"1.	c #B5CBE0",
"2.	c #F3F5F7",
"3.	c #73A0C9",
"4.	c #6F9DC7",
"5.	c #91B4D3",
"6.	c #73A1C8",
"7.	c #74A1C8",
"8.	c #709DC8",
"9.	c #F4F6F7",
"0.	c #7DA6CC",
"a.	c #6E9DC7",
"b.	c #6E9CC6",
"c.	c #E5EBF2",
"d.	c #95B5D4",
"e.	c #6D9BC5",
"f.	c #6D9BC6",
"g.	c #6B99C5",
"h.	c #E2EAF1",
"i.	c #9AB9D6",
"j.	c #6C9AC6",
"k.	c #E8EDF3",
"l.	c #B9CEE2",
"m.	c #6B9AC6",
"n.	c #6F9CC7",
"o.	c #ADC6DE",
"p.	c #6F9DC6",
"q.	c #6E9DC6",
"r.	c #6D9CC5",
"s.	c #85ABCF",
"t.	c #6C9AC5",
"u.	c #6E9CC5",
"v.	c #6B9BC5",
"w.	c #B2C9DF",
"x.	c #C9D9E8",
"y.	c #6596C3",
"z.	c #E7EDF3",
"A.	c #EBF0F4",
"B.	c #AFC7DE",
"C.	c #6999C4",
"D.	c #6B9BC4",
"E.	c #6A9AC3",
"F.	c #B7CDE0",
"G.	c #C5D6E6",
"H.	c #6898C3",
"I.	c #80A8CC",
"J.	c #F5F6F8",
"K.	c #6A9AC4",
"L.	c #CDDCE9",
"M.	c #E3EAF1",
"N.	c #AEC6DD",
"O.	c #6798C3",
"P.	c #6697C2",
"Q.	c #6696C3",
"R.	c #6797C3",
"S.	c #6595C3",
"T.	c #6293C2",
"U.	c #6495C2",
"V.	c #6696C2",
"W.	c #6596C2",
"X.	c #6092C1",
"Y.	c #E6ECF2",
"Z.	c #6495C1",
"`.	c #6193C1",
" +	c #6596C1",
".+	c #6294C1",
"++	c #5D90C0",
"@+	c #86ABCE",
"#+	c #6193C0",
"$+	c #6093C0",
"%+	c #5D90BF",
"&+	c #86ACCE",
"*+	c #5F92BF",
"=+	c #5C91BF",
"-+	c #5A90BE",
";+	c #598EBE",
">+	c #5A8FBE",
",+	c #5B90BE",
". . . . . . . . . . . . . . . . . . . . . . . . . . . . . . . . . . . . . . . . . . . . . . . . ",
"+ + + + + + + + + + + @ # $ % & + + + + + + + + + + + + + + + + + + + + + + + + + + + + + + + + ",
"* * * * * * * * * * * % = - ; > , * * * * * * * * * * * * * * * * * * * * * * * * * * * * * * * ",
"% % % ' % % % ' % % % ) ! - - ~ { % % ' % % % ' % % % ' % % % ' % % % ' % % % ' % % % ' % % % ' ",
"] ] ^ ^ ] ] ^ ^ ] ] ] / ( - - _ : ] ^ < [ [ } } | [ 1 ] ] 2 3 3 : : [ 3 4 5 ^ ^ ] ] ^ ^ ] ] ^ ^ ",
"6 6 < < 6 6 < < 6 6 3 7 - 8 - 9 0 a < b c d e f g h i b a j c d e f g h i j 2 < 6 6 < < 6 6 < < ",
"k k k l k k k l k k m n - o p - q r k s t - ; u v - - w x y t - ; u v - - z x l k k k l k k k l ",
"0 0 0 0 0 0 0 0 0 A e - 9 B C - D E 0 F G - H I J K - L M F G - H I J K - L M 0 0 0 0 0 0 0 0 0 ",
"N N N N N N N N N O P - Q R S - T U V W X - Y Z V O `  .O ..X - Y Z V O `  .O V N N N N N N N N ",
"+.+.+.+.+.+.+.+.+.@.#.- $.%.&.*.- =.R %.-.- ;.>.+.,.*.- '.).-.- ;.>.+.,.*.- '.>.+.+.+.+.+.+.+.+.",
"!.!.!.!.!.!.!.!.~.{.- - ].^./.(.- D _.:.-.- <.~.!.:.[.- }.|.-.- <.~.!.:.[.- }.~.!.!.!.!.!.!.!.!.",
"@.@.@.@.@.@.@.@.|.1.- - - - - - - 2.3.4.-.- 5.6.7.8.9.- 0.a.-.- 5.6.7.8.9.- 0.7.@.@.@.@.@.@.@.@.",
":.:.:.:.:.:.:.:.b.c.- d.e.f.f.g.h.- i.j.k.- l.m.n.o.- *.b.f.k.- l.m.n.o.- *.b.:.:.:.:.:.:.:.:.:.",
"p.p.p.q.p.p.p.r.s.- 9 t.u.p.p.v.w.- x.y.z.- ` A.A.- - B.e.C.z.- ` A.A.- - B.e.q.p.p.p.q.p.p.p.q.",
"D.D.D.D.D.D.D.E.F.- G.H.D.D.D.E.I.- J.K.z.- i.L.g M.N.O.E.P.z.- i.L.g M.N.O.E.D.D.D.D.D.D.D.D.D.",
"C.C.C.C.C.C.C.H.Q.y.Q.H.C.C.C.C.R.S.S.T.z.- ) y.U.y.R.H.C.U.z.- ) y.U.y.R.H.C.C.C.C.C.C.C.C.C.C.",
"P.P.V.W.P.P.V.W.P.P.V.W.P.P.V.W.P.P.V.X.Y.- {.Z.P.P.V.W.P.`.Y.- {. +V.W.P.P.V.W.P.P.V.W.P.P.V.W.",
".+.+.+.+.+.+.+.+.+.+.+.+.+.+.+.+.+.+.+++Y.- @+#+.+.+.+.+.+++Y.- @+#+.+.+.+.+.+.+.+.+.+.+.+.+.+.+",
"$+$+$+$+$+$+$+$+$+$+$+$+$+$+$+$+$+$+$+%+Y.- &+*+$+$+$+$+$+%+Y.- &+*+$+$+$+$+$+$+$+$+$+$+$+$+$+$+",
"=+=+=+=+=+=+=+=+=+=+=+=+=+=+=+=+=+=+=+-+;+;+>+,+=+=+=+=+=+-+;+;+>+,+=+=+=+=+=+=+=+=+=+=+=+=+=+=+"};
