/* XPM */
static char * linux_xpm[] = {
"54 20 482 2",
"  	c None",
". 	c #9BBBD6",
"+ 	c #9ABAD5",
"@ 	c #9ABAD4",
"# 	c #98B7D2",
"$ 	c #95B3CD",
"% 	c #91AEC6",
"& 	c #82A1BA",
"* 	c #638AB1",
"= 	c #6F95BF",
"- 	c #85A7CD",
"; 	c #9AB6D8",
"> 	c #A1BCDB",
", 	c #94B4D6",
"' 	c #82A4CA",
") 	c #6B92BB",
"! 	c #668CB0",
"~ 	c #8CA7BE",
"{ 	c #94B2CC",
"] 	c #84A7C6",
"^ 	c #97B7D1",
"/ 	c #99B9D3",
"( 	c #95B8D5",
"_ 	c #94B7D4",
": 	c #94B7D3",
"< 	c #92B4D0",
"[ 	c #8EAFCA",
"} 	c #89A8C1",
"| 	c #4F7EAD",
"1 	c #5A89BF",
"2 	c #77A0CE",
"3 	c #9BB9DA",
"4 	c #ABC3DE",
"5 	c #B1C7DE",
"6 	c #B3C8DF",
"7 	c #B0C6DE",
"8 	c #A8C1DD",
"9 	c #93B2D6",
"0 	c #719ACB",
"a 	c #5384BB",
"b 	c #618AAF",
"c 	c #86A4BC",
"d 	c #88A6BF",
"e 	c #6E93B5",
"f 	c #4374A7",
"g 	c #8FB0CC",
"h 	c #92B4D1",
"i 	c #91B5D3",
"j 	c #90B4D2",
"k 	c #8EB1CF",
"l 	c #8AABC7",
"m 	c #84A3BD",
"n 	c #3B73AE",
"o 	c #3672B8",
"p 	c #6894C6",
"q 	c #779CC5",
"r 	c #6E94BF",
"s 	c #678AB3",
"t 	c #6285AC",
"u 	c #6285AB",
"v 	c #6588AD",
"w 	c #688FB6",
"x 	c #7298C1",
"y 	c #779DC6",
"z 	c #598BC3",
"A 	c #2E6CB4",
"B 	c #4374A8",
"C 	c #5880A9",
"D 	c #4776A7",
"E 	c #2D629C",
"F 	c #88A9C4",
"G 	c #8DB0CD",
"H 	c #90B4D1",
"I 	c #8EB3D2",
"J 	c #8FB3D2",
"K 	c #8DB2D1",
"L 	c #8BB0CE",
"M 	c #88ABC8",
"N 	c #83A2BE",
"O 	c #3871AF",
"P 	c #195FAD",
"Q 	c #2765AA",
"R 	c #4779AE",
"S 	c #53779F",
"T 	c #70869E",
"U 	c #969FA7",
"V 	c #ADB0B4",
"W 	c #B3B5B6",
"X 	c #A6AAAE",
"Y 	c #8793A1",
"Z 	c #637D99",
"` 	c #4F77A3",
" .	c #4678AE",
"..	c #1E60A9",
"+.	c #316EB5",
"@.	c #4979AF",
"#.	c #255994",
"$.	c #104988",
"%.	c #85A5C1",
"&.	c #8AADCB",
"*.	c #8CB1D0",
"=.	c #8BB1D1",
"-.	c #8CB2D2",
";.	c #89AFCF",
">.	c #87ABCA",
",.	c #82A5C1",
"'.	c #4476AD",
").	c #1B5FAE",
"!.	c #0E529E",
"~.	c #165497",
"{.	c #607C9A",
"].	c #A7AAAF",
"^.	c #D1D0CE",
"/.	c #DBDBDA",
"(.	c #DADADA",
"_.	c #D9D9D9",
":.	c #D6D6D6",
"<.	c #D1D0D0",
"[.	c #BEBDBC",
"}.	c #8995A1",
"|.	c #486C93",
"1.	c #0F5095",
"2.	c #1357A4",
"3.	c #205FA9",
"4.	c #053474",
"5.	c #2C5285",
"6.	c #82A4C1",
"7.	c #87ACCB",
"8.	c #8AB0CF",
"9.	c #88B0D1",
"0.	c #89B0D1",
"a.	c #88AFD0",
"b.	c #86ADCE",
"c.	c #81A7C6",
"d.	c #6C91B4",
"e.	c #2364B0",
"f.	c #1257A4",
"g.	c #115095",
"h.	c #607B9A",
"i.	c #B9B7B5",
"j.	c #D7D6D6",
"k.	c #D8D8D8",
"l.	c #D5D5D5",
"m.	c #D4D4D4",
"n.	c #D2D2D2",
"o.	c #D1D1D1",
"p.	c #CECECE",
"q.	c #CCCCCC",
"r.	c #C5C4C3",
"s.	c #969BA1",
"t.	c #3F658E",
"u.	c #0E4F95",
"v.	c #165BAA",
"w.	c #175099",
"x.	c #6B89A7",
"y.	c #80A4C1",
"z.	c #84ABCB",
"A.	c #87AFD0",
"B.	c #84ADCF",
"C.	c #85ADD0",
"D.	c #83ACCE",
"E.	c #84ACCE",
"F.	c #81A8C9",
"G.	c #7BA0BF",
"H.	c #3B73AB",
"I.	c #175EAD",
"J.	c #0B4D96",
"K.	c #436B94",
"L.	c #AEAFB0",
"M.	c #D4D3D3",
"N.	c #D3D3D3",
"O.	c #CFCFCF",
"P.	c #CDCDCD",
"Q.	c #CACACA",
"R.	c #C8C8C8",
"S.	c #C5C5C4",
"T.	c #85909B",
"U.	c #255991",
"V.	c #0D519B",
"W.	c #1B60AF",
"X.	c #527FA9",
"Y.	c #7CA0C0",
"Z.	c #81A9CA",
"`.	c #82ABCF",
" +	c #81AACE",
".+	c #80A9CD",
"++	c #7DA4C6",
"@+	c #7195B7",
"#+	c #2567B0",
"$+	c #1256A4",
"%+	c #165294",
"&+	c #8191A2",
"*+	c #CBCBCA",
"=+	c #D0D0D0",
"-+	c #DEDEDE",
";+	c #EDEDED",
">+	c #E1E1E1",
",+	c #C1C1C1",
"'+	c #C7C7C7",
")+	c #C5C5C5",
"!+	c #C2C2C2",
"~+	c #BFBFBF",
"{+	c #AEADAB",
"]+	c #567292",
"^+	c #0E4F94",
"/+	c #175CA9",
"(+	c #366FAE",
"_+	c #789DBD",
":+	c #7EA6C8",
"<+	c #81AACD",
"[+	c #7EA8CC",
"}+	c #7DA7CB",
"|+	c #7CA5C8",
"1+	c #78A0C2",
"2+	c #5E89AE",
"3+	c #1B60B0",
"4+	c #0C509A",
"5+	c #326195",
"6+	c #AAACAF",
"7+	c #CCCCCB",
"8+	c #CBCBCB",
"9+	c #F4F4F4",
"0+	c #FBFBFB",
"a+	c #F7F7F7",
"b+	c #F2F2F2",
"c+	c #C9C9C9",
"d+	c #B9B9B9",
"e+	c #BEBEBE",
"f+	c #BCBCBC",
"g+	c #B7B6B6",
"h+	c #818D9A",
"i+	c #185493",
"j+	c #1256A3",
"k+	c #2666AF",
"l+	c #7398B7",
"m+	c #7AA2C4",
"n+	c #7DA6CA",
"o+	c #7BA6CB",
"p+	c #7AA5CA",
"q+	c #79A3C8",
"r+	c #759DBF",
"s+	c #507EAD",
"t+	c #1A60B1",
"u+	c #0A4D96",
"v+	c #4A6F98",
"w+	c #BBB9B8",
"x+	c #F6F6F6",
"y+	c #FEFEFE",
"z+	c #F8F8F8",
"A+	c #F5F5F5",
"B+	c #EFEFEF",
"C+	c #BBBBBB",
"D+	c #94979C",
"E+	c #245890",
"F+	c #0E519D",
"G+	c #1F62B0",
"H+	c #6F94B4",
"I+	c #769FC2",
"J+	c #7AA4C9",
"K+	c #79A5CA",
"L+	c #78A4C9",
"M+	c #77A2C6",
"N+	c #729BBD",
"O+	c #4B7CAB",
"P+	c #195FB0",
"Q+	c #0A4C95",
"R+	c #4B6E93",
"S+	c #AFAEAC",
"T+	c #BDBDBD",
"U+	c #FFFFFF",
"V+	c #FDFDFD",
"W+	c #F9F9F9",
"X+	c #B5B5B5",
"Y+	c #ABABAB",
"Z+	c #919294",
"`+	c #2A5C91",
" @	c #0C509B",
".@	c #1E62B0",
"+@	c #6D93B2",
"@@	c #749EC1",
"#@	c #77A2C7",
"$@	c #75A2C9",
"%@	c #74A1C8",
"&@	c #739FC6",
"*@	c #6F99BD",
"=@	c #4B7AAA",
"-@	c #1A5FB1",
";@	c #0A4D95",
">@	c #446992",
",@	c #A4A4A2",
"'@	c #AFAFAF",
")@	c #B4B4B4",
"!@	c #F3F3F3",
"~@	c #EEEEEE",
"{@	c #B2B2B2",
"]@	c #AFAFAE",
"^@	c #94989B",
"/@	c #285B92",
"(@	c #0C519C",
"_@	c #1F62AF",
":@	c #6A90B1",
"<@	c #719BC0",
"[@	c #73A0C6",
"}@	c #73A0C8",
"|@	c #729FC7",
"1@	c #729EC5",
"2@	c #6E98BD",
"3@	c #5180AC",
"4@	c #0B4E98",
"5@	c #346193",
"6@	c #A2A3A4",
"7@	c #B6B6B6",
"8@	c #BABABA",
"9@	c #E0E0E0",
"0@	c #B5B4B4",
"a@	c #8B939E",
"b@	c #1D5693",
"c@	c #1054A1",
"d@	c #2364B1",
"e@	c #6A91B3",
"f@	c #6F9AC0",
"g@	c #729EC6",
"h@	c #6F9DC6",
"i@	c #6E9DC6",
"j@	c #6E9CC5",
"k@	c #6D9BC4",
"l@	c #6B97BE",
"m@	c #5E89AF",
"n@	c #1F62AE",
"o@	c #1A5593",
"p@	c #8895A4",
"q@	c #BBBBBA",
"r@	c #C3C3C3",
"s@	c #E4E4E4",
"t@	c #FCFCFC",
"u@	c #E5E5E5",
"v@	c #C6C6C6",
"w@	c #B8B7B5",
"x@	c #69829E",
"y@	c #0D4E93",
"z@	c #145AA9",
"A@	c #2D69AE",
"B@	c #6790B5",
"C@	c #6C98C0",
"D@	c #6E9CC4",
"E@	c #6B9BC4",
"F@	c #6A9AC3",
"G@	c #6A9AC2",
"H@	c #6896BE",
"I@	c #648FB4",
"J@	c #2D69AB",
"K@	c #165CAB",
"L@	c #0A4C94",
"M@	c #587A9D",
"N@	c #B9B8B6",
"O@	c #D7D7D7",
"P@	c #C4C3C3",
"Q@	c #A3AAB0",
"R@	c #3A6799",
"S@	c #0A4D97",
"T@	c #195EAF",
"U@	c #4076A8",
"V@	c #6692B7",
"W@	c #6997BF",
"X@	c #6999C4",
"Y@	c #6897C2",
"Z@	c #6796C0",
"`@	c #6491B8",
" #	c #4B7BA8",
".#	c #1B62B0",
"+#	c #0F539E",
"@#	c #225C99",
"##	c #869AAF",
"$#	c #C6C5C4",
"%#	c #CECECD",
"&#	c #DBDBDB",
"*#	c #C0BFBD",
"=#	c #708CAB",
"-#	c #185598",
";#	c #1157A5",
">#	c #2465B0",
",#	c #5C86AD",
"'#	c #6693BC",
")#	c #6797C1",
"!#	c #6898C3",
"~#	c #6697C2",
"{#	c #6696C2",
"]#	c #6596C2",
"^#	c #6495C1",
"/#	c #6595C0",
"(#	c #6392BB",
"_#	c #608AB1",
":#	c #2E69A9",
"<#	c #165CAD",
"[#	c #18589E",
"}#	c #4474A6",
"|#	c #90A4B9",
"1#	c #CDCBCB",
"2#	c #D8D8D7",
"3#	c #DDDDDD",
"4#	c #E2E2E2",
"5#	c #DCDCDC",
"6#	c #D7D6D5",
"7#	c #BEC0C4",
"8#	c #819AB6",
"9#	c #2E67A3",
"0#	c #12559F",
"a#	c #3C71A8",
"b#	c #608CB4",
"c#	c #6392BC",
"d#	c #6596C0",
"e#	c #6596C1",
"f#	c #6294C1",
"g#	c #6193C0",
"h#	c #6091BD",
"i#	c #5F8DB7",
"j#	c #5982A8",
"k#	c #2766AD",
"l#	c #165CAC",
"m#	c #2362A5",
"n#	c #4278AF",
"o#	c #7F9EBD",
"p#	c #ADBAC7",
"q#	c #D3D5D6",
"r#	c #E4E2E2",
"s#	c #E7E6E6",
"t#	c #E1E0E0",
"u#	c #CCD0D3",
"v#	c #A0B1C4",
"w#	c #7397BB",
"x#	c #3871AD",
"y#	c #1B5DA4",
"z#	c #175DAD",
"A#	c #3069AB",
"B#	c #5B87AF",
"C#	c #5F8EB9",
"D#	c #6192BE",
"E#	c #6093C0",
"F#	c #5F92BF",
"G#	c #5F91BE",
"H#	c #5E8FBB",
"I#	c #5B8AB3",
"J#	c #4F7AA5",
"K#	c #2766B0",
"L#	c #2062AA",
"M#	c #3F7AB4",
"N#	c #6694C3",
"O#	c #84A6C9",
"P#	c #95B1CD",
"Q#	c #9BB5CF",
"R#	c #91AFCC",
"S#	c #7EA3C8",
"T#	c #5A8DBE",
"U#	c #3572B1",
"V#	c #195CA8",
"W#	c #185EAF",
"X#	c #2F69AA",
"Y#	c #5A85AC",
"Z#	c #5C8CB6",
"`#	c #5E90BC",
" $	c #5C91BF",
".$	c #5B90BE",
"+$	c #5B8FBD",
"@$	c #5A8DB9",
"#$	c #5888B2",
"$$	c #527DA3",
"%$	c #2C67A7",
"&$	c #1D60AF",
"*$	c #195EAB",
"=$	c #2A69AF",
"-$	c #457DB9",
";$	c #6091C4",
">$	c #6C9AC9",
",$	c #5A8CC1",
"'$	c #3D77B6",
")$	c #2364AD",
"!$	c #185EAC",
"~$	c #2163AE",
"{$	c #326BA4",
"]$	c #5582AA",
"^$	c #588AB4",
"/$	c #5A8EBA",
". . . . . . . . . . . . . . + @ # $ % & * = - ; > , ' ) ! ~ % { $ $ ] ^ / + . . . . . . . . . . . . . . . . ",
"( ( ( ( ( ( ( ( ( ( ( ( ( _ : < [ } | 1 2 3 4 5 6 7 8 9 0 a b c d e f g h : _ ( ( ( ( ( ( ( ( ( ( ( ( ( ( ( ",
"i i i i i i i i i i i i j j k l m n o p q r s t u v w x y z A B C D E F G H j i i i i i i i i i i i i i i i ",
"I I I J I I I J I I I J K L M N O P Q R S T U V W X Y Z `  ...+.@.#.$.%.&.*.K J I I I J I I I J I J I I I J ",
"=.=.-.-.=.=.-.-.=.=.-.=.;.>.,.'.).!.~.{.].^./.(._.:.<.[.}.|.1.2.3.4.5.6.7.8.=.-.=.=.-.-.=.=.-.-.-.-.=.=.-.-.",
"9.9.0.0.9.9.0.0.9.9.0.a.b.c.d.e.f.g.h.i.j.k.l.m.n.o.p.q.r.s.t.u.v.w.x.y.z.A.a.0.9.9.0.0.9.9.0.0.0.0.9.9.0.0.",
"B.B.B.C.B.B.B.C.B.B.D.E.F.G.H.I.J.K.L.M.N.p.O.q.p.P.Q.R.S.[.T.U.V.W.X.Y.Z.D.D.C.B.B.B.C.B.B.B.C.B.C.B.B.B.C.",
"`.`.`.`.`.`.`.`.`.`. +.+++@+#+$+%+&+*+=+P.-+;+>+=+,+'+)+!+~+{+]+^+/+(+_+:+<+ +`.`.`.`.`.`.`.`.`.`.`.`.`.`.`.",
"[+[+[+[+[+[+[+[+[+[+}+|+1+2+3+4+5+6+7+8+p.9+0+a+b+(.c+d+e+f+g+h+i+j+k+l+m+n+}+[+[+[+[+[+[+[+[+[+[+[+[+[+[+[+",
"o+o+o+o+o+o+o+o+o+o+p+q+r+s+t+u+v+w+R.R.P.x+y+0+z+A+B+:.,+e+C+D+E+F+G+H+I+J+p+o+o+o+o+o+o+o+o+o+o+o+o+o+o+o+",
"K+K+K+K+K+K+K+K+K+K+L+M+N+O+P+Q+R+S+T+!+Q.a+U+V+V+0+W+a+o.X+Y+Z+`+ @.@+@@@#@L+K+K+K+K+K+K+K+K+K+K+K+K+K+K+K+",
"$@$@$@$@$@$@$@$@$@$@%@&@*@=@-@;@>@,@'@)@e+!@U+y+y+y+U+~@'+{@]@^@/@(@_@:@<@[@%@$@$@$@$@$@$@$@$@$@$@$@$@$@$@$@",
"}@}@}@}@}@}@}@}@}@}@|@1@2@3@t+4@5@6@7@8@!+A+U+U+y+9+9@R.f+d+0@a@b@c@d@e@f@g@|@}@}@}@}@}@}@}@}@}@}@}@}@}@}@}@",
"h@h@h@i@h@h@h@i@h@h@j@k@l@m@n@c@o@p@q@~+r@s@t@A+u@n.c+v@!+e+w@x@y@z@A@B@C@D@j@i@h@h@h@i@h@h@h@i@h@i@h@h@h@i@",
"E@E@E@E@E@E@E@E@E@E@F@G@H@I@J@K@L@M@N@)+c+P.k.O@N.n.=+q.R.P@Q@R@S@T@U@V@W@F@E@E@E@E@E@E@E@E@E@E@E@E@E@E@E@E@",
"X@X@X@X@X@X@X@X@X@X@X@Y@Z@`@ #.#+#@###$#%#n.O@(.&#_.:.o.P.*#=#-#;#>#,#'#)#!#X@X@X@X@X@X@X@X@X@X@X@X@X@X@X@X@",
"~#~#{#]#~#~#{#]#~#~#{#^#/#(#_#:#<#[#}#|#1#2#3#>+4#9@5#6#7#8#9#0#-@a#b#c#d#e#{#]#~#~#{#]#~#~#{#]#{#]#~#~#{#]#",
"f#f#f#f#f#f#f#f#f#f#f#g#g#h#i#j#k#l#m#n#o#p#q#r#s#t#u#v#w#x#y#z#A#B#C#D#g#f#f#f#f#f#f#f#f#f#f#f#f#f#f#f#f#f#",
"E#E#E#E#E#E#E#E#E#E#E#E#F#G#H#I#J#K#K@L#M#N#O#P#Q#R#S#T#U#V#W#X#Y#Z#`#F#F#E#E#E#E#E#E#E#E#E#E#E#E#E#E#E#E#E#",
" $ $ $ $ $ $ $ $ $ $ $ $ $.$+$@$#$$$%$&$*$=$-$;$>$,$'$)$!$~${$]$^$/$.$.$ $ $ $ $ $ $ $ $ $ $ $ $ $ $ $ $ $ $"};
