/* XPM */
static char * taskbarbg_xpm[] = {
"4 25 33 1",
" 	c None",
".	c #F6F6F6",
"+	c #9BBBD6",
"@	c #9BBBD5",
"#	c #95B8D5",
"$	c #91B5D3",
"%	c #8EB3D2",
"&	c #8FB3D2",
"*	c #8BB1D1",
"=	c #8CB2D2",
"-	c #88B0D1",
";	c #89B0D1",
">	c #84ADCF",
",	c #85ADD0",
"'	c #82ABCF",
")	c #7EA8CC",
"!	c #7BA6CB",
"~	c #79A5CA",
"{	c #75A2C9",
"]	c #73A0C8",
"^	c #6F9DC6",
"/	c #6E9DC6",
"(	c #6B9BC4",
"_	c #6999C4",
":	c #6697C2",
"<	c #6696C2",
"[	c #6596C2",
"}	c #6294C1",
"|	c #6093C0",
"1	c #5C91BF",
"2	c #598FBE",
"3	c #578DBD",
"4	c #558CBD",
"....",
"+++@",
"++++",
"####",
"$$$$",
"%%%&",
"**==",
"--;;",
">>>,",
"''''",
"))))",
"!!!!",
"~~~~",
"{{{{",
"]]]]",
"^^^/",
"((((",
"____",
"::<[",
"}}}}",
"||||",
"1111",
"2222",
"3333",
"4444"};
