/* XPM */
static char * taskbuttonactive_xpm[] = {
"4 25 31 1",
" 	c None",
".	c #86A3BC",
"+	c #85A3BC",
"@	c #D2DDE6",
"#	c #DAE3EA",
"$	c #D3DEE6",
"%	c #D3DDE6",
"&	c #D6DFE7",
"*	c #D8E0E7",
"=	c #DCE2E8",
"-	c #DBE1E8",
";	c #DFE4EA",
">	c #DEE4E9",
",	c #E2E6EA",
"'	c #E2E6EB",
")	c #E4E8EB",
"!	c #E3E6EA",
"~	c #D9E1E7",
"{	c #D5DEE6",
"]	c #D0DBE5",
"^	c #CBD8E4",
"/	c #C7D6E3",
"(	c #C4D3E0",
"_	c #C2D1E0",
":	c #C1D1DF",
"<	c #BBCDDD",
"[	c #D4E1EB",
"}	c #D4E0EB",
"|	c #BCCBD8",
"1	c #BBCAD7",
"2	c #597997",
".+..",
"@@@@",
"####",
"$$$$",
"@@@@",
"%%%%",
"&&&&",
"****",
"=---",
";>>>",
",'''",
"))))",
"!)))",
">>>>",
"~~~~",
"{{{{",
"]]]]",
"^^^^",
"////",
"((((",
"___:",
"<<<<",
"[[[}",
"|||1",
"2222"};
