/* XPM */
static char * windows_xpm[] = {
"20 20 62 1",
" 	c None",
".	c #EEEEEE",
"+	c #F0F0F0",
"@	c #F1F1F1",
"#	c #EFEFEF",
"$	c #EEEFF1",
"%	c #ECEDEF",
"&	c #E2E2E3",
"*	c #E3E3E4",
"=	c #E5E5E7",
"-	c #E6E6E7",
";	c #E1E1E2",
">	c #E1E1E3",
",	c #D7DEE7",
"'	c #DDE3EA",
")	c #DDDDDF",
"!	c #DCDCDE",
"~	c #E0E0E2",
"{	c #E1E1E1",
"]	c #DEDEDF",
"^	c #DEDEDE",
"/	c #E0E0E1",
"(	c #FFFFFF",
"_	c #FBFBFB",
":	c #E6E6E6",
"<	c #DDDDDD",
"[	c #DCDCDC",
"}	c #DFDFDF",
"|	c #FDFDFD",
"1	c #B9B9B9",
"2	c #D9D9DA",
"3	c #E0E0E0",
"4	c #EAEAEB",
"5	c #EBEBEC",
"6	c #E2E2E2",
"7	c #DBDBDB",
"8	c #C8D7E9",
"9	c #AAC7E7",
"0	c #EDEDED",
"a	c #B3B3B3",
"b	c #DCDCDD",
"c	c #D9D9DB",
"d	c #E3E3E5",
"e	c #D8D8DA",
"f	c #DDDDDE",
"g	c #D8D8D9",
"h	c #C7D6E5",
"i	c #B6D1E7",
"j	c #B6B6B6",
"k	c #F2F2F3",
"l	c #F5F5F6",
"m	c #F4F4F5",
"n	c #FAFAFA",
"o	c #F7F7F8",
"p	c #EBEBEB",
"q	c #FDFDFE",
"r	c #3A3A3B",
"s	c #FEFEFE",
"t	c #FCFCFC",
"u	c #FCFCFD",
"v	c #DADADB",
"w	c #DBDBDC",
"                    ",
" .+@@@@@@@#@#+$%    ",
" &*======-;&*>,'    ",
" )!!!!!!!!!!!!!~    ",
" *&{]]]]]]]]]]^/    ",
" (_:<[[[[[[[[[<}    ",
" |@1234444445^36789 ",
" |0abcddddddde!fghi ",
" |0j!eeeeeeeeeeeeec ",
" |0jklllllllllllllm ",
" |0jn(((((((((((((| ",
" |0jn(((((((((((((| ",
" |0j_(((((((((((((| ",
" op1_(((((((((((((q ",
"   r|(((((((((((((s ",
"    t(((((((((((((s ",
"    u(((((((((((((s ",
"    ((((((((((((((( ",
"    v[[[wwwww[b<f^} ",
"                    "};
