/* XPM */
static char * app_32x32_xpm[] = {
"32 32 248 2",
"  	c None",
". 	c #F57900",
"+ 	c #F57A00",
"@ 	c #EB8717",
"# 	c #F47900",
"$ 	c #E89C3D",
"% 	c #EABD7C",
"& 	c #E99A3B",
"* 	c #F57A01",
"= 	c #E99D3E",
"- 	c #E5AE5C",
"; 	c #D98911",
"> 	c #E99B3C",
", 	c #F67B04",
"' 	c #EEAD5D",
") 	c #E6B05E",
"! 	c #DA8911",
"~ 	c #DA880E",
"{ 	c #EA9D3C",
"] 	c #F3BC7B",
"^ 	c #F1D1A0",
"/ 	c #DC8B13",
"( 	c #DC8A10",
"_ 	c #E8B160",
": 	c #EB9D3D",
"< 	c #F3B975",
"[ 	c #F4D8AF",
"} 	c #EEC78A",
"| 	c #EEC689",
"1 	c #EFC689",
"2 	c #E29C32",
"3 	c #DE8D13",
"4 	c #DE8C13",
"5 	c #DD8D15",
"6 	c #E8B15D",
"7 	c #EC9D3C",
"8 	c #EB9F3F",
"9 	c #F0CC95",
"0 	c #EFC78B",
"a 	c #EFC78A",
"b 	c #F0C78A",
"c 	c #E6A542",
"d 	c #E08F15",
"e 	c #DF8E15",
"f 	c #DF8F17",
"g 	c #E8B05D",
"h 	c #EC9D3B",
"i 	c #EB9E3D",
"j 	c #E9B05B",
"k 	c #E9AF57",
"l 	c #F0C78B",
"m 	c #F0C88B",
"n 	c #EBB463",
"o 	c #E39A2B",
"p 	c #E19118",
"q 	c #E19017",
"r 	c #E09018",
"s 	c #E9B05A",
"t 	c #EC9C3A",
"u 	c #EC9E3C",
"v 	c #E9B059",
"w 	c #E19119",
"x 	c #E8AB4F",
"y 	c #F1C88C",
"z 	c #F1C98C",
"A 	c #E9A94A",
"B 	c #E3931A",
"C 	c #E3921A",
"D 	c #E29219",
"E 	c #E29119",
"F 	c #E1921A",
"G 	c #E9AF58",
"H 	c #EC9B38",
"I 	c #F67A01",
"J 	c #F47901",
"K 	c #EB9E3B",
"L 	c #E9AE57",
"M 	c #EAAD52",
"N 	c #F2C98D",
"O 	c #F2CA8E",
"P 	c #EAAA4B",
"Q 	c #E5951D",
"R 	c #E5941C",
"S 	c #E4941C",
"T 	c #E4931B",
"U 	c #E2931B",
"V 	c #EC9B36",
"W 	c #EB9C39",
"X 	c #E9AE55",
"Y 	c #E2921A",
"Z 	c #ECB25C",
"` 	c #F3CB8F",
" .	c #EEB868",
"..	c #E9A033",
"+.	c #E79720",
"@.	c #E7971F",
"#.	c #E6961F",
"$.	c #E6961E",
"%.	c #E3931C",
"&.	c #E9AD53",
"*.	c #EC9B35",
"=.	c #EB9C37",
"-.	c #E9AC52",
";.	c #E2921B",
">.	c #EEB96B",
",.	c #F3CB90",
"'.	c #F4CC90",
").	c #F4CC91",
"!.	c #EDAD4D",
"~.	c #E99922",
"{.	c #E89821",
"].	c #E3941C",
"^.	c #E9AB50",
"/.	c #EC9A33",
"(.	c #EE8A19",
"_.	c #EBB666",
":.	c #E2931D",
"<.	c #E3931B",
"[.	c #F2C786",
"}.	c #F4CD91",
"|.	c #F5CD92",
"1.	c #EEA841",
"2.	c #EB9B25",
"3.	c #EA9B24",
"4.	c #EA9A24",
"5.	c #E99A23",
"6.	c #E99B27",
"7.	c #EAA640",
"8.	c #E69721",
"9.	c #E3951F",
"0.	c #EEBF7A",
"a.	c #EF8817",
"b.	c #E9AC4F",
"c.	c #E5951E",
"d.	c #EAA235",
"e.	c #F3C47D",
"f.	c #EC9D26",
"g.	c #EC9D27",
"h.	c #ED9F2D",
"i.	c #EB9C25",
"j.	c #ECA944",
"k.	c #E69720",
"l.	c #ECB461",
"m.	c #F5B66F",
"n.	c #F67B02",
"o.	c #ED9C35",
"p.	c #EBAD4F",
"q.	c #E79822",
"r.	c #E89922",
"s.	c #F0B762",
"t.	c #F5CE92",
"u.	c #F6CE93",
"v.	c #F1B55B",
"w.	c #ED9E29",
"x.	c #EE9F29",
"y.	c #EE9F2A",
"z.	c #F0A940",
"A.	c #F6CD90",
"B.	c #F0AE4B",
"C.	c #EEA73C",
"D.	c #F1BB6A",
"E.	c #F5CD91",
"F.	c #F3C98A",
"G.	c #F5D19D",
"H.	c #F5B469",
"I.	c #EF9C35",
"J.	c #EDAE4E",
"K.	c #EB9E2B",
"L.	c #F4CB8C",
"M.	c #F6CF94",
"N.	c #F0A93F",
"O.	c #EFA02B",
"P.	c #F0A12C",
"Q.	c #F0A331",
"R.	c #F7CE92",
"S.	c #F5CE93",
"T.	c #F7D7A6",
"U.	c #F6B76F",
"V.	c #F57B04",
"W.	c #EF9E36",
"X.	c #F4C581",
"Y.	c #F6CE94",
"Z.	c #F7CF94",
"`.	c #F7D095",
" +	c #F7CA89",
".+	c #F3AD46",
"++	c #F3AD45",
"@+	c #F6BC68",
"#+	c #F3A83A",
"$+	c #F6C274",
"%+	c #F8D197",
"&+	c #F8D096",
"*+	c #F7CF95",
"=+	c #F8D7A6",
"-+	c #F7B86F",
";+	c #F47902",
">+	c #F6BB75",
",+	c #F8D8A7",
"'+	c #F8D196",
")+	c #F6C273",
"!+	c #F6BB64",
"~+	c #FAD398",
"{+	c #F9D297",
"]+	c #F9D298",
"^+	c #F7B970",
"/+	c #F47B04",
"(+	c #F7BC76",
"_+	c #F6C782",
":+	c #F6BD68",
"<+	c #F5AD42",
"[+	c #F5AA3B",
"}+	c #FAD296",
"|+	c #FAD49A",
"1+	c #FAD399",
"2+	c #F9D8A8",
"3+	c #F8B970",
"4+	c #F57B03",
"5+	c #F3A138",
"6+	c #F4B250",
"7+	c #F5B14C",
"8+	c #F5AB3E",
"9+	c #FAC578",
"0+	c #FBD59B",
"a+	c #FBD49A",
"b+	c #FAD39A",
"c+	c #FBD9A8",
"d+	c #F9BA71",
"e+	c #F5A238",
"f+	c #FBD7A2",
"g+	c #FCD59B",
"h+	c #FCD69C",
"i+	c #FCDAA7",
"j+	c #F6A846",
"k+	c #FCD9A5",
"l+	c #FCD59C",
"m+	c #FDD69D",
"n+	c #FCDAA8",
"o+	c #F57A02",
"p+	c #F9BE76",
"q+	c #FDD69E",
"r+	c #FDDBA8",
"s+	c #FABA71",
"t+	c #F57C05",
"u+	c #FCDBAA",
"v+	c #FABB71",
"w+	c #F47B05",
"x+	c #F79E40",
"y+	c #F37A04",
"                                                                ",
"                                                                ",
"                                .                               ",
"                              + @ #                             ",
"                            . $ % & #                           ",
"                          * = - ; - > #                         ",
"                        , ' ) ! ~ ! ) { #                       ",
"                      , ] ^ / ( ( ( / _ : #                     ",
"                    + < [ } | 1 2 3 4 5 6 7 #                   ",
"                  * 8 9 0 a a b c d d e f g h #                 ",
"                * i j k l m n o p p p q q r s t #               ",
"              * u v w x y z A B B B B C D E F G H I             ",
"            J K L F D M N O P Q Q Q Q R S T C U k V I           ",
"          J W X Y C T Z O `  ...+.+.@.#.$.Q R T %.&.*.I         ",
"        J =.-.;.B S Q >.,.'.'.).!.~.~.{.{.+.#.Q S ].^./.I       ",
"      . (._.:.<.R $.+.[.).}.|.|.1.2.3.4.5.~.6.7.8.R 9.0.a..     ",
"        J *.b.c.$.+.d.}.|.e.f.g.g.g.g.h.i.3.j.).7.k.l.m.n.      ",
"          * o.p.q.r.s.t.u.v.w.x.y.y.z.A.B.C.D.E.F.G.H.,         ",
"            * I.J.K.L.u.M.N.O.P.P.P.Q.R.M.M.u.S.T.U.V.          ",
"              * W.X.Y.Z.`. +.+++@+#+$+%+&+`.*+=+-+V.            ",
"                ;+>+,+`.'+%+)+!+~+{+]+]+%+'+,+^+V.              ",
"                  /+(+_+.+:+<+[+}+|+1+1+]+2+3+V.                ",
"                    4+5+6+7+8+9+0+0+a+b+c+d+,                   ",
"                      * e+f+|+g+h+h+g+i+d+,                     ",
"                        * j+k+l+m+m+n+d+/+                      ",
"                          o+p+i+q+r+s+/+                        ",
"                            t+p+u+v+/+                          ",
"                              w+x+y+                            ",
"                                .                               ",
"                                                                ",
"                                                                ",
"                                                                "};
