/* XPM */
static char * folder_32x32_xpm[] = {
"32 32 194 2",
"  	c None",
". 	c #7A7A7A",
"+ 	c #767676",
"@ 	c #797979",
"# 	c #CECECE",
"$ 	c #C3C3C3",
"% 	c #C1C1C1",
"& 	c #BFBFBF",
"* 	c #BCBCBC",
"= 	c #BABABA",
"- 	c #B9B9B9",
"; 	c #B8B8B8",
"> 	c #B7B7B7",
", 	c #898989",
"' 	c #787878",
") 	c #B2B2B2",
"! 	c #989898",
"~ 	c #969696",
"{ 	c #929292",
"] 	c #909090",
"^ 	c #8E8E8E",
"/ 	c #8C8C8C",
"( 	c #8A8A8A",
"_ 	c #888888",
": 	c #939393",
"< 	c #727272",
"[ 	c #747474",
"} 	c #C2C2C2",
"| 	c #A7A7A7",
"1 	c #A4A4A4",
"2 	c #A1A1A1",
"3 	c #9E9E9E",
"4 	c #9B9B9B",
"5 	c #959595",
"6 	c #949494",
"7 	c #737373",
"8 	c #6F6F6F",
"9 	c #707070",
"0 	c #6E6E6E",
"a 	c #717171",
"b 	c #ABABAB",
"c 	c #8D8D8D",
"d 	c #878787",
"e 	c #848484",
"f 	c #828282",
"g 	c #808080",
"h 	c #7F7F7F",
"i 	c #7D7D7D",
"j 	c #919191",
"k 	c #9F9F9F",
"l 	c #A2A2A2",
"m 	c #A6A6A6",
"n 	c #AAAAAA",
"o 	c #A9A9A9",
"p 	c #6B6B6B",
"q 	c #9A9A9A",
"r 	c #8B8B8B",
"s 	c #868686",
"t 	c #676767",
"u 	c #6D6D6D",
"v 	c #A3A3A3",
"w 	c #858585",
"x 	c #818181",
"y 	c #7E7E7E",
"z 	c #7B7B7B",
"A 	c #777777",
"B 	c #626262",
"C 	c #696969",
"D 	c #ADADAD",
"E 	c #708298",
"F 	c #3465A4",
"G 	c #3566A5",
"H 	c #686868",
"I 	c #597191",
"J 	c #82A4CC",
"K 	c #BAD0E7",
"L 	c #B7CEE6",
"M 	c #B6CDE6",
"N 	c #B6CCE5",
"O 	c #3666A4",
"P 	c #636363",
"Q 	c #56759B",
"R 	c #8DADD2",
"S 	c #96B7DB",
"T 	c #7EA7D2",
"U 	c #81A9D3",
"V 	c #81A9D4",
"W 	c #89AFD7",
"X 	c #A9C3DF",
"Y 	c #3868A6",
"Z 	c #4A6D9A",
"` 	c #97B5D7",
" .	c #91B3D9",
"..	c #84ABD5",
"+.	c #9DBADA",
"@.	c #3968A7",
"#.	c #5F5F5F",
"$.	c #466EA0",
"%.	c #A2BDDC",
"&.	c #8CB1D7",
"*.	c #78A3D0",
"=.	c #94B2D6",
"-.	c #3A6AA8",
";.	c #5C5C5C",
">.	c #3E69A1",
",.	c #ABC4E1",
"'.	c #86ACD5",
").	c #719ECE",
"!.	c #8AAFD7",
"~.	c #8BABD1",
"{.	c #376AA7",
"].	c #575757",
"^.	c #3968A3",
"/.	c #B4CBE5",
"(.	c #7DA6D2",
"_.	c #77A2D0",
":.	c #8FB3D8",
"<.	c #81A3CC",
"[.	c #3766A5",
"}.	c #565656",
"|.	c #727374",
"1.	c #3968A4",
"2.	c #B9CFE6",
"3.	c #79A4D1",
"4.	c #739FCF",
"5.	c #95B6DA",
"6.	c #759AC6",
"7.	c #4B78B1",
"8.	c #515151",
"9.	c #797E83",
"0.	c #4472A9",
"a.	c #ACC7E2",
"b.	c #7CA5D2",
"c.	c #7AA4D1",
"d.	c #76A1D0",
"e.	c #729FCE",
"f.	c #698FC0",
"g.	c #5A84B7",
"h.	c #4E4E4E",
"i.	c #757575",
"j.	c #666F7A",
"k.	c #5079AD",
"l.	c #A1BFDE",
"m.	c #75A1CF",
"n.	c #94B6DA",
"o.	c #484848",
"p.	c #6A7788",
"q.	c #5780B3",
"r.	c #97B8DB",
"s.	c #75A1D0",
"t.	c #729ECE",
"u.	c #91B4D9",
"v.	c #6A6A6A",
"w.	c #5A6C82",
"x.	c #5982B4",
"y.	c #85ACD5",
"z.	c #4070AC",
"A.	c #5D728E",
"B.	c #5A85B9",
"C.	c #7CA6D2",
"D.	c #709ECE",
"E.	c #709DCE",
"F.	c #6F9DCE",
"G.	c #6E9CCE",
"H.	c #506B8C",
"I.	c #5887BC",
"J.	c #719ECF",
"K.	c #6B9ACD",
"L.	c #6A9ACD",
"M.	c #6A99CD",
"N.	c #6999CD",
"O.	c #6999CC",
"P.	c #6A99CC",
"Q.	c #76A2D1",
"R.	c #3466A4",
"S.	c #616161",
"T.	c #507098",
"U.	c #5586BD",
"V.	c #6899CD",
"W.	c #6798CC",
"X.	c #6698CC",
"Y.	c #6697CC",
"Z.	c #6697CB",
"`.	c #6696CC",
" +	c #6597CC",
".+	c #6394CA",
"++	c #5A5B5D",
"@+	c #3D69A0",
"#+	c #578AC2",
"$+	c #6194CB",
"%+	c #5183BD",
"&+	c #3665A1",
"*+	c #395B88",
"=+	c #3564A2",
"                                                                ",
"                                                                ",
"                                                                ",
"    . + + + + + + + + + + @                                     ",
"    + # $ % & * = - ; > > ,                                     ",
"    ' ) ! ~ { ] ^ / ( , _ : <                                   ",
"    [ } | 1 2 3 4 ! ~ 5 : 6 7 8 9 9 8 8 8 8 0 0 a               ",
"    7 b ] c , d e f g h i i i j 3 k k 2 l m n o p               ",
"    8 > 3 q ~ : ] c r , d d s s d d , ( c ] : : t               ",
"    u v _ w x y z @ A [ 7 < a a a 7 [ + ' . i y B               ",
"    C D ~ E F F F F F F F F F F F F F F F F F F F F F F F G     ",
"    H q x I J K K K K K K K K K K K K K K K K K L M M L N O     ",
"    P 2 ^ Q R S T T T T T T T T T T T T T T T T U V V W X Y     ",
"    B { . Z `  .T T T T T T T T T T T T T T T T T T T ..+.@.    ",
"    #.5 _ $.%.&.T T T T T T T T T T T T T T T T T T *...=.-.    ",
"    ;.d A >.,.'.T T T T T T T T T T T T T T T T T *.).!.~.{.    ",
"    ].( e ^./.U T T T T T T T T T T T T T T T (._.).).:.<.[.    ",
"    }.h |.1.2.T T T T T T T T T T T T T T (.3.4.).).).5.6.7.    ",
"    8.y 9.0.a.T T T T T T T (.b.c.c.3.*.d.e.).).).).).S f.g.    ",
"    h.i.j.k.l.T T (.c.*.m.e.).).).).).).).).).).).).).n.g.      ",
"    o.7 p.q.r.c.s.t.).).).).).).).).).).).).).).).).).u.7.      ",
"      v.w.x.y.).).).).).).).).).).).).).).).).).).).).&.z.      ",
"      H A.B.C.D.E.E.E.E.F.F.F.F.F.F.F.F.F.G.G.G.G.G.G...@.      ",
"      P H.I.J.K.K.K.L.L.L.L.L.L.L.M.M.N.N.N.N.N.O.O.P.Q.R.      ",
"      S.T.U.V.W.W.X.X.X.Y.Y.Y.Y.Z.Y.Y.Y.Y.Y.Y.Y.Y.`. +.+[.      ",
"      ++@+#+$+$+$+$+$+$+$+$+$+$+$+$+$+$+$+$+$+$+$+$+$+%+&+      ",
"      *+F F F F F F F F F F F F F F F F F F F F F F F =+        ",
"                                                                ",
"                                                                ",
"                                                                ",
"                                                                ",
"                                                                "};
