/* XPM */
static char * xterm_32x32_xpm[] = {
"32 32 485 2",
"  	c None",
". 	c #A4A79F",
"+ 	c #A2A69D",
"@ 	c #A1A59C",
"# 	c #A0A49B",
"$ 	c #9DA198",
"% 	c #9B9F96",
"& 	c #999D94",
"* 	c #979B92",
"= 	c #94988F",
"- 	c #92968D",
"; 	c #90948B",
"> 	c #8E9289",
", 	c #8B8F87",
"' 	c #898D84",
") 	c #878B82",
"! 	c #858980",
"~ 	c #848880",
"{ 	c #A6AAA1",
"] 	c #D8DAD7",
"^ 	c #EEEFEE",
"/ 	c #F2F3F2",
"( 	c #F1F2F1",
"_ 	c #F0F1F0",
": 	c #EAEBEA",
"< 	c #CDD0CC",
"[ 	c #82857C",
"} 	c #A5A7A0",
"| 	c #D6D8D5",
"1 	c #E6E7E5",
"2 	c #CED0CD",
"3 	c #CACCC9",
"4 	c #E2E3E2",
"5 	c #C9CAC7",
"6 	c #7A7E76",
"7 	c #A1A79C",
"8 	c #939590",
"9 	c #616261",
"0 	c #606060",
"a 	c #616161",
"b 	c #636363",
"c 	c #656565",
"d 	c #686868",
"e 	c #6A6A6A",
"f 	c #6C6C6C",
"g 	c #6E6E6E",
"h 	c #707070",
"i 	c #727272",
"j 	c #757575",
"k 	c #777777",
"l 	c #797979",
"m 	c #7B7B7B",
"n 	c #7D7D7D",
"o 	c #7F7F7F",
"p 	c #828282",
"q 	c #858584",
"r 	c #A8AAA6",
"s 	c #CDCFCC",
"t 	c #E6E7E6",
"u 	c #71756E",
"v 	c #C7C9C6",
"w 	c #626361",
"x 	c #303428",
"y 	c #33382D",
"z 	c #33372C",
"A 	c #32372C",
"B 	c #32372B",
"C 	c #32362B",
"D 	c #32362A",
"E 	c #31362A",
"F 	c #303529",
"G 	c #2F3427",
"H 	c #2E3426",
"I 	c #2E3326",
"J 	c #2C3123",
"K 	c #8A8A89",
"L 	c #C9CBC8",
"M 	c #E9E9E8",
"N 	c #6B6F67",
"O 	c #C4C6C3",
"P 	c #636462",
"Q 	c #31352A",
"R 	c #ADBC95",
"S 	c #ACBC95",
"T 	c #ABBB93",
"U 	c #AABB92",
"V 	c #AABA91",
"W 	c #A9B990",
"X 	c #A8B98F",
"Y 	c #A7B88E",
"Z 	c #A6B78C",
"` 	c #A5B78A",
" .	c #A4B689",
"..	c #A3B588",
"+.	c #A3B587",
"@.	c #A2B486",
"#.	c #A1B485",
"$.	c #A1B384",
"%.	c #A0B384",
"&.	c #9FB282",
"*.	c #9EB281",
"=.	c #2D3224",
"-.	c #8C8C8C",
";.	c #C2C4C1",
">.	c #E5E5E4",
",.	c #676B63",
"'.	c #2C3126",
").	c #99A586",
"!.	c #98A485",
"~.	c #97A383",
"{.	c #96A283",
"].	c #95A281",
"^.	c #94A180",
"/.	c #93A07F",
"(.	c #929F7E",
"_.	c #919E7D",
":.	c #909E7C",
"<.	c #8F9D7B",
"[.	c #8E9D7A",
"}.	c #8D9B78",
"|.	c #8D9B77",
"1.	c #8B9A76",
"2.	c #8B9975",
"3.	c #899873",
"4.	c #899773",
"5.	c #879671",
"6.	c #86956F",
"7.	c #292E21",
"8.	c #8F8F8F",
"9.	c #BCBEBA",
"0.	c #E0E1E0",
"a.	c #63675F",
"b.	c #2C3125",
"c.	c #9DAD86",
"d.	c #9CAC84",
"e.	c #9BAB84",
"f.	c #9AAB82",
"g.	c #9AAA81",
"h.	c #99A980",
"i.	c #98A97F",
"j.	c #97A87D",
"k.	c #96A87D",
"l.	c #95A77B",
"m.	c #95A67B",
"n.	c #94A57A",
"o.	c #93A579",
"p.	c #92A577",
"q.	c #92A477",
"r.	c #90A375",
"s.	c #90A374",
"t.	c #90A274",
"u.	c #8FA272",
"v.	c #8EA171",
"w.	c #8DA070",
"x.	c #282D1F",
"y.	c #929292",
"z.	c #B5B7B3",
"A.	c #DCDCDB",
"B.	c #5F635B",
"C.	c #9EA299",
"D.	c #646462",
"E.	c #282C22",
"F.	c #889475",
"G.	c #8BA07C",
"H.	c #869374",
"I.	c #859272",
"J.	c #849071",
"K.	c #839070",
"L.	c #828F6E",
"M.	c #818E6E",
"N.	c #808D6C",
"O.	c #7F8D6B",
"P.	c #7E8C6A",
"Q.	c #7D8B69",
"R.	c #7D8B68",
"S.	c #7C8A66",
"T.	c #7B8966",
"U.	c #798864",
"V.	c #798763",
"W.	c #73835D",
"X.	c #6A7B51",
"Y.	c #607244",
"Z.	c #586A3A",
"`.	c #1A2010",
" +	c #959595",
".+	c #AEB0AC",
"++	c #D7D8D6",
"@+	c #5B5F57",
"#+	c #9A9E95",
"$+	c #666765",
"%+	c #272C20",
"&+	c #8B9B74",
"*+	c #AECAA5",
"=+	c #B1CAA7",
"-+	c #8BA176",
";+	c #889970",
">+	c #87986F",
",+	c #86976E",
"'+	c #85966D",
")+	c #84956B",
"!+	c #84946B",
"~+	c #839469",
"{+	c #829368",
"]+	c #819267",
"^+	c #809266",
"/+	c #7D9061",
"(+	c #728654",
"_+	c #657B44",
":+	c #5D743A",
"<+	c #5D753A",
"[+	c #1B2111",
"}+	c #989898",
"|+	c #A8A9A5",
"1+	c #D2D2D0",
"2+	c #575B52",
"3+	c #969A91",
"4+	c #696A68",
"5+	c #23271D",
"6+	c #768364",
"7+	c #ABC6A5",
"8+	c #F5FBF6",
"9+	c #D3E5D1",
"0+	c #94AD8A",
"a+	c #748562",
"b+	c #717E5E",
"c+	c #6F7C5C",
"d+	c #6E7C5B",
"e+	c #6D7A5A",
"f+	c #6C7A59",
"g+	c #6B7857",
"h+	c #677452",
"i+	c #55653D",
"j+	c #48592D",
"k+	c #47582C",
"l+	c #47582D",
"m+	c #171D0E",
"n+	c #9B9B9B",
"o+	c #A1A29E",
"p+	c #CCCDCB",
"q+	c #53574F",
"r+	c #6C6D6B",
"s+	c #22261C",
"t+	c #778762",
"u+	c #80996F",
"v+	c #A9C4A0",
"w+	c #DCECDA",
"x+	c #EDF9EE",
"y+	c #BED6B9",
"z+	c #849F73",
"A+	c #72855C",
"B+	c #718159",
"C+	c #708059",
"D+	c #6D7E55",
"E+	c #5E7143",
"F+	c #526734",
"G+	c #516633",
"H+	c #526633",
"I+	c #526733",
"J+	c #181D0F",
"K+	c #9E9E9E",
"L+	c #9A9C98",
"M+	c #C6C7C5",
"N+	c #BEC0BD",
"O+	c #6F6F6E",
"P+	c #1D2118",
"Q+	c #647053",
"R+	c #626E51",
"S+	c #626F51",
"T+	c #657B58",
"U+	c #90AC88",
"V+	c #C2DCC0",
"W+	c #DEF2DE",
"X+	c #8FAE88",
"Y+	c #5B6849",
"Z+	c #515E3D",
"`+	c #41512A",
" @	c #3F4E28",
".@	c #3F4F28",
"+@	c #14190D",
"@@	c #9F9F9F",
"#@	c #949591",
"$@	c #C1C1BF",
"%@	c #8A8E85",
"&@	c #F0F0EF",
"*@	c #B8BAB6",
"=@	c #707170",
"-@	c #1B2016",
";@	c #637250",
">@	c #63714E",
",@	c #63724F",
"'@	c #667E54",
")@	c #8FAD85",
"!@	c #C1DDBF",
"~@	c #DCF1DD",
"{@	c #8BAD81",
"]@	c #4D5E33",
"^@	c #46582C",
"/@	c #46592D",
"(@	c #47592D",
"_@	c #475A2D",
":@	c #151A0D",
"<@	c #8D8E8A",
"[@	c #BABAB8",
"}@	c #868A81",
"|@	c #EEEEEE",
"1@	c #B2B4B0",
"2@	c #737472",
"3@	c #171B13",
"4@	c #505B40",
"5@	c #5E7552",
"6@	c #94B08E",
"7@	c #D5E6D4",
"8@	c #EBF9EC",
"9@	c #AFC9AB",
"0@	c #59744D",
"a@	c #384826",
"b@	c #364323",
"c@	c #364423",
"d@	c #374523",
"e@	c #11160B",
"f@	c #868783",
"g@	c #B3B4B1",
"h@	c #82867D",
"i@	c #ECEDEC",
"j@	c #ACAEAB",
"k@	c #767675",
"l@	c #151910",
"m@	c #4B5839",
"n@	c #92B38C",
"o@	c #F4FBF4",
"p@	c #C4DCC3",
"q@	c #6C8D60",
"r@	c #3E542A",
"s@	c #3A4A26",
"t@	c #3B4A26",
"u@	c #3B4B26",
"v@	c #3C4B26",
"w@	c #3C4C26",
"x@	c #3C4C27",
"y@	c #3D4D27",
"z@	c #7F817C",
"A@	c #ADADAA",
"B@	c #7D8179",
"C@	c #EBEBEA",
"D@	c #A6A7A4",
"E@	c #787978",
"F@	c #0E1109",
"G@	c #2D381D",
"H@	c #7A9C73",
"I@	c #7E9D77",
"J@	c #364E29",
"K@	c #2D3A1D",
"L@	c #2D391D",
"M@	c #2D3A1E",
"N@	c #2E3A1E",
"O@	c #2F3A1E",
"P@	c #2F3B1E",
"Q@	c #2F3B1F",
"R@	c #0F120A",
"S@	c #797A75",
"T@	c #A5A6A3",
"U@	c #797D75",
"V@	c #E9E9E9",
"W@	c #9FA19E",
"X@	c #7B7B7A",
"Y@	c #0D1109",
"Z@	c #39542C",
"`@	c #303F20",
" #	c #2F3C1F",
".#	c #303D1F",
"+#	c #303E20",
"@#	c #313E20",
"##	c #313F20",
"$#	c #323F20",
"%#	c #0E1209",
"&#	c #777873",
"*#	c #A2A39F",
"=#	c #757971",
"-#	c #E8E8E7",
";#	c #999B97",
">#	c #7E7E7D",
",#	c #0B0E07",
"'#	c #252E18",
")#	c #252E19",
"!#	c #252F19",
"~#	c #5B7E55",
"{#	c #82A37D",
"]#	c #82A47D",
"^#	c #82A47E",
"/#	c #60825A",
"(#	c #26311A",
"_#	c #27311A",
":#	c #0C0F08",
"<#	c #A0A09D",
"[#	c #71756D",
"}#	c #E6E6E5",
"|#	c #7F807F",
"1#	c #0A0D07",
"2#	c #242E18",
"3#	c #242F18",
"4#	c #242F19",
"5#	c #83A47E",
"6#	c #FFFFFF",
"7#	c #8CAD88",
"8#	c #27321A",
"9#	c #9C9D99",
"0#	c #6D7169",
"a#	c #E4E5E4",
"b#	c #8E8F8B",
"c#	c #828281",
"d#	c #080B06",
"e#	c #1C2414",
"f#	c #1C2514",
"g#	c #1D2514",
"h#	c #5C7D57",
"i#	c #8AAA87",
"j#	c #62825C",
"k#	c #1F2614",
"l#	c #1F2714",
"m#	c #1F2715",
"n#	c #090C06",
"o#	c #999A96",
"p#	c #696D65",
"q#	c #E3E3E2",
"r#	c #878984",
"s#	c #868686",
"t#	c #0A0D08",
"u#	c #090B06",
"v#	c #0B0D09",
"w#	c #9C9C9B",
"x#	c #969793",
"y#	c #656961",
"z#	c #E1E2E0",
"A#	c #81827D",
"B#	c #81827F",
"C#	c #909090",
"D#	c #949494",
"E#	c #969696",
"F#	c #999999",
"G#	c #9D9D9D",
"H#	c #878785",
"I#	c #939490",
"J#	c #62665E",
"K#	c #D6D6D4",
"L#	c #838480",
"M#	c #787974",
"N#	c #C5E6A3",
"O#	c #97D359",
"P#	c #676863",
"Q#	c #7A7B76",
"R#	c #8C8D89",
"S#	c #545850",
"T#	c #5F625A",
"U#	c #A4A5A1",
"V#	c #90D04F",
"W#	c #747570",
"X#	c #898985",
"Y#	c #777974",
"Z#	c #535650",
"`#	c #5A5E57",
" $	c #A5A5A2",
".$	c #C9C9C7",
"+$	c #D0D0CE",
"@$	c #CDCDCB",
"#$	c #CACBC9",
"$$	c #C8C8C6",
"%$	c #C5C5C3",
"&$	c #C2C2C0",
"*$	c #BFBFBD",
"=$	c #BCBDBA",
"-$	c #B7B8B5",
";$	c #B4B5B2",
">$	c #B1B2AF",
",$	c #AEAFAC",
"'$	c #ACACA9",
")$	c #A9AAA7",
"!$	c #A3A4A1",
"~$	c #A1A19E",
"{$	c #9E9F9B",
"]$	c #9B9C98",
"^$	c #999996",
"/$	c #555851",
"($	c #51554E",
"_$	c #535750",
":$	c #4F524B",
"                                                                ",
"                                                                ",
"    . + @ @ @ @ @ @ @ @ @ @ # $ % & * = - ; > , ' ) ! ~ !       ",
"  { ] ^ / / / / / / / / / / / / / / / / / / / / / ( _ : < [     ",
"} | 1 2 3 3 3 3 3 3 3 3 3 3 3 3 3 3 3 3 3 3 3 3 3 3 3 2 4 5 6   ",
"7 ^ 2 8 9 0 0 0 0 0 a b c d e f g h i j k l m n o p q r s t u   ",
"@ / v w x y z z z A B C C D E E E F F F x G H H I I J K L M N   ",
"@ / O P Q R S T U V W X X Y Z Z `  ...+.@.#.$.%.&.*.=.-.;.>.,.  ",
"@ / O P '.).!.~.{.].^./.(._.:.<.[.}.|.1.2.3.4.5.5.6.7.8.9.0.a.  ",
"@ / O P b.c.d.e.f.g.h.i.j.k.l.m.n.o.p.q.r.s.t.u.v.w.x.y.z.A.B.  ",
"C./ O D.E.F.G.H.I.J.K.L.M.N.O.P.Q.R.S.T.U.V.W.X.Y.Z.`. +.+++@+  ",
"#+/ O $+%+&+*+=+-+;+>+,+'+)+!+~+{+]+^+/+(+_+:+:+:+<+[+}+|+1+2+  ",
"3+/ O 4+5+6+7+8+9+0+a+b+c+d+e+f+g+h+i+j+k+k+l+j+j+j+m+n+o+p+q+  ",
"- / O r+s+t+u+v+w+x+y+z+A+B+C+D+E+F+G+G+H+H+I+I+F+F+J+K+L+M+q+  ",
"> ( N+O+P+Q+R+S+T+U+V+W+X+Y+Z+`+ @ @ @ @.@.@.@.@.@.@+@@@#@$@q+  ",
"%@&@*@=@-@;@>@,@'@)@!@~@{@]@^@^@^@^@/@(@(@(@(@(@_@_@:@@@<@[@q+  ",
"}@|@1@2@3@4@5@6@7@8@9@0@a@b@b@b@c@c@c@c@c@c@d@d@d@d@e@@@f@g@q+  ",
"h@i@j@k@l@m@n@o@p@q@r@s@t@t@t@u@u@u@v@v@w@w@x@x@x@y@e@@@z@A@q+  ",
"B@C@D@E@F@G@H@I@J@K@L@L@L@K@M@N@N@N@N@N@N@O@O@O@P@Q@R@@@S@T@q+  ",
"U@V@W@X@Y@Q@Z@`@ # # #.#.#.#.#.#+#+#@#@#@#@#####$#$#%#@@&#*#q+  ",
"=#-#;#>#,#'#'#)#)#!#!#~#{#{#{#]#]#]#^#/#(#_#_#_#_#_#:#@@&#<#q+  ",
"[#}##@|#1#2#2#2#3#4#4#5#6#6#6#6#6#6#6#7#(#(#(#(#8#8#,#@@&#9#q+  ",
"0#a#b#c#d#e#f#g#g#g#g#h#i#i#i#i#i#i#i#j#k#k#l#m#m#m#n#@@&#o#q+  ",
"p#q#r#s#t#u#u#u#u#u#u#u#u#u#u#u#u#u#u#u#u#u#u#u#u#u#v#w#&#x#q+  ",
"y#z#A#B#-.C#y.D#E#F#n+G#@@@@@@@@@@@@@@@@@@@@@@@@@@@@w#H#&#I#q+  ",
"J#K#L#M#&#&#&#&#&#&#&#&#&#&#&#&#&#&#&#&#&#N#O#&#P#P#P#&#Q#R#S#  ",
"T#U#[@A#&#&#&#&#&#&#&#&#&#&#&#&#&#&#&#&#&#V#V#&#P#W#L#Q#X#Y#Z#  ",
"  `# $.$+$@$#$$$%$&$*$=$[@-$;$>$,$'$)$D@!$~${$]$^$x#I#R#M#/$    ",
"    ($_$q+q+q+q+q+q+q+q+q+q+q+q+q+q+q+q+q+q+q+q+q+q+q+_$:$      ",
"                                                                ",
"                                                                ",
"                                                                "};
