/* XPM */
static char * a_xpm[] = {
"10 20 75 1",
" 	c None",
".	c #9BBBD6",
"+	c #95B8D5",
"@	c #91B5D3",
"#	c #8EB3D2",
"$	c #D5E2EE",
"%	c #FFFFFF",
"&	c #E4EDF4",
"*	c #8FB3D2",
"=	c #8BB1D1",
"-	c #E7EEF5",
";	c #F6F9FB",
">	c #8CB2D2",
",	c #88B0D1",
"'	c #F8FAFC",
")	c #FDFDFE",
"!	c #92B6D4",
"~	c #89B0D1",
"{	c #84ADCF",
"]	c #91B6D4",
"^	c #E9F0F6",
"/	c #F5F8FB",
"(	c #A2C1DA",
"_	c #85ADD0",
":	c #82ABCF",
"<	c #A3C1DB",
"[	c #D7E4EF",
"}	c #E3ECF4",
"|	c #B4CDE2",
"1	c #7EA8CC",
"2	c #B5CDE2",
"3	c #C3D7E7",
"4	c #CFDFEC",
"5	c #C7D9E9",
"6	c #7BA6CB",
"7	c #C8DAE9",
"8	c #AFC9DF",
"9	c #BBD1E4",
"0	c #DBE6F0",
"a	c #79A5CA",
"b	c #DDE8F1",
"c	c #9BBCD7",
"d	c #A7C4DC",
"e	c #EFF4F8",
"f	c #75A2C9",
"g	c #F2F6FA",
"h	c #85ACCF",
"i	c #91B4D4",
"j	c #7CA6CB",
"k	c #FBFCFD",
"l	c #74A1C8",
"m	c #7BA5CB",
"n	c #8FB3D3",
"o	c #73A0C8",
"p	c #A3C0DA",
"q	c #6F9DC6",
"r	c #6E9DC6",
"s	c #A4C1DA",
"t	c #EDF2F7",
"u	c #F9FBFC",
"v	c #B8CFE3",
"w	c #6B9BC4",
"x	c #B6CDE2",
"y	c #6999C4",
"z	c #C0D4E6",
"A	c #D2E0ED",
"B	c #98B8D6",
"C	c #6596C2",
"D	c #6697C2",
"E	c #A2BFD9",
"F	c #E7EFF5",
"G	c #6696C2",
"H	c #6294C1",
"I	c #6093C0",
"J	c #5C91BF",
"..........",
"++++++++++",
"@@@@@@@@@@",
"##$%%&###*",
"==-%%;==>>",
",,')%%!,~~",
"{]%^/%({{_",
":<%[}%|:::",
"12%34%5111",
"67%89%0666",
"ab%cd%eaaa",
"fg%hi%%6ff",
"j%klm%%noo",
"*%%%%%%pqr",
"s%'ttu%vww",
"9%xyyz%4yy",
"A%BCDE%FGC",
"HHHHHHHHHH",
"IIIIIIIIII",
"JJJJJJJJJJ"};
