/* XPM */
static char * m_xpm[] = {
"10 20 60 1",
" 	c None",
".	c #9BBBD6",
"+	c #95B8D5",
"@	c #91B5D3",
"#	c #FFFFFF",
"$	c #B3CBE0",
"%	c #8EB3D2",
"&	c #FBFCFD",
"*	c #8FB3D2",
"=	c #C2D6E7",
"-	c #8BB1D1",
";	c #97B9D6",
">	c #8CB2D2",
",	c #D2E1ED",
"'	c #88B0D1",
")	c #A5C2DC",
"!	c #89B0D1",
"~	c #E3ECF4",
"{	c #84ADCF",
"]	c #B2CCE1",
"^	c #85ADD0",
"/	c #F8FAFC",
"(	c #F5F8FB",
"_	c #82ABCF",
":	c #E4ECF4",
"<	c #87AECF",
"[	c #7EA8CC",
"}	c #CFDFEC",
"|	c #D0DFEC",
"1	c #7BA6CB",
"2	c #BAD1E3",
"3	c #AAC6DD",
"4	c #F6F9FB",
"5	c #BDD2E5",
"6	c #79A5CA",
"7	c #A3C1DB",
"8	c #C6D8E8",
"9	c #A8C4DD",
"0	c #75A2C9",
"a	c #91B4D3",
"b	c #EDF3F8",
"c	c #93B5D4",
"d	c #73A0C8",
"e	c #8CB0D1",
"f	c #E7EEF5",
"g	c #7CA6CB",
"h	c #6E9DC6",
"i	c #89AFD0",
"j	c #6B9BC4",
"k	c #87ADD0",
"l	c #B8CFE3",
"m	c #6999C4",
"n	c #85ABCE",
"o	c #9EBDD8",
"p	c #CEDDEB",
"q	c #6697C2",
"r	c #6596C2",
"s	c #6294C1",
"t	c #6093C0",
"u	c #5C91BF",
"..........",
"++++++++++",
"@@@@@@@@@@",
"###$%%&##*",
"###=-;###>",
"###,')###!",
"###~{]###^",
"##/(_=(##_",
"##:#<,~##[",
"##}#;:|##1",
"##2#345##6",
"##7#8#9##0",
"##a&b#c##d",
"##ef##g##h",
"##i}#/j##j",
"##kl#~m##m",
"##no#pq##r",
"ssssssssss",
"tttttttttt",
"uuuuuuuuuu"};
