/* XPM */
static char * n0_xpm[] = {
"10 20 66 1",
" 	c None",
".	c #9BBBD6",
"+	c #95B8D5",
"@	c #91B5D3",
"#	c #8EB3D2",
"$	c #90B4D2",
"%	c #C3D6E7",
"&	c #EEF3F8",
"*	c #FBFCFD",
"=	c #EDF3F8",
"-	c #C2D6E6",
";	c #8FB4D2",
">	c #8FB3D2",
",	c #8BB1D1",
"'	c #C2D6E7",
")	c #FFFFFF",
"!	c #C1D5E6",
"~	c #8CB2D2",
"{	c #88B0D1",
"]	c #EEF4F8",
"^	c #CCDDEB",
"/	c #90B5D4",
"(	c #89B0D1",
"_	c #84ADCF",
":	c #FEFEFE",
"<	c #A0BFDA",
"[	c #9FBFD9",
"}	c #FDFEFE",
"|	c #85ADD0",
"1	c #82ABCF",
"2	c #9BBCD8",
"3	c #7EA8CC",
"4	c #98B9D6",
"5	c #7BA6CB",
"6	c #79A5CA",
"7	c #94B7D4",
"8	c #75A2C9",
"9	c #91B4D4",
"0	c #73A0C8",
"a	c #8FB3D3",
"b	c #6F9DC6",
"c	c #8EB2D2",
"d	c #8FB2D2",
"e	c #FDFDFE",
"f	c #6E9DC6",
"g	c #6B9BC4",
"h	c #EAF1F6",
"i	c #C0D4E6",
"j	c #75A2C8",
"k	c #BFD4E5",
"l	c #E8F0F6",
"m	c #6999C4",
"n	c #B1CAE0",
"o	c #B0C9DF",
"p	c #6697C2",
"q	c #6999C3",
"r	c #AFC8DF",
"s	c #E9F0F6",
"t	c #FAFBFD",
"u	c #E8EFF6",
"v	c #AEC7DE",
"w	c #6696C2",
"x	c #6596C2",
"y	c #6294C1",
"z	c #6093C0",
"A	c #5C91BF",
"..........",
"++++++++++",
"@@@@@@@@@@",
"#$%&*=-;#>",
",')))))!~~",
"{])^/^)=((",
"_:)<_[)}_|",
"1))212))11",
"3))434))33",
"5))+5+))55",
"6))767))66",
"8))989))88",
"0))a0a))00",
"b})cbd)ebf",
"gh)ijk)lgg",
"mn)))))omm",
"pqrstuvqwx",
"yyyyyyyyyy",
"zzzzzzzzzz",
"AAAAAAAAAA"};
