/* XPM */
static char * n1_xpm[] = {
"10 20 49 1",
" 	c None",
".	c #9BBBD6",
"+	c #95B8D5",
"@	c #91B5D3",
"#	c #8EB3D2",
"$	c #8FB3D2",
"%	c #C8DAE9",
"&	c #FFFFFF",
"*	c #A5C2DB",
"=	c #8BB1D1",
"-	c #8EB3D3",
";	c #A8C5DD",
">	c #F7FAFC",
",	c #A2C0DA",
"'	c #8CB2D2",
")	c #88B0D1",
"!	c #C4D7E8",
"~	c #A0C0DA",
"{	c #89B0D1",
"]	c #84ADCF",
"^	c #C0D5E6",
"/	c #FDFEFE",
"(	c #9DBDD8",
"_	c #85ADD0",
":	c #82ABCF",
"<	c #9BBCD8",
"[	c #7EA8CC",
"}	c #98B9D6",
"|	c #7BA6CB",
"1	c #79A5CA",
"2	c #94B7D4",
"3	c #75A2C9",
"4	c #91B4D4",
"5	c #73A0C8",
"6	c #8FB3D3",
"7	c #6F9DC6",
"8	c #6E9DC6",
"9	c #8CB0D1",
"0	c #6B9BC4",
"a	c #89AFD0",
"b	c #6999C4",
"c	c #87ADD0",
"d	c #6697C2",
"e	c #6696C2",
"f	c #6596C2",
"g	c #85ACCE",
"h	c #6294C1",
"i	c #6093C0",
"j	c #5C91BF",
"..........",
"++++++++++",
"@@@@@@@@@@",
"###$%&*##$",
"==-;>&,=''",
"))!&&&~){{",
"]]^/&&(]]_",
"::::&&<:::",
"[[[[&&}[[[",
"||||&&+|||",
"1111&&2111",
"3333&&4333",
"5555&&6555",
"7778&&9778",
"0000&&a000",
"bbbb&&cbbb",
"ddef&&gdef",
"hhhhhhhhhh",
"iiiiiiiiii",
"jjjjjjjjjj"};
