/* XPM */
static char * n2_xpm[] = {
"10 20 68 1",
" 	c None",
".	c #9BBBD6",
"+	c #95B8D5",
"@	c #91B5D3",
"#	c #8EB3D2",
"$	c #92B5D3",
"%	c #CEDEEB",
"&	c #F3F7FA",
"*	c #F7F9FC",
"=	c #DAE6F0",
"-	c #99BAD6",
";	c #8FB3D2",
">	c #8BB1D1",
",	c #C8DAE9",
"'	c #FFFFFF",
")	c #E0EAF2",
"!	c #8CB2D2",
"~	c #88B0D1",
"{	c #F0F5F9",
"]	c #C1D6E7",
"^	c #ABC7DE",
"/	c #90B5D4",
"(	c #89B0D1",
"_	c #84ADCF",
":	c #FDFEFE",
"<	c #9FBFDA",
"[	c #99BBD7",
"}	c #85ADD0",
"|	c #82ABCF",
"1	c #EBF2F7",
"2	c #97B9D7",
"3	c #91B5D4",
"4	c #8CB1D2",
"5	c #7EA8CC",
"6	c #B2CBE0",
"7	c #ECF2F7",
"8	c #7BA6CB",
"9	c #84ACCE",
"0	c #B4CDE1",
"a	c #79A5CA",
"b	c #D7E4EF",
"c	c #E2EBF3",
"d	c #7AA6CA",
"e	c #75A2C9",
"f	c #F9FBFC",
"g	c #8AB0D1",
"h	c #73A0C8",
"i	c #8DB2D2",
"j	c #FCFDFD",
"k	c #A4C1DB",
"l	c #6F9DC6",
"m	c #CFDEEC",
"n	c #CCDDEB",
"o	c #6E9DC6",
"p	c #6B9BC4",
"q	c #F1F5F9",
"r	c #9BBBD7",
"s	c #6999C4",
"t	c #FEFEFE",
"u	c #FDFDFE",
"v	c #87ADD0",
"w	c #6697C2",
"x	c #85ACCE",
"y	c #6696C2",
"z	c #6596C2",
"A	c #6294C1",
"B	c #6093C0",
"C	c #5C91BF",
"..........",
"++++++++++",
"@@@@@@@@@@",
"#$%&*=-##;",
">,'''')>!!",
"~{']^''/((",
"_:'<(''[_}",
"|1123''4||",
"55556'7555",
"8889{'0888",
"aaab'cdaaa",
"ee6'fgeeee",
"hij'khhhhh",
"lm'nlllllo",
"pq'rpppppp",
"s''tuuuvss",
"w''''''xyz",
"AAAAAAAAAA",
"BBBBBBBBBB",
"CCCCCCCCCC"};
