/* XPM */
static char * n3_xpm[] = {
"10 20 75 1",
" 	c None",
".	c #9BBBD6",
"+	c #95B8D5",
"@	c #91B5D3",
"#	c #8EB3D2",
"$	c #CDDDEB",
"%	c #F3F6FA",
"&	c #F7F9FB",
"*	c #D9E5F0",
"=	c #98BAD6",
"-	c #8FB3D2",
";	c #8BB1D1",
">	c #C7D9E8",
",	c #FFFFFF",
"'	c #DDE8F1",
")	c #8CB2D2",
"!	c #88B0D1",
"~	c #EFF4F8",
"{	c #C3D7E7",
"]	c #ACC8DF",
"^	c #8FB4D3",
"/	c #89B0D1",
"(	c #84ADCF",
"_	c #FDFDFE",
":	c #A0BFDA",
"<	c #9ABBD7",
"[	c #85ADD0",
"}	c #82ABCF",
"|	c #AFC9E0",
"1	c #8BB1D2",
"2	c #86ADD0",
"3	c #8DB2D3",
"4	c #7EA8CC",
"5	c #ACC7DE",
"6	c #F0F5F9",
"7	c #7BA6CB",
"8	c #DAE6F0",
"9	c #A0BFD9",
"0	c #79A5CA",
"a	c #D8E5EF",
"b	c #FEFEFE",
"c	c #B7CEE2",
"d	c #75A2C9",
"e	c #A1C0DA",
"f	c #F9FAFC",
"g	c #76A3C9",
"h	c #73A0C8",
"i	c #ACC6DE",
"j	c #7FA8CC",
"k	c #79A4CA",
"l	c #89AFD0",
"m	c #6F9DC6",
"n	c #8CB1D2",
"o	c #719EC7",
"p	c #8BB0D1",
"q	c #6E9DC6",
"r	c #6B9BC4",
"s	c #ADC8DE",
"t	c #93B6D4",
"u	c #77A3C9",
"v	c #6999C4",
"w	c #C0D4E6",
"x	c #DEE8F2",
"y	c #6697C2",
"z	c #6E9CC5",
"A	c #C3D5E7",
"B	c #F1F5F9",
"C	c #F6F8FB",
"D	c #D1DFEC",
"E	c #79A4C9",
"F	c #6696C2",
"G	c #6596C2",
"H	c #6294C1",
"I	c #6093C0",
"J	c #5C91BF",
"..........",
"++++++++++",
"@@@@@@@@@@",
"#@$%&*=##-",
";>,,,,';))",
"!~,{],,^//",
"(_,:/,,<([",
"}||12,,3}}",
"44445,6444",
"7778,&9777",
"000a,bc000",
"dddde,fgdd",
"hiijk,,lhh",
"m,,no,,pmq",
"r~,st,,urr",
"vw,,,,xvvv",
"yzABCDEyFG",
"HHHHHHHHHH",
"IIIIIIIIII",
"JJJJJJJJJJ"};
