/* XPM */
static char * n4_xpm[] = {
"10 20 56 1",
" 	c None",
".	c #9BBBD6",
"+	c #95B8D5",
"@	c #91B5D3",
"#	c #8EB3D2",
"$	c #8FB3D2",
"%	c #BBD1E4",
"&	c #FFFFFF",
"*	c #A5C2DB",
"=	c #8BB1D1",
"-	c #8CB2D2",
";	c #EAF1F7",
">	c #A2C0DA",
",	c #88B0D1",
"'	c #89B0D1",
")	c #A6C3DC",
"!	c #A0C0DA",
"~	c #84ADCF",
"{	c #D7E4EF",
"]	c #9DBDD8",
"^	c #85ADD0",
"/	c #82ABCF",
"(	c #90B4D4",
"_	c #FDFEFE",
":	c #E8F0F6",
"<	c #9BBCD8",
"[	c #7EA8CC",
"}	c #C0D5E6",
"|	c #B1CAE0",
"1	c #98B9D6",
"2	c #7BA6CB",
"3	c #F4F7FA",
"4	c #F7F9FB",
"5	c #80A9CD",
"6	c #79A5CA",
"7	c #A9C5DD",
"8	c #C4D7E7",
"9	c #94B7D4",
"0	c #75A2C9",
"a	c #E1EBF3",
"b	c #89AFD0",
"c	c #91B4D4",
"d	c #73A0C8",
"e	c #FDFDFE",
"f	c #6F9DC6",
"g	c #6E9DC6",
"h	c #6B9BC4",
"i	c #6999C4",
"j	c #87ADD0",
"k	c #6697C2",
"l	c #6696C2",
"m	c #6596C2",
"n	c #85ACCE",
"o	c #6294C1",
"p	c #6093C0",
"q	c #5C91BF",
"..........",
"++++++++++",
"@@@@@@@@@@",
"###$%&&*#$",
"==--;&&>--",
",,')&&&!''",
"~~~{&&&]~^",
"//(_:&&<//",
"[[}&|&&1[[",
"2[345&&+22",
"67&86&&966",
"0a&b0&&c00",
"d&&ee&&_dd",
"f&&&&&&&fg",
"hhhhh&&bhh",
"iiiii&&jii",
"kklmk&&nlm",
"oooooooooo",
"pppppppppp",
"qqqqqqqqqq"};
