/* XPM */
static char * n5_xpm[] = {
"10 20 67 1",
" 	c None",
".	c #9BBBD6",
"+	c #95B8D5",
"@	c #91B5D3",
"#	c #8EB3D2",
"$	c #FFFFFF",
"%	c #EDF3F8",
"&	c #8FB3D2",
"*	c #8BB1D1",
"=	c #FEFEFE",
"-	c #FDFEFE",
";	c #EBF2F7",
">	c #8CB2D2",
",	c #88B0D1",
"'	c #A1C0DA",
")	c #89B0D1",
"!	c #84ADCF",
"~	c #9DBDD9",
"{	c #85ADD0",
"]	c #82ABCF",
"^	c #C2D6E7",
"/	c #EFF4F8",
"(	c #EEF3F8",
"_	c #A4C2DC",
":	c #7EA8CC",
"<	c #F0F5F9",
"[	c #7FA9CC",
"}	c #7BA6CB",
"|	c #BDD2E5",
"1	c #A2C0DA",
"2	c #8BB0D1",
"3	c #79A5CA",
"4	c #ECF2F7",
"5	c #93B6D4",
"6	c #7CA7CB",
"7	c #93B7D4",
"8	c #75A2C9",
"9	c #91B4D4",
"0	c #73A0C8",
"a	c #DAE6F0",
"b	c #88AED0",
"c	c #8FB3D3",
"d	c #6F9DC6",
"e	c #FCFDFE",
"f	c #8EB2D2",
"g	c #719EC7",
"h	c #89AFD0",
"i	c #6E9DC6",
"j	c #6B9BC4",
"k	c #B4CCE1",
"l	c #97B9D5",
"m	c #74A1C7",
"n	c #6999C4",
"o	c #B7CEE3",
"p	c #D4E1EE",
"q	c #6697C2",
"r	c #6B9AC4",
"s	c #BED2E5",
"t	c #EFF4F9",
"u	c #F4F8FA",
"v	c #CDDDEB",
"w	c #74A0C7",
"x	c #6696C2",
"y	c #6596C2",
"z	c #6294C1",
"A	c #6093C0",
"B	c #5C91BF",
"..........",
"++++++++++",
"@@@@@@@@@@",
"#$$$$$%##&",
"*$$=--;*>>",
",$$',),,))",
"!$$~!!!!!{",
"]$$^/(_]]]",
":$$$$$<[::",
"}$$|1$$2}}",
"34456$$733",
"88888$$988",
"0aab0$$c00",
"de$fg$$hdi",
"j;$kl$$mjj",
"no$$$$pnnn",
"qrstuvwqxy",
"zzzzzzzzzz",
"AAAAAAAAAA",
"BBBBBBBBBB"};
