/* XPM */
static char * n6_xpm[] = {
"10 20 69 1",
" 	c None",
".	c #9BBBD6",
"+	c #95B8D5",
"@	c #91B5D3",
"#	c #8EB3D2",
"$	c #90B4D2",
"%	c #C3D7E7",
"&	c #EDF3F8",
"*	c #FBFCFD",
"=	c #EEF3F8",
"-	c #C4D7E7",
";	c #8FB3D2",
">	c #8BB1D1",
",	c #C2D6E7",
"'	c #FFFFFF",
")	c #C2D6E6",
"!	c #8CB2D2",
"~	c #88B0D1",
"{	c #C8DAE9",
"]	c #8DB3D2",
"^	c #CCDCEB",
"/	c #89B0D1",
"(	c #84ADCF",
"_	c #FDFDFE",
":	c #A1BFDA",
"<	c #9CBDD8",
"[	c #ECF2F7",
"}	c #E9F0F6",
"|	c #85ADD0",
"1	c #82ABCF",
"2	c #9BBCD8",
"3	c #7EA8CC",
"4	c #B0C9DF",
"5	c #E4ECF4",
"6	c #F8FAFC",
"7	c #DDE8F1",
"8	c #8DB2D2",
"9	c #7BA6CB",
"0	c #FCFDFD",
"a	c #D5E3EE",
"b	c #79A5CA",
"c	c #81ABCD",
"d	c #C5D8E8",
"e	c #F5F8FB",
"f	c #75A2C9",
"g	c #93B6D5",
"h	c #73A0C8",
"i	c #8FB3D3",
"j	c #6F9DC6",
"k	c #8EB2D2",
"l	c #FDFEFE",
"m	c #6E9DC6",
"n	c #6B9BC4",
"o	c #BCD2E4",
"p	c #74A1C7",
"q	c #BDD3E5",
"r	c #6999C4",
"s	c #B1CAE0",
"t	c #6697C2",
"u	c #6999C3",
"v	c #AEC7DE",
"w	c #E8EFF6",
"x	c #FAFBFD",
"y	c #AEC8DE",
"z	c #6696C2",
"A	c #6596C2",
"B	c #6294C1",
"C	c #6093C0",
"D	c #5C91BF",
"..........",
"++++++++++",
"@@@@@@@@@@",
"#$%&*=-$#;",
">,''''')!!",
"~='{]^'&//",
"(_':(<[}(|",
"1''2111111",
"3''4567833",
"9''0'''a99",
"b''-cd'ebb",
"f''gfg''ff",
"h''ihi''hh",
"j_'8jk'ljm",
"n}'opq'}nn",
"r4'''''srr",
"tuvwxwyuzA",
"BBBBBBBBBB",
"CCCCCCCCCC",
"DDDDDDDDDD"};
