/* XPM */
static char * n7_xpm[] = {
"10 20 57 1",
" 	c None",
".	c #9BBBD6",
"+	c #95B8D5",
"@	c #91B5D3",
"#	c #8EB3D2",
"$	c #FFFFFF",
"%	c #8FB3D2",
"&	c #8BB1D1",
"*	c #FDFEFE",
"=	c #FEFEFE",
"-	c #8CB2D2",
";	c #88B0D1",
">	c #89B0D1",
",	c #C5D8E8",
"'	c #EBF1F7",
")	c #84ADCF",
"!	c #85ADD0",
"~	c #E5EEF5",
"{	c #C7DAE9",
"]	c #82ABCF",
"^	c #8CB1D2",
"/	c #A2C1DB",
"(	c #7EA8CC",
"_	c #ACC7DE",
":	c #F9FBFC",
"<	c #81AACD",
"[	c #7BA6CB",
"}	c #CFDFEC",
"|	c #D7E4EF",
"1	c #79A5CA",
"2	c #7AA5CA",
"3	c #F4F7FA",
"4	c #B0CADF",
"5	c #75A2C9",
"6	c #92B5D4",
"7	c #86ADCF",
"8	c #73A0C8",
"9	c #B8CEE3",
"0	c #E9F0F6",
"a	c #6F9DC6",
"b	c #DFE9F2",
"c	c #BFD3E5",
"d	c #6E9DC6",
"e	c #6B9BC4",
"f	c #76A2C8",
"g	c #93B6D4",
"h	c #6999C4",
"i	c #9CBCD8",
"j	c #6D9CC5",
"k	c #6697C2",
"l	c #C6D7E8",
"m	c #D2E0ED",
"n	c #6696C2",
"o	c #6596C2",
"p	c #6294C1",
"q	c #6093C0",
"r	c #5C91BF",
"..........",
"++++++++++",
"@@@@@@@@@@",
"#$$$$$$$#%",
"&****=$$--",
";;>>;,$'>>",
")))!)~${)!",
"]]]]^=$/]]",
"((((_$:<((",
"[[[[}$|[[[",
"11123$4111",
"5556$$7555",
"8889$08888",
"aaab$caaad",
"eef*$geeee",
"hhi$:jhhhh",
"kkl$mnkkno",
"pppppppppp",
"qqqqqqqqqq",
"rrrrrrrrrr"};
