/* XPM */
static char * n8_xpm[] = {
"10 20 76 1",
" 	c None",
".	c #9BBBD6",
"+	c #95B8D5",
"@	c #91B5D3",
"#	c #8EB3D2",
"$	c #8FB3D2",
"%	c #C0D4E6",
"&	c #EDF3F7",
"*	c #FBFCFD",
"=	c #ECF2F7",
"-	c #BFD4E5",
";	c #8BB1D1",
">	c #BED3E5",
",	c #FFFFFF",
"'	c #BDD2E4",
")	c #8CB2D2",
"!	c #88B0D1",
"~	c #CCDCEB",
"{	c #91B6D4",
"]	c #CDDDEB",
"^	c #EBF2F7",
"/	c #89B0D1",
"(	c #84ADCF",
"_	c #FCFDFE",
":	c #A1BFDA",
"<	c #A0C0DA",
"[	c #85ADD0",
"}	c #82ABCF",
"|	c #F4F8FB",
"1	c #9DBDD9",
"2	c #9EBED9",
"3	c #F4F7FA",
"4	c #7EA8CC",
"5	c #DBE6F0",
"6	c #C6D8E8",
"7	c #89AFD0",
"8	c #C8DAE9",
"9	c #D9E5F0",
"0	c #7BA6CB",
"a	c #94B7D5",
"b	c #F5F8FB",
"c	c #F3F7FA",
"d	c #8CB1D1",
"e	c #79A5CA",
"f	c #A4C1DB",
"g	c #A4C2DB",
"h	c #75A2C9",
"i	c #E1EAF3",
"j	c #7FA9CD",
"k	c #C7D9E9",
"l	c #E0EAF3",
"m	c #73A0C8",
"n	c #FAFBFD",
"o	c #93B5D4",
"p	c #6F9DC6",
"q	c #8DB2D2",
"r	c #8EB2D2",
"s	c #FEFEFE",
"t	c #6E9DC6",
"u	c #6B9BC4",
"v	c #EDF2F7",
"w	c #B8CFE3",
"x	c #74A1C7",
"y	c #6999C4",
"z	c #B6CDE2",
"A	c #B5CDE2",
"B	c #6697C2",
"C	c #6999C3",
"D	c #B2CAE0",
"E	c #E9F0F6",
"F	c #B1C9DF",
"G	c #6696C2",
"H	c #6596C2",
"I	c #6294C1",
"J	c #6093C0",
"K	c #5C91BF",
"..........",
"++++++++++",
"@@@@@@@@@@",
"#$%&*=-$#$",
";>,,,,,'))",
"!=,~{],^//",
"(_,:(<,_([",
"}|,1}2,3}}",
"45,678,944",
"0ab,,,cd00",
"ef_,,,_gee",
"hi,6jk,lhh",
"mn,omo,nmm",
"p,,qpr,spt",
"uv,wxw,^uu",
"yz,,,,,Ayy",
"BCDEnEFCGH",
"IIIIIIIIII",
"JJJJJJJJJJ",
"KKKKKKKKKK"};
