/* XPM */
static char * n9_xpm[] = {
"10 20 74 1",
" 	c None",
".	c #9BBBD6",
"+	c #95B8D5",
"@	c #91B5D3",
"#	c #8EB3D2",
"$	c #90B4D2",
"%	c #C2D6E7",
"&	c #EEF3F8",
"*	c #FBFCFD",
"=	c #C2D6E6",
"-	c #8FB4D2",
";	c #8FB3D2",
">	c #8BB1D1",
",	c #FFFFFF",
"'	c #C1D5E6",
")	c #8CB2D2",
"!	c #88B0D1",
"~	c #CADBEA",
"{	c #8FB4D3",
"]	c #EDF3F8",
"^	c #89B0D1",
"/	c #84ADCF",
"(	c #FEFEFE",
"_	c #9FBFDA",
":	c #9FBFD9",
"<	c #FDFEFE",
"[	c #85ADD0",
"}	c #82ABCF",
"|	c #9BBCD8",
"1	c #7EA8CC",
"2	c #9ABBD7",
"3	c #7BA6CB",
"4	c #F6F9FB",
"5	c #C5D8E8",
"6	c #83ABCE",
"7	c #C6D8E8",
"8	c #79A5CA",
"9	c #D6E3EE",
"0	c #FCFDFD",
"a	c #75A2C9",
"b	c #86ADCF",
"c	c #DCE7F1",
"d	c #F9FAFC",
"e	c #E2EBF3",
"f	c #AAC5DD",
"g	c #73A0C8",
"h	c #8FB3D3",
"i	c #6F9DC6",
"j	c #E6EEF5",
"k	c #E8F0F6",
"l	c #89AFD0",
"m	c #90B3D3",
"n	c #FCFDFE",
"o	c #6E9DC6",
"p	c #6B9BC4",
"q	c #EAF1F6",
"r	c #BDD2E4",
"s	c #6F9EC5",
"t	c #B9D0E3",
"u	c #E9F0F6",
"v	c #6999C4",
"w	c #B1CAE0",
"x	c #B0C9E0",
"y	c #6697C2",
"z	c #6999C3",
"A	c #B1C9DF",
"B	c #FAFBFD",
"C	c #E8EFF5",
"D	c #AFC9DF",
"E	c #6696C2",
"F	c #6596C2",
"G	c #6294C1",
"H	c #6093C0",
"I	c #5C91BF",
"..........",
"++++++++++",
"@@@@@@@@@@",
"#$%&*&=-#;",
">%,,,,,'))",
"!&,~{~,]^^",
"/(,_/:,</[",
"},,|}|,,}}",
"1,,212,,11",
"34,567,,33",
"89,,,0,,88",
"abcdef,,aa",
"gggggh,,gg",
"ijklim,nio",
"pq,rst,upp",
"vw,,,,,xvv",
"yzAuBCDzEF",
"GGGGGGGGGG",
"HHHHHHHHHH",
"IIIIIIIIII"};
