/* XPM */
static char * p_xpm[] = {
"10 20 54 1",
" 	c None",
".	c #9BBBD6",
"+	c #95B8D5",
"@	c #91B5D3",
"#	c #8EB3D2",
"$	c #FFFFFF",
"%	c #F7F9FC",
"&	c #DBE6F0",
"*	c #99BBD6",
"=	c #8FB3D2",
"-	c #8BB1D1",
";	c #FEFEFE",
">	c #E0EAF2",
",	c #8CB2D2",
"'	c #88B0D1",
")	c #A1C0DA",
"!	c #A9C5DD",
"~	c #8FB5D4",
"{	c #89B0D1",
"]	c #84ADCF",
"^	c #9DBDD9",
"/	c #86AECF",
"(	c #9ABCD7",
"_	c #85ADD0",
":	c #82ABCF",
"<	c #9BBCD8",
"[	c #7EA8CC",
"}	c #98B9D6",
"|	c #80A9CD",
"1	c #7BA6CB",
"2	c #A0BFD9",
"3	c #84ACCE",
"4	c #79A5CA",
"5	c #DCE7F1",
"6	c #75A2C9",
"7	c #FDFEFE",
"8	c #F5F8FB",
"9	c #D4E2EE",
"0	c #73A0C8",
"a	c #8FB3D3",
"b	c #6F9DC6",
"c	c #8BB0D1",
"d	c #6E9DC6",
"e	c #6B9BC4",
"f	c #89AFD0",
"g	c #6999C4",
"h	c #87ADD0",
"i	c #6697C2",
"j	c #84ABCE",
"k	c #6696C2",
"l	c #6596C2",
"m	c #6294C1",
"n	c #6093C0",
"o	c #5C91BF",
"..........",
"++++++++++",
"@@@@@@@@@@",
"#$$$%&*##=",
"-$$;$$>-,,",
"'$$)!$$~{{",
"]$$^/$$(]_",
":$$<:$$<::",
"[$$}|$$+[[",
"1$$+2$$311",
"4$$$$$5444",
"6$$7893666",
"0$$a000000",
"b$$cbbbbbd",
"e$$feeeeee",
"g$$hgggggg",
"i$$jikiikl",
"mmmmmmmmmm",
"nnnnnnnnnn",
"oooooooooo"};
