/* XPM */
static char * percent_xpm[] = {
"10 20 86 1",
" 	c None",
".	c #9BBBD6",
"+	c #95B8D5",
"@	c #91B5D3",
"#	c #C2D6E7",
"$	c #F7FAFC",
"%	c #F3F7FA",
"&	c #B2CBE0",
"*	c #8EB3D2",
"=	c #E7EFF5",
"-	c #A1BFD9",
";	c #8FB3D2",
">	c #FEFEFE",
",	c #B3CCE1",
"'	c #C7D9E9",
")	c #F0F5F9",
"!	c #8BB1D1",
"~	c #8CB2D2",
"{	c #A0BFD9",
"]	c #E8F0F6",
"^	c #88B0D1",
"/	c #9DBDD9",
"(	c #FDFEFE",
"_	c #89B0D1",
":	c #CDDDEB",
"<	c #BDD3E5",
"[	c #84ADCF",
"}	c #99BBD7",
"|	c #88B0D0",
"1	c #F6F9FB",
"2	c #90B5D3",
"3	c #85ADD0",
"4	c #82ABCF",
"5	c #97B9D7",
"6	c #AFC9E0",
"7	c #DDE8F2",
"8	c #FDFDFE",
"9	c #7EA8CC",
"0	c #94B7D4",
"a	c #E0EAF2",
"b	c #ADC8DE",
"c	c #CFDEEC",
"d	c #FBFCFD",
"e	c #B8CFE3",
"f	c #7BA6CB",
"g	c #F9FBFC",
"h	c #8EB2D2",
"i	c #FFFFFF",
"j	c #C1D5E6",
"k	c #F2F6F9",
"l	c #93B7D4",
"m	c #ADC7DE",
"n	c #EEF3F8",
"o	c #C2D6E6",
"p	c #D0DFEC",
"q	c #90B4D3",
"r	c #B6CEE2",
"s	c #F1F5F9",
"t	c #A4C1DB",
"u	c #9DBCD8",
"v	c #73A0C8",
"w	c #A1BFDA",
"x	c #75A1C9",
"y	c #8BB0D1",
"z	c #6F9DC6",
"A	c #D7E4EF",
"B	c #87ADCF",
"C	c #6B9BC4",
"D	c #7DA7CB",
"E	c #8AB0D0",
"F	c #84ACCE",
"G	c #6999C4",
"H	c #B5CDE2",
"I	c #E9F0F6",
"J	c #77A2C9",
"K	c #9EBDD9",
"L	c #EFF4F8",
"M	c #6697C2",
"N	c #6798C2",
"O	c #B1C9E0",
"P	c #6696C2",
"Q	c #C3D6E7",
"R	c #A8C4DC",
"S	c #6294C1",
"T	c #6093C0",
"U	c #5C91BF",
"..........",
"++++++++++",
"@@@@@@@@@@",
"#$%&***=-;",
">,')!~{]~~",
">^/(^_:<__",
"([}([|12[3",
"(45(467444",
"89089abcde",
"8f@8;ghijk",
">lmnopq(q8",
"r1st%u~8~8",
"vvvw%xy8y8",
"zzzAjzB8B8",
"CCD>ECF8F8",
"GGHIGGJiKL",
"MNnOMPMQ$R",
"SSSSSSSSSS",
"TTTTTTTTTT",
"UUUUUUUUUU"};
