/* XPM */
static char * slash_xpm[] = {
"10 20 59 1",
" 	c None",
".	c #9BBBD6",
"+	c #95B8D5",
"@	c #91B5D3",
"#	c #8EB3D2",
"$	c #8FB3D2",
"%	c #CFDEEB",
"&	c #FFFFFF",
"*	c #B2CBE0",
"=	c #8BB1D1",
"-	c #8CB2D2",
";	c #8FB4D2",
">	c #F8FAFC",
",	c #F4F7FA",
"'	c #8DB2D1",
")	c #88B0D1",
"!	c #89B0D1",
"~	c #B3CDE1",
"{	c #C7DAE9",
"]	c #84ADCF",
"^	c #85ADD0",
"/	c #E2EBF3",
"(	c #82ABCF",
"_	c #96B8D6",
":	c #DFE9F2",
"<	c #7EA8CC",
"[	c #C5D8E8",
"}	c #ABC6DD",
"|	c #7BA6CB",
"1	c #F5F8FB",
"2	c #7FA8CC",
"3	c #79A5CA",
"4	c #A6C3DC",
"5	c #C4D7E7",
"6	c #75A2C9",
"7	c #DBE6F1",
"8	c #8CB1D2",
"9	c #73A0C8",
"0	c #86ADCF",
"a	c #6F9DC6",
"b	c #BBD0E4",
"c	c #A5C2DB",
"d	c #6E9DC6",
"e	c #6D9CC5",
"f	c #F1F5F9",
"g	c #F7F9FB",
"h	c #719FC6",
"i	c #6B9BC4",
"j	c #98B9D6",
"k	c #C1D5E6",
"l	c #6999C4",
"m	c #D3E1ED",
"n	c #84AACD",
"o	c #6596C2",
"p	c #6697C2",
"q	c #6696C2",
"r	c #6294C1",
"s	c #6093C0",
"t	c #5C91BF",
"..........",
"++++++++++",
"@@@@@@@@@@",
"###$#%&*#$",
"==--;>,'--",
"))!!~&{)!!",
"]]]^/&+]]^",
"(((_&:((((",
"<<<[&}<<<<",
"||<112||||",
"334&533333",
"667&866666",
"90&:999999",
"ab&caaaaad",
"efghiiiiii",
"j&klllllll",
"m&nopqppqo",
"rrrrrrrrrr",
"ssssssssss",
"tttttttttt"};
