/* XPM */
static char * desktop_xpm[] = {
"20 20 92 2",
"  	c None",
". 	c #343E52",
"+ 	c #364155",
"@ 	c #354054",
"# 	c #B6BECA",
"$ 	c #A5AFBE",
"% 	c #737D8C",
"& 	c #4C4F34",
"* 	c #364151",
"= 	c #909CAF",
"- 	c #556784",
"; 	c #44526A",
"> 	c #41474A",
", 	c #D3D4C0",
"' 	c #D1D3BF",
") 	c #CDCDB9",
"! 	c #CCCDB9",
"~ 	c #3F4855",
"{ 	c #444C52",
"] 	c #BCBE9F",
"^ 	c #B4B696",
"/ 	c #B0B291",
"( 	c #ABAD8C",
"_ 	c #BBBC9D",
": 	c #B8BA9A",
"< 	c #B5B798",
"[ 	c #B3B595",
"} 	c #B0B392",
"| 	c #ADB08F",
"1 	c #343F53",
"2 	c #3A434C",
"3 	c #BBBCAC",
"4 	c #BABC9D",
"5 	c #B9BB9B",
"6 	c #B7B99A",
"7 	c #B5B797",
"8 	c #AEB08F",
"9 	c #ABAD8D",
"0 	c #808266",
"a 	c #38424E",
"b 	c #CFD0BC",
"c 	c #B9BB9C",
"d 	c #B8BA9B",
"e 	c #B7B999",
"f 	c #B6B899",
"g 	c #AEB190",
"h 	c #AFB191",
"i 	c #AAAC8B",
"j 	c #A3A684",
"k 	c #828565",
"l 	c #CDD0BB",
"m 	c #B6B898",
"n 	c #B5B897",
"o 	c #B6B897",
"p 	c #B4B697",
"q 	c #A9AC8B",
"r 	c #A3A785",
"s 	c #A1A482",
"t 	c #D6D7C6",
"u 	c #B0B292",
"v 	c #A4A784",
"w 	c #A2A482",
"x 	c #9FA27F",
"y 	c #76849C",
"z 	c #BBBD9E",
"A 	c #B1B392",
"B 	c #ACAE8E",
"C 	c #A9AB8A",
"D 	c #A7AA88",
"E 	c #9FA17F",
"F 	c #9C9F7C",
"G 	c #4C5557",
"H 	c #9298A2",
"I 	c #495157",
"J 	c #ABAE8D",
"K 	c #AAAB8B",
"L 	c #A7A988",
"M 	c #A4A685",
"N 	c #A2A582",
"O 	c #4D565C",
"P 	c #434C59",
"Q 	c #8F9075",
"R 	c #878A6A",
"S 	c #878A69",
"T 	c #828665",
"U 	c #475057",
"V 	c #4B5564",
"W 	c #374150",
"X 	c #404744",
"Y 	c #848C98",
"Z 	c #354053",
"` 	c #343F52",
"                                        ",
"                                        ",
"                                        ",
"    . + + + +           @ + + + + @     ",
"    + # $ $ % & & & & & * # = = % +     ",
"    + = - ; > , , , ' ) ! ~ $ - ; +     ",
"    + = ; { ] ] ] ] ] ^ / ( ~ - ; +     ",
"    + % { ] ] ] ] _ : < [ } | ~ ; +     ",
"    1 2 3 ] ] ] 4 5 6 7 } 8 9 0 a @     ",
"      & b ] c d e 6 f g h i j k &       ",
"      & l ] m n o p 8 ( q r s k &       ",
"    @ a t ] [ ^ p u g i v w x k 2       ",
"    + y ~ z A g B C D v s E F G H +     ",
"    + - y I g J K L M N x F O # - +     ",
"    + - - y P Q R S T k k U $ - - +     ",
"    + - - - V W & & & & X Y - - - +     ",
"    Z + + + + `         @ + + + + @     ",
"                                        ",
"                                        ",
"                                        "};
