/* XPM */
static char * linux_xpm[] = {
"57 20 252 2",
"  	c None",
". 	c #FEFEFE",
"+ 	c #F0F3F8",
"@ 	c #9BB3D1",
"# 	c #7799C2",
"$ 	c #C7D4E5",
"% 	c #FBFCFC",
"& 	c #EEF2F7",
"* 	c #96AFCF",
"= 	c #6D92BE",
"- 	c #7EA0CA",
"; 	c #698EBC",
"> 	c #DCE4EF",
", 	c #FDFDFD",
"' 	c #C4D2E3",
") 	c #6A8FBE",
"! 	c #96B4D7",
"~ 	c #9CBBDC",
"{ 	c #799CC6",
"] 	c #A6BBD6",
"^ 	c #F2F5F8",
"/ 	c #95AFCF",
"( 	c #7DA0C9",
"_ 	c #8AAFD6",
": 	c #7EA7D2",
"< 	c #8EADD1",
"[ 	c #8CA8CB",
"} 	c #F5F7F9",
"| 	c #FCFCFC",
"1 	c #D7DEE8",
"2 	c #5676A4",
"3 	c #7D96B9",
"4 	c #E2E7EE",
"5 	c #FBFBFB",
"6 	c #E4EAF1",
"7 	c #7798C3",
"8 	c #85A8D0",
"9 	c #7DA6D2",
"0 	c #77A2D0",
"a 	c #8EAFD4",
"b 	c #7B9BC4",
"c 	c #DDE4EE",
"d 	c #F6F7F9",
"e 	c #45699B",
"f 	c #3E679E",
"g 	c #3E669D",
"h 	c #728DB3",
"i 	c #E9EDF2",
"j 	c #E5EAF1",
"k 	c #7597C2",
"l 	c #80A4CE",
"m 	c #7CA6D2",
"n 	c #8BACD2",
"o 	c #7A9AC4",
"p 	c #E3E9F1",
"q 	c #E0E0E0",
"r 	c #000000",
"s 	c #585858",
"t 	c #2D2D2D",
"u 	c #121212",
"v 	c #C7D1E0",
"w 	c #3D6399",
"x 	c #537CB1",
"y 	c #4D77AD",
"z 	c #365F98",
"A 	c #ABBAD1",
"B 	c #EFF2F6",
"C 	c #8DA9CB",
"D 	c #779CC8",
"E 	c #7EA7D3",
"F 	c #7DA1CB",
"G 	c #87A4C9",
"H 	c #F3F5F8",
"I 	c #0D0D0D",
"J 	c #2B2B2B",
"K 	c #F1F1F1",
"L 	c #CECECE",
"M 	c #2F2F2F",
"N 	c #7B94B7",
"O 	c #456CA2",
"P 	c #4270AA",
"Q 	c #406EA9",
"R 	c #456EA5",
"S 	c #4E6FA1",
"T 	c #F0F2F6",
"U 	c #8FAACC",
"V 	c #7399C6",
"W 	c #8CB0D6",
"X 	c #618ABB",
"Y 	c #AABED7",
"Z 	c #DFDFDF",
"` 	c #0E0E0E",
" .	c #787878",
"..	c #A2A2A2",
"+.	c #737373",
"@.	c #888888",
"#.	c #E7E7E7",
"$.	c #565656",
"%.	c #292929",
"&.	c #484848",
"*.	c #7B7B7B",
"=.	c #333333",
"-.	c #1F1F1F",
";.	c #B9B9B9",
">.	c #5F7DA8",
",.	c #4B73A9",
"'.	c #3A69A7",
").	c #3767A5",
"!.	c #4B75AC",
"~.	c #2D5690",
"{.	c #D7E0EB",
"].	c #557EB3",
"^.	c #749BC8",
"/.	c #86ADD5",
"(.	c #789FCB",
"_.	c #6B8FBD",
":.	c #EEF1F5",
"<.	c #D1D1D1",
"[.	c #FAFAFA",
"}.	c #282828",
"|.	c #D5D5D5",
"1.	c #434343",
"2.	c #B2B2B2",
"3.	c #A1A1A1",
"4.	c #AFAFAF",
"5.	c #A5A5A5",
"6.	c #343434",
"7.	c #F5F5F4",
"8.	c #607DA8",
"9.	c #436DA5",
"0.	c #3C6BA7",
"a.	c #3868A6",
"b.	c #4671A9",
"c.	c #2C558F",
"d.	c #829FC4",
"e.	c #5A85B8",
"f.	c #80A6D0",
"g.	c #88ADD5",
"h.	c #4E7AB0",
"i.	c #C9D4E2",
"j.	c #DADAD9",
"k.	c #323232",
"l.	c #A2A2A1",
"m.	c #595958",
"n.	c #E7E7E6",
"o.	c #020202",
"p.	c #2D2D2C",
"q.	c #070707",
"r.	c #D7D7D6",
"s.	c #141414",
"t.	c #F3F3F2",
"u.	c #7F96B7",
"v.	c #3A639C",
"w.	c #4371AA",
"x.	c #3A6AA7",
"y.	c #406BA4",
"z.	c #3B6096",
"A.	c #668BBA",
"B.	c #729AC8",
"C.	c #88AED6",
"D.	c #749CC9",
"E.	c #4D78AF",
"F.	c #EAECEE",
"G.	c #D8D8D7",
"H.	c #848483",
"I.	c #111111",
"J.	c #AFAFAE",
"K.	c #E3E3E2",
"L.	c #040404",
"M.	c #ECECEB",
"N.	c #0C0C0C",
"O.	c #D0D0CF",
"P.	c #F2F2F1",
"Q.	c #CDD5DE",
"R.	c #365D95",
"S.	c #446FA9",
"T.	c #3E6DA8",
"U.	c #3D69A3",
"V.	c #3E6397",
"W.	c #658AB9",
"X.	c #6791C2",
"Y.	c #81A8D2",
"Z.	c #5C87BB",
"`.	c #8CA7C8",
" +	c #DCDCDB",
".+	c #828281",
"++	c #EFEFEE",
"@+	c #121211",
"#+	c #404040",
"$+	c #777777",
"%+	c #F1F1F0",
"&+	c #C5C5C4",
"*+	c #EDEDEC",
"=+	c #0A0A0A",
"-+	c #CCCCCB",
";+	c #7C7C7B",
">+	c #F1F0EF",
",+	c #F0EFEE",
"'+	c #768EB2",
")+	c #345E99",
"!+	c #4370AA",
"~+	c #3F6BA5",
"{+	c #29538E",
"]+	c #6786B1",
"^+	c #4774AE",
"/+	c #4C7AB2",
"(+	c #668AB9",
"_+	c #DBE0E6",
":+	c #D6D5D4",
"<+	c #DFDEDD",
"[+	c #262626",
"}+	c #838282",
"|+	c #8F8F8E",
"1+	c #191919",
"2+	c #797978",
"3+	c #D6DBE2",
"4+	c #325B93",
"5+	c #3B67A2",
"6+	c #4470AA",
"7+	c #35609A",
"8+	c #4E6F9E",
"9+	c #CBD4DF",
"0+	c #BECBDA",
"a+	c #DCE1E6",
"b+	c #EEEEED",
"c+	c #EEEDEC",
"d+	c #E0E2E5",
"e+	c #4A6C9C",
"f+	c #345F9A",
"g+	c #416EA9",
"h+	c #426FA8",
"i+	c #45689A",
"j+	c #EDECEB",
"k+	c #E8E8E9",
"l+	c #99AAC2",
"m+	c #335C95",
"n+	c #3A67A3",
"o+	c #47699A",
"p+	c #EBEBEA",
"q+	c #EBEAE9",
"r+	c #D7DADF",
"s+	c #7089AE",
"t+	c #2D5792",
"u+	c #28538F",
"v+	c #94A6BF",
"w+	c #EAE9E8",
"x+	c #E9E8E7",
"y+	c #DADCE0",
"z+	c #C7CDD7",
"A+	c #C5CCD6",
"B+	c #E2E2E4",
"C+	c #E8E7E6",
". . . . . . . . . . . . . . . . . . . . . . . . . . . . . . . . . . . . . . . . . . . . . . . . . . . . . . . . . ",
". . . . . . . . . . . . + @ # $ % . . . . . . . . . . . . . . . . . . . . . . . . . . . . . . . . . . . . . . . . ",
". . . . . . . . . . . & * = - ; > . . . . . . . . . . . . . . . . . . . . . . . . . . . . . . . . . . . . . . . . ",
", , , , , , , , , , , ' ) ! ~ { ] , , , , , , , , , , , , , , , , , , , , , , , , , , , , , , , , , , , , , , , , ",
", , , , , , , , , , ^ / ( _ : < [ } , , , , , , , , , , , , , , , , , , , , , , , , , , , , , , , , , , , , , , , ",
"| | | | | 1 2 3 4 5 6 7 8 9 0 a b c | | | | | | | | | | | | | | | | | | | | | | | | | | | | | | | | | | | | | | | ",
"| | | | d e f g h i j k l m 0 n o p | | | q r s | | | t u | | | | | | | | | | | | | | | | | | | | | | | | | | | | ",
"| | | | v w x y z A B C D E : F G H | | | q I J K | L M u | | | | | | | | | | | | | | | | | | | | | | | | | | | | ",
"5 5 5 5 N O P Q R S T U V E W X Y 5 5 5 5 Z `  ...5 +.@.u 5 5 #.$.t %.&.q 5 Z ` *.=.-.;.5 Z ` 5 5 Z u 5 5 5 5 5 5 ",
"5 5 5 5 >.,.'.).!.~.{.].^./.(._.:.5 5 5 5 Z ` <.&.[.}.|.u 5 5 1.2.5 5 3.&.5 Z r 4.5 5.6.5 Z ` 5 5 Z u 5 5 5 5 5 5 ",
"7.7.7.7.8.9.0.a.b.c.d.e.f.g.h.i.7.7.7.7.7.j.` 7.k.l.m.j.u 7.n.o.p.p.p.J J 7.j.q.7.7.r.s.7.j.` 7.7.j.u 7.7.7.7.7.7.",
"t.t.t.t.u.v.w.x.y.z.A.B.C.D.E.F.t.t.t.t.t.G.` t.H.I.J.G.u t.K.L.M.t.t.t.t.t.G.` t.t.G.u t.j.N.t.t.O.u t.t.t.t.t.t.",
"P.P.P.P.Q.R.S.T.U.V.W.X.Y.Z.`.P.P.P.P.P.P.r.` P. +.+++r.@+P.P.#+$+%+P.M.&+P.r.` P.P.r.@+P.*+=+-+P.;+@+P.P.P.P.P.P.",
">+>+>+>+,+'+)+!+~+{+]+^+/+(+_+>+>+>+>+>+>+:+` >+>+>+>+:+I.>+>+<+s [+J [+}+>+:+` >+>+:+I.>+>+|+1+6.2+I.>+>+>+>+>+>+",
"++++++++++3+4+5+6+7+8+9+0+a+b+++++++++++++++++++++++++++++++++++++++++++++++++++++++++++++++++++++++++++++++++++++",
"c+c+c+c+c+d+e+f+g+h+i+j+c+c+c+c+c+c+c+c+c+c+c+c+c+c+c+c+c+c+c+c+c+c+c+c+c+c+c+c+c+c+c+c+c+c+c+c+c+c+c+c+c+c+c+c+c+",
"M.M.M.M.M.k+l+m+n+n+o+p+M.M.M.M.M.M.M.M.M.M.M.M.M.M.M.M.M.M.M.M.M.M.M.M.M.M.M.M.M.M.M.M.M.M.M.M.M.M.M.M.M.M.M.M.M.",
"q+q+q+q+q+q+r+s+t+u+v+q+q+q+q+q+q+q+q+q+q+q+q+q+q+q+q+q+q+q+q+q+q+q+q+q+q+q+q+q+q+q+q+q+q+q+q+q+q+q+q+q+q+q+q+q+q+",
"w+w+w+w+w+w+x+y+z+A+B+w+w+w+w+w+w+w+w+w+w+w+w+w+w+w+w+w+w+w+w+w+w+w+w+w+w+w+w+w+w+w+w+w+w+w+w+w+w+w+w+w+w+w+w+w+w+",
"C+C+C+C+C+C+C+C+C+C+C+C+C+C+C+C+C+C+C+C+C+C+C+C+C+C+C+C+C+C+C+C+C+C+C+C+C+C+C+C+C+C+C+C+C+C+C+C+C+C+C+C+C+C+C+C+C+"};
