/* XPM */
static char * windows_xpm[] = {
"20 20 44 1",
" 	c None",
".	c #BABDB6",
"+	c #FFFFFF",
"@	c #FEFEFE",
"#	c #204A87",
"$	c #FDFDFD",
"%	c #FCFCFB",
"&	c #3465A4",
"*	c #FBFBFB",
"=	c #FAFBFA",
"-	c #F9F9F9",
";	c #E2E3E0",
">	c #F8F8F8",
",	c #F6F6F6",
"'	c #F5F6F6",
")	c #F7F7F7",
"!	c #F4F3F3",
"~	c #F3F3F3",
"{	c #F2F2F2",
"]	c #EEEEEE",
"^	c #EFEFEF",
"/	c #EFEFF0",
"(	c #EBEAEA",
"_	c #EAEAEA",
":	c #F8F9F8",
"<	c #EEEFEE",
"[	c #E5E5E6",
"}	c #E5E5E5",
"|	c #F6F5F6",
"1	c #F6F5F5",
"2	c #F5F5F5",
"3	c #F3F2F2",
"4	c #EFF0EF",
"5	c #F0EFEF",
"6	c #F2F3F3",
"7	c #F2F2F3",
"8	c #F3F2F3",
"9	c #F1F2F1",
"0	c #E9E9E9",
"a	c #EAE9E9",
"b	c #EAE9EA",
"c	c #E5E6E5",
"d	c #EEEEED",
"e	c #EFF0F0",
"                    ",
"                    ",
"   ..........       ",
"  .++++++++++.      ",
"  .@########$.      ",
"  .%&&&&&&&&*.      ",
"  .=--;..........   ",
"  .>,'.++++++++++.  ",
"  .)!~.@########$.  ",
"  .{]^.%&&&&&&&&*.  ",
"  ./(_.=---:>>>>:.  ",
"  .<[}.>,'|,1211).  ",
"  .345.)!~~~6~78,.  ",
"   ....{]^^^^^^]9.  ",
"      ./(___0_ab^.  ",
"      .<[}c}}}}}d.  ",
"      .345^e^^5^^.  ",
"       ..........   ",
"                    ",
"                    "};
