/* XPM */
static char * folder_11x11_xpm[] = {
"48 48 163 2",
"  	c None",
". 	c #8AB6EE",
"+ 	c #94BCED",
"@ 	c #94BCEE",
"# 	c #90B9ED",
"$ 	c #A0C3ED",
"% 	c #AECBED",
"& 	c #AFCCED",
"* 	c #9ABFED",
"= 	c #9CC0EC",
"- 	c #A8C8EC",
"; 	c #AAC9EC",
"> 	c #9ABFEC",
", 	c #98BEEB",
"' 	c #A3C4EB",
") 	c #9ABEEB",
"! 	c #8EB7EC",
"~ 	c #8DB7EC",
"{ 	c #88B3EC",
"] 	c #94BBEA",
"^ 	c #9FC1EA",
"/ 	c #A0C2EA",
"( 	c #96BCEA",
"_ 	c #91B9EA",
": 	c #9BBFE9",
"< 	c #92BAEA",
"[ 	c #84B0E7",
"} 	c #8DB5E7",
"| 	c #6098D8",
"1 	c #659BD7",
"2 	c #659AD7",
"3 	c #6098D7",
"4 	c #6C9FDD",
"5 	c #89B2E5",
"6 	c #87B1E4",
"7 	c #88B2E4",
"8 	c #8BB3E5",
"9 	c #8AB3E5",
"0 	c #5390DB",
"a 	c #5C97DF",
"b 	c #5B96DF",
"c 	c #6099E0",
"d 	c #5F99E0",
"e 	c #5290DE",
"f 	c #5B96E2",
"g 	c #5A96E2",
"h 	c #5E99E2",
"i 	c #5793E1",
"j 	c #609AE6",
"k 	c #5F99E5",
"l 	c #5F9AE6",
"m 	c #629BE6",
"n 	c #5B97E5",
"o 	c #649DE9",
"p 	c #639DE9",
"q 	c #659EE8",
"r 	c #5B97E4",
"s 	c #5F9AE8",
"t 	c #67A0EC",
"u 	c #68A0EB",
"v 	c #639DEB",
"w 	c #6BA4F0",
"x 	c #6CA4EE",
"y 	c #6BA4EE",
"z 	c #649DEA",
"A 	c #67A0EE",
"B 	c #6FA6F3",
"C 	c #6FA5F1",
"D 	c #66A0EE",
"E 	c #6AA2EF",
"F 	c #73AAF5",
"G 	c #73AAF4",
"H 	c #72A9F2",
"I 	c #72A9F3",
"J 	c #6AA3EF",
"K 	c #77ADF5",
"L 	c #77ACF5",
"M 	c #75AAF2",
"N 	c #75AAF3",
"O 	c #7BAFF6",
"P 	c #7BAFF5",
"Q 	c #78ADF2",
"R 	c #7FB2F7",
"S 	c #7FB1F6",
"T 	c #7CAFF3",
"U 	c #7CAFF4",
"V 	c #82B5F7",
"W 	c #83B5F7",
"X 	c #7FB1F4",
"Y 	c #85B7F7",
"Z 	c #86B8F8",
"` 	c #86B7F7",
" .	c #81B4F4",
"..	c #81B4F5",
"+.	c #89BAF7",
"@.	c #8ABBF8",
"#.	c #88B9F6",
"$.	c #85B7F4",
"%.	c #85B7F5",
"&.	c #8DBCF8",
"*.	c #8EBEF9",
"=.	c #8CBCF7",
"-.	c #88B8F4",
";.	c #91BFF9",
">.	c #92C0F9",
",.	c #90BFF8",
"'.	c #8BBBF5",
").	c #91C0F9",
"!.	c #95C3FA",
"~.	c #96C4FA",
"{.	c #93C1F8",
"].	c #8EBEF5",
"^.	c #8EBEF6",
"/.	c #99C5FA",
"(.	c #9AC7FB",
"_.	c #96C4F9",
":.	c #91C0F6",
"<.	c #91C0F7",
"[.	c #9DC9FB",
"}.	c #9EC9FB",
"|.	c #9AC6F9",
"1.	c #95C2F6",
"2.	c #95C2F7",
"3.	c #A2CBFB",
"4.	c #A2CCFC",
"5.	c #9DC8F9",
"6.	c #98C3F6",
"7.	c #98C4F6",
"8.	c #A6CEFC",
"9.	c #A6CFFC",
"0.	c #A1CBFA",
"a.	c #9BC6F7",
"b.	c #AAD2FC",
"c.	c #A9D2FD",
"d.	c #A3CDFA",
"e.	c #9EC9F7",
"f.	c #AAD1FC",
"g.	c #AED5FD",
"h.	c #ADD5FE",
"i.	c #A7CFFB",
"j.	c #A1CBF8",
"k.	c #A1CCF9",
"l.	c #B2D7FD",
"m.	c #B1D8FE",
"n.	c #A8D0FA",
"o.	c #A4CDF9",
"p.	c #AED6FE",
"q.	c #ABD5FF",
"r.	c #A0CDFA",
"s.	c #9ECAF9",
"t.	c #A6D2FD",
"u.	c #9DCDFC",
"v.	c #92C3F5",
"w.	c #91C2F5",
"x.	c #A6D1FD",
"y.	c #91B8DE",
"z.	c #9ACAFB",
"A.	c #93C6F8",
"B.	c #94C6F8",
"C.	c #92B8DF",
"D.	c #1D262E",
"E.	c #1C242D",
"F.	c #1B242C",
"                                                                                                ",
"                                                                                                ",
"                                                                                                ",
"                                                                                                ",
"                                                                                                ",
"        . + @ @ @ @ @ @ + #                                                                     ",
"        $ % % % % % % % % & *                                                                   ",
"        = - - - - - - - - - ; >                                                                 ",
"        , ' ' ' ' ' ' ' ' ' ' ' ) ! ~ ~ ~ ~ ~ ~ ~ ~ ~ ~ ~ ~ ~ ~ ~ ~ ~ ~ ~ ~ ~ ~ ~ ~ ~ {         ",
"        ] ^ ^ ^ ^ ^ ^ ^ ^ ^ ^ ^ ^ / / / / / / / / / / / / / / / / / / / / / / / / / / (         ",
"        _ : : : : : : : : : : : : : : : : : : : : : : : : : : : : : : : : : : : : : : <         ",
"        [ } } } } } } } } } } } } } } } } } } } } } } } } } } } } } } } } } } } } } } [         ",
"        | 1 2 2 2 2 2 2 2 2 2 2 2 2 2 2 2 2 2 2 2 2 2 2 2 2 2 2 2 2 2 2 2 2 2 2 2 2 1 3         ",
"4 5 6 7 8 9 9 9 9 9 9 9 9 9 9 9 9 9 9 9 9 9 9 9 9 9 9 9 9 9 9 9 9 9 9 9 9 9 9 9 9 9 9 8 7 6 5 4 ",
"0 a b b c d d d d d d d d d d d d d d d d d d d d d d d d d d d d d d d d d d d d d d d b b a 0 ",
"e f g f h h h h h h h h h h h h h h h h h h h h h h h h h h h h h h h h h h h h h h h h f g f e ",
"i j k l m m m m m m m m m m m m m m m m m m m m m m m m m m m m m m m m m m m m m m m m l k j i ",
"n o p p q q q q q q q q q q q q q q q q q q q q q q q q q q q q q q q q q q q q q q q q p p o r ",
"s t t t u u u u u u u u u u u u u u u u u u u u u u u u u u u u u u u u u u u u u u u u t t t s ",
"v w w w x y y y y y y y y y y y y y y y y y y y y y y y y y y y y y y y y y y y y y y x w w w z ",
"A B B B C C C C C C C C C C C C C C C C C C C C C C C C C C C C C C C C C C C C C C C C B B B D ",
"E F F G H I I I I I I I I I I I I I I I I I I I I I I I I I I I I I I I I I I I I I I H G F F J ",
"  K L L M N N N N N N N N N N N N N N N N N N N N N N N N N N N N N N N N N N N N N N M L L K   ",
"  O P P Q Q Q Q Q Q Q Q Q Q Q Q Q Q Q Q Q Q Q Q Q Q Q Q Q Q Q Q Q Q Q Q Q Q Q Q Q Q Q Q P P O   ",
"  R R S T U U U U U U U U U U U U U U U U U U U U U U U U U U U U U U U U U U U U U U T S R R   ",
"  V W W X X X X X X X X X X X X X X X X X X X X X X X X X X X X X X X X X X X X X X X X W W V   ",
"  Y Z `  ............................................................................. .` Z Y   ",
"  +.@.#.$.%.%.%.%.%.%.%.%.%.%.%.%.%.%.%.%.%.%.%.%.%.%.%.%.%.%.%.%.%.%.%.%.%.%.%.%.%.%.$.#.@.+.  ",
"  &.*.=.-.-.-.-.-.-.-.-.-.-.-.-.-.-.-.-.-.-.-.-.-.-.-.-.-.-.-.-.-.-.-.-.-.-.-.-.-.-.-.-.=.*.&.  ",
"  ;.>.,.'.'.'.'.'.'.'.'.'.'.'.'.'.'.'.'.'.'.'.'.'.'.'.'.'.'.'.'.'.'.'.'.'.'.'.'.'.'.'.'.,.>.).  ",
"  !.~.{.].^.^.^.^.^.^.^.^.^.^.^.^.^.^.^.^.^.^.^.^.^.^.^.^.^.^.^.^.^.^.^.^.^.^.^.^.^.^.].{.~.!.  ",
"  /.(._.:.<.<.<.<.<.<.<.<.<.<.<.<.<.<.<.<.<.<.<.<.<.<.<.<.<.<.<.<.<.<.<.<.<.<.<.<.<.<.:._.(./.  ",
"  [.}.|.1.2.2.2.2.2.2.2.2.2.2.2.2.2.2.2.2.2.2.2.2.2.2.2.2.2.2.2.2.2.2.2.2.2.2.2.2.2.2.1.|.}.[.  ",
"  3.4.5.6.7.7.7.7.7.7.7.7.7.7.7.7.7.7.7.7.7.7.7.7.7.7.7.7.7.7.7.7.7.7.7.7.7.7.7.7.7.7.6.5.4.3.  ",
"  8.9.0.a.a.a.a.a.a.a.a.a.a.a.a.a.a.a.a.a.a.a.a.a.a.a.a.a.a.a.a.a.a.a.a.a.a.a.a.a.a.a.a.0.9.8.  ",
"  b.c.d.e.e.e.e.e.e.e.e.e.e.e.e.e.e.e.e.e.e.e.e.e.e.e.e.e.e.e.e.e.e.e.e.e.e.e.e.e.e.e.e.d.c.f.  ",
"  g.h.i.j.k.k.k.k.k.k.k.k.k.k.k.k.k.k.k.k.k.k.k.k.k.k.k.k.k.k.k.k.k.k.k.k.k.k.k.k.k.k.j.i.h.g.  ",
"  l.m.n.o.o.o.o.o.o.o.o.o.o.o.o.o.o.o.o.o.o.o.o.o.o.o.o.o.o.o.o.o.o.o.o.o.o.o.o.o.o.o.o.n.m.l.  ",
"  p.q.r.s.s.s.s.s.s.s.s.s.s.s.s.s.s.s.s.s.s.s.s.s.s.s.s.s.s.s.s.s.s.s.s.s.s.s.s.s.s.s.s.r.q.p.  ",
"  t.u.v.w.w.w.w.w.w.w.w.w.w.w.w.w.w.w.w.w.w.w.w.w.w.w.w.w.w.w.w.w.w.w.w.w.w.w.w.w.w.w.w.v.u.x.  ",
"  y.z.A.B.B.B.B.B.B.B.B.B.B.B.B.B.B.B.B.B.B.B.B.B.B.B.B.B.B.B.B.B.B.B.B.B.B.B.B.B.B.B.B.A.z.C.  ",
"    D.E.F.F.F.F.F.F.F.F.F.F.F.F.F.F.F.F.F.F.F.F.F.F.F.F.F.F.F.F.F.F.F.F.F.F.F.F.F.F.F.F.E.D.    ",
"                                                                                                ",
"                                                                                                ",
"                                                                                                ",
"                                                                                                ",
"                                                                                                ",
"                                                                                                "};
