/* XPM */
static char * xterm_xpm[] = {
"20 20 182 2",
"  	c None",
". 	c #A1A1A1",
"+ 	c #BEBDBE",
"@ 	c #BDBDBD",
"# 	c #C0C0C0",
"$ 	c #C3C3C3",
"% 	c #C6C6C6",
"& 	c #CAC9CA",
"* 	c #CCCCCC",
"= 	c #CFCFCF",
"- 	c #D2D2D2",
"; 	c #D4D4D4",
"> 	c #C8C8C8",
", 	c #C5C5C5",
"' 	c #A5A5A5",
") 	c #9A9B9A",
"! 	c #818281",
"~ 	c #858584",
"{ 	c #868684",
"] 	c #868786",
"^ 	c #878787",
"/ 	c #888887",
"( 	c #888888",
"_ 	c #898989",
": 	c #868686",
"< 	c #828382",
"[ 	c #808080",
"} 	c #7E7E7E",
"| 	c #7C7C7C",
"1 	c #9D9D9D",
"2 	c #4C4E4B",
"3 	c #515350",
"4 	c #4D4F4C",
"5 	c #4B4C4A",
"6 	c #484946",
"7 	c #444543",
"8 	c #414240",
"9 	c #3D3E3C",
"0 	c #393A39",
"a 	c #373736",
"b 	c #353534",
"c 	c #313131",
"d 	c #303030",
"e 	c #2E2E2E",
"f 	c #828282",
"g 	c #545652",
"h 	c #585A56",
"i 	c #555653",
"j 	c #525350",
"k 	c #4F504E",
"l 	c #484947",
"m 	c #444544",
"n 	c #414241",
"o 	c #3C3C3C",
"p 	c #878786",
"q 	c #595B57",
"r 	c #626461",
"s 	c #585957",
"t 	c #51524F",
"u 	c #4D4E4C",
"v 	c #4A4B49",
"w 	c #444644",
"x 	c #3E3F3D",
"y 	c #373837",
"z 	c #333332",
"A 	c #2D2D2D",
"B 	c #818181",
"C 	c #868685",
"D 	c #5A5B58",
"E 	c #A5A6A4",
"F 	c #A4A5A3",
"G 	c #6D6D6C",
"H 	c #3C3D3C",
"I 	c #393938",
"J 	c #363635",
"K 	c #323232",
"L 	c #2F2F2F",
"M 	c #2E2E2D",
"N 	c #2D2D2E",
"O 	c #535552",
"P 	c #7F807E",
"Q 	c #CACAC9",
"R 	c #939492",
"S 	c #383937",
"T 	c #383837",
"U 	c #353535",
"V 	c #7F7F7F",
"W 	c #838383",
"X 	c #575956",
"Y 	c #80827F",
"Z 	c #686967",
"` 	c #4A4C49",
" .	c #737472",
"..	c #8B8B8A",
"+.	c #6F6F6E",
"@.	c #3A3A39",
"#.	c #333434",
"$.	c #303130",
"%.	c #333333",
"&.	c #848483",
"*.	c #474945",
"=.	c #464744",
"-.	c #696A68",
";.	c #7A7B7A",
">.	c #636463",
",.	c #383938",
"'.	c #323332",
").	c #30302F",
"!.	c #848484",
"~.	c #4C4D4B",
"{.	c #4A4B48",
"].	c #474845",
"^.	c #434442",
"/.	c #3A3B39",
"(.	c #353635",
"_.	c #323231",
":.	c #848584",
"<.	c #494A47",
"[.	c #454745",
"}.	c #424341",
"|.	c #3B3C3A",
"1.	c #353533",
"2.	c #343434",
"3.	c #858585",
"4.	c #4C4D4A",
"5.	c #3D3E3D",
"6.	c #3A3B3A",
"7.	c #474846",
"8.	c #404140",
"9.	c #3E3E3D",
"0.	c #363636",
"a.	c #7D7D7D",
"b.	c #333432",
"c.	c #30312F",
"d.	c #2E2F2D",
"e.	c #2A2B2A",
"f.	c #272827",
"g.	c #252524",
"h.	c #212121",
"i.	c #1F1F1F",
"j.	c #292929",
"k.	c #7A7A7A",
"l.	c #B4B3B4",
"m.	c #D8D8D8",
"n.	c #D5D5D5",
"o.	c #DDDDDD",
"p.	c #D8D7D8",
"q.	c #E3E3E3",
"r.	c #E2E2E2",
"s.	c #E6E6E6",
"t.	c #E9E9E9",
"u.	c #E1E1E1",
"v.	c #DADADA",
"w.	c #D7D7D7",
"x.	c #D6D6D6",
"y.	c #D3D3D3",
"z.	c #ACACAC",
"A.	c #ABABAB",
"B.	c #C9C9C9",
"C.	c #C4C4C4",
"D.	c #CBCBCB",
"E.	c #D1D1D1",
"F.	c #D0D0D0",
"G.	c #D9D9D9",
"H.	c #CDCDCD",
"I.	c #BCBCBC",
"J.	c #BBBBBB",
"K.	c #B8B8B8",
"L.	c #BABABA",
"M.	c #A3A3A3",
"N.	c #6D6D6D",
"O.	c #949494",
"P.	c #909090",
"Q.	c #989898",
"R.	c #969696",
"S.	c #9B9B9B",
"T.	c #979797",
"U.	c #999999",
"V.	c #919191",
"W.	c #8F8F8F",
"X.	c #8B8B8B",
"Y.	c #676767",
"                                        ",
"  . + @ # $ % & * = - ; - = * > , , '   ",
"  ) ! ~ { ] ^ / / ( _ _ : < [ } | | 1   ",
"  ] 2 3 4 5 6 7 8 9 0 a b c c d e e f   ",
"  / g h i j k 5 l m n o a c e e e d f   ",
"  p q r s t u v w x y z d e A e A c B   ",
"  C D E F G 7 8 H I J K L M N e A c [   ",
"  C O P Q R S I T T U c e A e e A K V   ",
"  W X Y Z `  ...+.@.#.$.e A e e A %.}   ",
"  &.4 2 *.=.-.;.>.,.'.).A A e e A %.|   ",
"  !.~.{.].^.x /.y (._.L A e e e A %.|   ",
"  :.~.<.[.}.x |.y 1.c e A e e e A 2.|   ",
"  3.4.6 7 8 5.6.a %.d A e e e e A 2.|   ",
"  : ~.7.7 8.9.@.0.%.L e e e e e A U a.  ",
"  f |.b.c.d.e.f.g.h.i.i.i.i.i.i.i.j.k.  ",
"  l.m.n.o.p.q.r.s.t.o.u.v.w.x.* = y.z.  ",
"  A.B.% C.D.E.F.G.F.= H.C.% I.J.K.L.M.  ",
"  N.O.P.P.Q.R.S.1 T.U.O.V.W._ X.!.( Y.  ",
"                                        ",
"                                        "};
