/* XPM */
static char * frameIBL_xpm[] = {
"3 3 5 1",
" 	c None",
".	c #85827E",
"+	c #F4F4F3",
"@	c #EDECEB",
"#	c #D2D0CE",
".+@",
".+#",
"..."};
