/* XPM */
static char * closeO_xpm[] = {
"42 36 266 2",
"  	c None",
". 	c #F5F5F5",
"+ 	c #F3F1F1",
"@ 	c #EFE5E5",
"# 	c #EEDCDC",
"$ 	c #F5E4E4",
"% 	c #F6E7E6",
"& 	c #F4E4E4",
"* 	c #EFDBDB",
"= 	c #F4F4F4",
"- 	c #F2EDED",
"; 	c #EED7D7",
"> 	c #F8F0EF",
", 	c #F8F9FA",
"' 	c #F8FAF9",
") 	c #F9FAFA",
"! 	c #F8EFEF",
"~ 	c #EDD8D7",
"{ 	c #F0EBEB",
"] 	c #EBD5D6",
"^ 	c #F9F8F7",
"/ 	c #F8F8F9",
"( 	c #F8F8F8",
"_ 	c #F7F8F8",
": 	c #F8F9F9",
"< 	c #F9F7F7",
"[ 	c #ECD4D3",
"} 	c #F3F0F0",
"| 	c #E8CECE",
"1 	c #F8F5F4",
"2 	c #F7F7F8",
"3 	c #F7F7F6",
"4 	c #F7F8F6",
"5 	c #F8F4F4",
"6 	c #E8CFCE",
"7 	c #ECDDDC",
"8 	c #F1DFDE",
"9 	c #F6F7F7",
"0 	c #F5F6F5",
"a 	c #C45C5C",
"b 	c #CD7878",
"c 	c #D28585",
"d 	c #C1504F",
"e 	c #F0DBDC",
"f 	c #E6CCCB",
"g 	c #F6F2F2",
"h 	c #F3E0DF",
"i 	c #B02121",
"j 	c #C97272",
"k 	c #CD7F7F",
"l 	c #AE1918",
"m 	c #F1D8D9",
"n 	c #F6F0EF",
"o 	c #F2EFEF",
"p 	c #E3C2C2",
"q 	c #F6F5F4",
"r 	c #EFEEEE",
"s 	c #F6F5F6",
"t 	c #F8E4E4",
"u 	c #B73A3B",
"v 	c #AE1818",
"w 	c #F7DEDF",
"x 	c #E2BEBE",
"y 	c #F4F5F5",
"z 	c #E9E8E7",
"A 	c #D47B7B",
"B 	c #A60505",
"C 	c #CC6767",
"D 	c #F5F5F6",
"E 	c #F5F4F3",
"F 	c #E0BDBD",
"G 	c #F0EBEC",
"H 	c #F1EDEF",
"I 	c #E4E1E1",
"J 	c #C57373",
"K 	c #F4CACB",
"L 	c #B12222",
"M 	c #C26565",
"N 	c #F2EDEE",
"O 	c #E4C4C4",
"P 	c #EAD9D9",
"Q 	c #E1DFDD",
"R 	c #DEDBDA",
"S 	c #C57979",
"T 	c #AB1818",
"U 	c #F7DEDE",
"V 	c #F7F6F5",
"W 	c #F8E3E4",
"X 	c #AE1E1E",
"Y 	c #C16B6A",
"Z 	c #E2DFDD",
"` 	c #EAD6D7",
" .	c #F2F1F2",
"..	c #E9D2D2",
"+.	c #DAA5A6",
"@.	c #E8E3E2",
"#.	c #D9D5D4",
"$.	c #D09A99",
"%.	c #F7E0E0",
"&.	c #EFEFEF",
"*.	c #ECEBEB",
"=.	c #F7E5E6",
"-.	c #D09493",
";.	c #E9E4E3",
">.	c #D8A1A1",
",.	c #F5F4F4",
"'.	c #F0E6E6",
").	c #E1BDBD",
"!.	c #DDBBB9",
"~.	c #DDD9D8",
"{.	c #F4F3F3",
"].	c #EBEAE8",
"^.	c #D3CFCC",
"/.	c #E8E6E4",
"(.	c #F4F5F3",
"_.	c #DFDAD8",
":.	c #DDB8B5",
"<.	c #F3F3F3",
"[.	c #F1EFEF",
"}.	c #E9D6D6",
"|.	c #DCAAAA",
"1.	c #DBB1B1",
"2.	c #E0D5D6",
"3.	c #D2CDCC",
"4.	c #CEC8C7",
"5.	c #D2CECC",
"6.	c #E1D6D6",
"7.	c #D8AEAE",
"8.	c #F3EFEF",
"9.	c #E9D4D5",
"0.	c #DFB6B5",
"a.	c #D08989",
"b.	c #D9B7B6",
"c.	c #DFCFCF",
"d.	c #E1D0D1",
"e.	c #DECECD",
"f.	c #D9B4B5",
"g.	c #D18988",
"h.	c #EBDFDE",
"i.	c #E5C8C9",
"j.	c #E0BBBA",
"k.	c #D89E9F",
"l.	c #D49696",
"m.	c #F2F2F2",
"n.	c #EDE6E6",
"o.	c #E9DDDD",
"p.	c #E9D9D9",
"q.	c #EEE7E7",
"r.	c #F1F1F1",
"s.	c #E8E7E7",
"t.	c #E5E6E6",
"u.	c #D2D2D3",
"v.	c #CAC9C8",
"w.	c #CBC9C7",
"x.	c #CBCAC7",
"y.	c #D3D2D3",
"z.	c #EDEDED",
"A.	c #D1CFD0",
"B.	c #DBDAD9",
"C.	c #F5F4F6",
"D.	c #F5F6F6",
"E.	c #D1D0D0",
"F.	c #EAEBEB",
"G.	c #CACAC9",
"H.	c #D7D3D1",
"I.	c #D3CECC",
"J.	c #D8D3D1",
"K.	c #CACBC8",
"L.	c #F0F0F0",
"M.	c #CDCCCC",
"N.	c #F1F2F1",
"O.	c #E6E3E3",
"P.	c #D8D4D3",
"Q.	c #E6E4E3",
"R.	c #CCCDCD",
"S.	c #DDDDDC",
"T.	c #D5D3D3",
"U.	c #F1F0F1",
"V.	c #DDDAD9",
"W.	c #636261",
"X.	c #797776",
"Y.	c #848180",
"Z.	c #595756",
"`.	c #D2D0D1",
" +	c #CBCCCB",
".+	c #F1F2F3",
"++	c #E3E1DF",
"@+	c #D9DAD9",
"#+	c #393736",
"$+	c #7A7777",
"%+	c #858381",
"&+	c #302F2F",
"*+	c #D3D3D4",
"=+	c #E7E3E3",
"-+	c #C2C2C2",
";+	c #F5F5F4",
">+	c #E8E6E5",
",+	c #EEF1F2",
"'+	c #4E4C4A",
")+	c #30302F",
"!+	c #E6E9EA",
"~+	c #BEBEBE",
"{+	c #EEEDED",
"]+	c #89898A",
"^+	c #1F1F1E",
"/+	c #797978",
"(+	c #F6F6F6",
"_+	c #BDBDBD",
":+	c #EBEBEC",
"<+	c #F0F0F2",
"[+	c #8A8988",
"}+	c #333231",
"|+	c #CED2D2",
"1+	c #3A3A38",
"2+	c #7D7C7B",
"3+	c #C4C4C4",
"4+	c #DEDFDF",
"5+	c #959696",
"6+	c #323231",
"7+	c #E7EAEB",
"8+	c #F8F9F8",
"9+	c #EFF2F3",
"0+	c #3A3938",
"a+	c #888786",
"b+	c #DBDBDC",
"c+	c #F1F1F2",
"d+	c #D2D2D2",
"e+	c #A8A8A9",
"f+	c #F6F7F6",
"g+	c #B8B8B9",
"h+	c #E8EBEC",
"i+	c #F8F8F7",
"j+	c #F0F3F4",
"k+	c #B2B2B1",
"l+	c #A3A4A4",
"m+	c #E7E6E6",
"n+	c #BEBDBD",
"o+	c #C2C1C1",
"p+	c #F6F5F5",
"q+	c #F9F9F8",
"r+	c #F8F7F7",
"s+	c #BDBDBC",
"t+	c #F0EFEF",
"u+	c #D7D6D6",
"v+	c #ABAAAA",
"w+	c #B9B8B9",
"x+	c #EBECEC",
"y+	c #F7F8F7",
"z+	c #E9EAEA",
"A+	c #B5B5B4",
"B+	c #D5D4D5",
"C+	c #B6B6B5",
"D+	c #898888",
"E+	c #BFBFC0",
"F+	c #D9D9D9",
"G+	c #DDDDDD",
"H+	c #D8D9D8",
"I+	c #888887",
"J+	c #DFDFDE",
"K+	c #C9C8C9",
"L+	c #BBBBBA",
"M+	c #9F9E9F",
"N+	c #969696",
"O+	c #E6E6E6",
"P+	c #DCDCDC",
"Q+	c #E7E7E7",
". . . . . . . . . . . . . . . . . . . . . . . . . . . . . . . . . . . . . . . . . . ",
". . . . . . . . . . . . . . . . . . . . . . . . . . . . + @ # $ % & * @ + . . . . . ",
". . . . . . . . . . . . . . . . . . . . . . . . . . = - ; > , ' ) , ) ! ~ - = . . . ",
". . . . . . . . . . . . . . . . . . . . . . . . . = { ] ^ / ( _ _ _ ( : < [ { = . . ",
". . . . . . . . . . . . . . . . . . . . . . . . . } | 1 2 3 3 3 3 3 3 3 4 5 6 } . . ",
". . . . . . . . . . . . . . . . . . . . . . . . = 7 8 9 0 a b 0 0 0 c d 0 9 e 7 = . ",
". . . . . . . . . . . . . . . . . . . . . . . . + f g . = h i j = k l m = . n f + . ",
". . . . . . . . . . . . . . . . . . . . . . . . o p q r r s t i u v w 0 r r 0 p o . ",
". . . . . . . . . . . . . . . . . . . . . . . . { x y z z z . A B C D z z z E F { . ",
". . . . . . . . . . . . . . . . . . . . . . . . G x H I I I J l K L M I I I N x G . ",
". . . . . . . . . . . . . . . . . . . . . . . . o O P Q R S T U V W X Y R Z ` O o . ",
". . . . . . . . . . . . . . . . . . . . . . . .  ...+.@.#.$.%.&.#.*.=.-.#.;.>... .. ",
",.,.,.,.,.,.,.,.,.,.,.,.,.,.,.,.,.,.,.,.,.,.,.,.,.'.).!.~.{.].^.^.^./.(._.:.).'.,.,.",
"= = = = = = = = = = = = = = = = = = = = = = = = <.[.}.|.1.2.3.4.4.4.5.6.7.|.}.[.<.= ",
"= = = = = = = = = = = = = = = = = = = = = = = = <.<.8.9.0.a.b.c.d.e.f.g.0.9.8.<.<.= ",
"= = = = = = = = = = = = = = = = = = = = = = = = <.<.<.[.h.i.j.k.l.k.j.i.h.[.<.<.<.= ",
"<.= = = <.= = = <.= = = <.= = = = = <.= = = <.= <.<.m.<.m.o n.o.p.o.q.o r.<.<.<.m.= ",
"s.s.s.s.s.s.s.s.s.s.s.s.s.s.s.s.s.s.s.s.s.s.s.s.s.s.s.s.s.s.s.s.s.s.s.s.s.s.s.s.s.s.",
". . . . . . . . . . . . . . . . . . . . . . . . . . . . . . . . . . . . . . . . . . ",
". . . . . . . . . . . . . . . . . . . . . . . . . . . . r.t.u.v.w.x.y.t.r.. . . . . ",
". . . . . . . . . . . . . . . . . . . . . . . . . . = z.A.B.C.D.D D.D B.E.z.= . . . ",
". . . . . . . . . . . . . . . . . . . . . . . . . = F.G.= r H.I.I.I.J.&.<.K.F.= . . ",
". . . . . . . . . . . . . . . . . . . . . . . . . L.M.N.O.P.P.P.P.P.P.P.Q.L.R.L.. . ",
". . . . . . . . . . . . . . . . . . . . . . . . = S.T.U.V.W.X.V.V.V.Y.Z.V.<.`.S.= . ",
". . . . . . . . . . . . . . . . . . . . . . . . r. +.+Q.++@+#+$+++%+&+*+++=+&. +r.. ",
". . . . . . . . . . . . . . . . . . . . . . . . &.-+;+>+>+,.,+#+'+)+!+;+>+>+;+-+&.. ",
". . . . . . . . . . . . . . . . . . . . . . . . F.~+. {+{+{+s ]+^+/+(+{+{+{+. _+F.. ",
". . . . . . . . . . . . . . . . . . . . . . . . :+~+<+<.<.<.[+}+|+1+2+<.<.<.<+~+:+. ",
". . . . . . . . . . . . . . . . . . . . . . . . &.3+4+. . 5+6+7+8+9+0+a+. . b+3+&.. ",
". . . . . . . . . . . . . . . . . . . . . . . . c+d+e+= f+g+h+( f+i+j+k+f+= l+d+c+. ",
",.,.,.,.,.,.,.,.,.,.,.,.,.,.,.,.,.,.,.,.,.,.,.,.,.m+n+o+p+q+q+r+r+r+8+q+;+s+n+m+,.,.",
"= = = = = = = = = = = = = = = = = = = = = = = = <.t+u+v+w+x+y+8+8+8+y+z+A+v+u+t+<.= ",
"= = = = = = = = = = = = = = = = = = = = = = = = <.<.t+B+C+D+E+F+G+H+n+I+C+B+t+<.<.= ",
"= = = = = = = = = = = = = = = = = = = = = = = = <.<.<.&.J+K+L+M+N+M+L+K+J+&.<.<.<.= ",
"<.= = = <.= = = <.= = = <.= = = = = <.= = = <.= <.<.m.<.m.&.O+P+F+P+Q+&.r.<.<.<.m.= ",
"s.s.s.s.s.s.s.s.s.s.s.s.s.s.s.s.s.s.s.s.s.s.s.s.s.s.s.s.s.s.s.s.s.s.s.s.s.s.s.s.s.s."};
