/* XPM */
static char * closeI_xpm[] = {
"42 36 140 2",
"  	c None",
". 	c #F5F5F5",
"+ 	c #F0F0F0",
"@ 	c #E0E0DF",
"# 	c #D5D5D6",
"$ 	c #DEDFDF",
"% 	c #E2E4E4",
"& 	c #DEDDDF",
"* 	c #D5D3D4",
"= 	c #F4F4F4",
"- 	c #E8E8E8",
"; 	c #D2CFD1",
"> 	c #F4F5F6",
", 	c #F8F9FA",
"' 	c #F8FAF9",
") 	c #F9FAFA",
"! 	c #F3F5F5",
"~ 	c #D1D0D0",
"{ 	c #E5E4E4",
"] 	c #CDCDCE",
"^ 	c #F7F8F8",
"/ 	c #F8F8F9",
"( 	c #F8F8F8",
"_ 	c #F8F9F9",
": 	c #CECDCD",
"< 	c #EAEAEA",
"[ 	c #C6C7C7",
"} 	c #F6F7F6",
"| 	c #F7F7F8",
"1 	c #F7F7F6",
"2 	c #F7F8F6",
"3 	c #F6F6F7",
"4 	c #C8C7C6",
"5 	c #F1F1F1",
"6 	c #D4D3D3",
"7 	c #DBDCDC",
"8 	c #F6F7F7",
"9 	c #F5F6F5",
"0 	c #B8B8B7",
"a 	c #C3C3C3",
"b 	c #C9C9C8",
"c 	c #B3B3B1",
"d 	c #D8D8D9",
"e 	c #EBEAEA",
"f 	c #C4C3C3",
"g 	c #F0F2F2",
"h 	c #A09F9E",
"i 	c #BFC0BF",
"j 	c #C5C4C4",
"k 	c #9C9C9A",
"l 	c #EFEFF0",
"m 	c #E7E5E5",
"n 	c #BAB9B9",
"o 	c #F6F5F5",
"p 	c #EFEEEE",
"q 	c #F6F5F6",
"r 	c #A9A7A7",
"s 	c #9C9B9A",
"t 	c #F5F5F6",
"u 	c #E3E1E1",
"v 	c #B6B5B6",
"w 	c #F4F5F5",
"x 	c #E9E8E7",
"y 	c #CACBCB",
"z 	c #949393",
"A 	c #C1C1C1",
"B 	c #F5F5F4",
"C 	c #B5B4B5",
"D 	c #E4E2E2",
"E 	c #EDEDEF",
"F 	c #E4E1E1",
"G 	c #BCBABA",
"H 	c #EEF1F2",
"I 	c #A0A09F",
"J 	c #B7B6B5",
"K 	c #EDEDED",
"L 	c #BDBCBC",
"M 	c #D9D8D8",
"N 	c #E1DFDD",
"O 	c #DEDBDA",
"P 	c #9A9A99",
"Q 	c #F7F6F5",
"R 	c #F5F6F7",
"S 	c #9D9C9B",
"T 	c #B8B6B4",
"U 	c #E2DFDD",
"V 	c #D7D5D6",
"W 	c #ECEBEB",
"X 	c #A1A1A1",
"Y 	c #E5E3E2",
"Z 	c #D9D5D4",
"` 	c #CAC8C6",
" .	c #F4F6F6",
"..	c #EFEFEF",
"+.	c #F5F7F6",
"@.	c #C8C7C5",
"#.	c #9E9C9E",
"$.	c #F5F4F4",
"%.	c #F3F2F2",
"&.	c #DEDDDD",
"*.	c #B8B6B5",
"=.	c #B9B9B7",
"-.	c #DCD9D8",
";.	c #F4F3F3",
">.	c #EBEAE8",
",.	c #D3CFCC",
"'.	c #E8E6E4",
").	c #F4F5F3",
"!.	c #DDDAD8",
"~.	c #B7B6B4",
"{.	c #F3F3F3",
"].	c #EAE9E9",
"^.	c #CECECD",
"/.	c #A5A4A4",
"(.	c #B3B0B0",
"_.	c #D8D5D6",
":.	c #D2CDCC",
"<.	c #CEC8C7",
"[.	c #D2CECC",
"}.	c #D9D6D6",
"|.	c #ADADAD",
"1.	c #CDCBCC",
"2.	c #AFAFAF",
"3.	c #858585",
"4.	c #D0CFCF",
"5.	c #D3D0D1",
"6.	c #CFCECD",
"7.	c #B6B5B4",
"8.	c #848484",
"9.	c #D8D7D7",
"0.	c #C2C1C1",
"a.	c #B4B4B3",
"b.	c #9A9999",
"c.	c #919090",
"d.	c #F2F2F2",
"e.	c #DFDEDE",
"f.	c #D6D5D5",
"g.	c #D3D1D1",
"h.	c #E0DFDE",
"i.	c #E8E7E7",
". . . . . . . . . . . . . . . . . . . . . . . . . . . . . . . . . . . . . . . . . . ",
". . . . . . . . . . . . . . . . . . . . . . . . . . . . + @ # $ % & * @ + . . . . . ",
". . . . . . . . . . . . . . . . . . . . . . . . . . = - ; > , ' ) , ) ! ~ - = . . . ",
". . . . . . . . . . . . . . . . . . . . . . . . . = { ] ^ / ( ^ ^ ^ ( _ ^ : { = . . ",
". . . . . . . . . . . . . . . . . . . . . . . . . < [ } | 1 1 1 1 1 1 1 2 3 4 < . . ",
". . . . . . . . . . . . . . . . . . . . . . . . 5 6 7 8 9 0 a 9 9 9 b c 9 8 d 6 5 . ",
". . . . . . . . . . . . . . . . . . . . . . . . e f ! . = g h i = j k l = . = f e . ",
". . . . . . . . . . . . . . . . . . . . . . . . m n o p p q 8 h r s t 9 p p 9 n m . ",
". . . . . . . . . . . . . . . . . . . . . . . . u v w x x x . y z A t x x x B C u . ",
". . . . . . . . . . . . . . . . . . . . . . . . D v E F F F G k H I J F F F K v D . ",
". . . . . . . . . . . . . . . . . . . . . . . . m L M N O G P t Q R S T O U V L m . ",
". . . . . . . . . . . . . . . . . . . . . . . . W b X Y Z `  ...Z W +.@.Z Y #.b W . ",
"$.$.$.$.$.$.$.$.$.$.$.$.$.$.$.$.$.$.$.$.$.$.$.$.%.&.*.=.-.;.>.,.,.,.'.).!.~.*.&.%.$.",
"= = = = = = = = = = = = = = = = = = = = = = = = {.].^./.(._.:.<.<.<.[.}.|./.^.].{.= ",
"= = = = = = = = = = = = = = = = = = = = = = = = {.{.].1.2.3.J 4.5.6.7.8.2.1.].{.{.= ",
"= = = = = = = = = = = = = = = = = = = = = = = = {.{.{.< 9.0.a.b.c.b.a.0.9.< {.{.{.= ",
"{.= = = {.= = = {.= = = {.= = = = = {.= = = {.= {.{.d.{.+ < e.f.g.f.h.< ..{.{.{.d.= ",
"i.i.i.i.i.i.i.i.i.i.i.i.i.i.i.i.i.i.i.i.i.i.i.i.i.i.i.i.i.i.i.i.i.i.i.i.i.i.i.i.i.i.",
". . . . . . . . . . . . . . . . . . . . . . . . . . . . . . . . . . . . . . . . . . ",
". . . . . . . . . . . . . . . . . . . . . . . . . . . . + @ # $ % & * @ + . . . . . ",
". . . . . . . . . . . . . . . . . . . . . . . . . . = - ; > , ' ) , ) ! ~ - = . . . ",
". . . . . . . . . . . . . . . . . . . . . . . . . = { ] ^ / ( ^ ^ ^ ( _ ^ : { = . . ",
". . . . . . . . . . . . . . . . . . . . . . . . . < [ } | 1 1 1 1 1 1 1 2 3 4 < . . ",
". . . . . . . . . . . . . . . . . . . . . . . . 5 6 7 8 9 0 a 9 9 9 b c 9 8 d 6 5 . ",
". . . . . . . . . . . . . . . . . . . . . . . . e f ! . = g h i = j k l = . = f e . ",
". . . . . . . . . . . . . . . . . . . . . . . . m n o p p q 8 h r s t 9 p p 9 n m . ",
". . . . . . . . . . . . . . . . . . . . . . . . u v w x x x . y z A t x x x B C u . ",
". . . . . . . . . . . . . . . . . . . . . . . . D v E F F F G k H I J F F F K v D . ",
". . . . . . . . . . . . . . . . . . . . . . . . m L M N O G P t Q R S T O U V L m . ",
". . . . . . . . . . . . . . . . . . . . . . . . W b X Y Z `  ...Z W +.@.Z Y #.b W . ",
"$.$.$.$.$.$.$.$.$.$.$.$.$.$.$.$.$.$.$.$.$.$.$.$.%.&.*.=.-.;.>.,.,.,.'.).!.~.*.&.%.$.",
"= = = = = = = = = = = = = = = = = = = = = = = = {.].^./.(._.:.<.<.<.[.}.|./.^.].{.= ",
"= = = = = = = = = = = = = = = = = = = = = = = = {.{.].1.2.3.J 4.5.6.7.8.2.1.].{.{.= ",
"= = = = = = = = = = = = = = = = = = = = = = = = {.{.{.< 9.0.a.b.c.b.a.0.9.< {.{.{.= ",
"{.= = = {.= = = {.= = = {.= = = = = {.= = = {.= {.{.d.{.+ < e.f.g.f.h.< ..{.{.{.d.= ",
"i.i.i.i.i.i.i.i.i.i.i.i.i.i.i.i.i.i.i.i.i.i.i.i.i.i.i.i.i.i.i.i.i.i.i.i.i.i.i.i.i.i."};
