/* XPM */
static char * closeA_xpm[] = {
"42 36 142 2",
"  	c None",
". 	c #F5F5F5",
"+ 	c #F1F1F1",
"@ 	c #E5E6E6",
"# 	c #DBDBDC",
"$ 	c #E2E4E4",
"% 	c #E7E9E9",
"& 	c #DCDBDB",
"* 	c #F4F4F4",
"= 	c #EDEDED",
"- 	c #D8D7D7",
"; 	c #F5F6F6",
"> 	c #F8F9FA",
", 	c #F8FAF9",
"' 	c #F9FAFA",
") 	c #F4F6F5",
"! 	c #D7D8D7",
"~ 	c #EAEBEB",
"{ 	c #D4D4D5",
"] 	c #F7F8F8",
"^ 	c #F8F8F9",
"/ 	c #F8F8F8",
"( 	c #F8F9F9",
"_ 	c #D4D4D3",
": 	c #F0F0F0",
"< 	c #CECECE",
"[ 	c #F6F7F6",
"} 	c #F7F7F8",
"| 	c #F7F7F6",
"1 	c #F7F8F6",
"2 	c #F6F6F7",
"3 	c #CECFCE",
"4 	c #DDDDDC",
"5 	c #DEDFDF",
"6 	c #F6F7F7",
"7 	c #F5F6F5",
"8 	c #6D6D6C",
"9 	c #858586",
"0 	c #939292",
"a 	c #626261",
"b 	c #DCDBDC",
"c 	c #CBCCCB",
"d 	c #F4F5F5",
"e 	c #E1E3E3",
"f 	c #3A3837",
"g 	c #807F7F",
"h 	c #8D8D8C",
"i 	c #323231",
"j 	c #DCDCDD",
"k 	c #EFEFEF",
"l 	c #C2C2C2",
"m 	c #F6F5F5",
"n 	c #EFEEEE",
"o 	c #F6F5F6",
"p 	c #EFF1F2",
"q 	c #4F4F4D",
"r 	c #323131",
"s 	c #E7E9EA",
"t 	c #BEBEBE",
"u 	c #E9E8E7",
"v 	c #89898A",
"w 	c #1F1F1E",
"x 	c #787978",
"y 	c #F5F5F6",
"z 	c #F5F5F4",
"A 	c #BDBDBD",
"B 	c #EBEBEC",
"C 	c #EDEDEF",
"D 	c #E4E1E1",
"E 	c #817F7F",
"F 	c #CED2D2",
"G 	c #3A3938",
"H 	c #767473",
"I 	c #EDEDEE",
"J 	c #C4C4C4",
"K 	c #D9D9D9",
"L 	c #E1DFDD",
"M 	c #DEDBDA",
"N 	c #878484",
"O 	c #2F2F2F",
"P 	c #E6E8E9",
"Q 	c #F7F6F5",
"R 	c #EEF0F1",
"S 	c #373534",
"T 	c #7B7977",
"U 	c #E2DFDD",
"V 	c #D7D6D7",
"W 	c #F1F1F2",
"X 	c #D2D2D2",
"Y 	c #A6A5A6",
"Z 	c #E5E3E2",
"` 	c #D9D5D4",
" .	c #A4A2A1",
"..	c #E6E9EA",
"+.	c #ECEBEB",
"@.	c #EEF1F2",
"#.	c #A09D9B",
"$.	c #E6E4E3",
"%.	c #A1A1A1",
"&.	c #F5F4F4",
"*.	c #E7E6E6",
"=.	c #BEBDBD",
"-.	c #BBBBB9",
";.	c #DCD9D8",
">.	c #F4F3F3",
",.	c #EBEAE8",
"'.	c #D3CFCC",
").	c #E8E6E4",
"!.	c #F4F5F3",
"~.	c #DDDAD8",
"{.	c #B8B7B5",
"].	c #F3F3F3",
"^.	c #F0EFEF",
"/.	c #D7D6D6",
"(.	c #ABAAAA",
"_.	c #B4B1B1",
":.	c #D8D5D6",
"<.	c #D2CDCC",
"[.	c #CEC8C7",
"}.	c #D2CECC",
"|.	c #D9D6D6",
"1.	c #AFAEAE",
"2.	c #D5D4D5",
"3.	c #B6B6B5",
"4.	c #898888",
"5.	c #B8B7B6",
"6.	c #D0CFCF",
"7.	c #D3D0D1",
"8.	c #CFCECD",
"9.	c #B6B4B5",
"0.	c #888887",
"a.	c #DFDFDE",
"b.	c #C9C8C9",
"c.	c #BBBBBA",
"d.	c #9F9E9F",
"e.	c #969696",
"f.	c #F2F2F2",
"g.	c #E6E6E6",
"h.	c #DCDCDC",
"i.	c #E7E7E7",
"j.	c #E8E7E7",
"k.	c #000000",
". . . . . . . . . . . . . . . . . . . . . . . . . . . . . . . . . . . . . . . . . . ",
". . . . . . . . . . . . . . . . . . . . . . . . . . . . + @ # $ % $ & @ + . . . . . ",
". . . . . . . . . . . . . . . . . . . . . . . . . . * = - ; > , ' > ' ) ! = * . . . ",
". . . . . . . . . . . . . . . . . . . . . . . . . * ~ { ] ^ / ] ] ] / ( ] _ ~ * . . ",
". . . . . . . . . . . . . . . . . . . . . . . . . : < [ } | | | | | | | 1 2 3 : . . ",
". . . . . . . . . . . . . . . . . . . . . . . . * 4 5 6 7 8 9 7 7 7 0 a 7 6 b 4 . . ",
". . . . . . . . . . . . . . . . . . . . . . . . + c d . * e f g * h i j * . * c . . ",
". . . . . . . . . . . . . . . . . . . . . . . . k l m n n o p f q r s 7 n n 7 l . . ",
". . . . . . . . . . . . . . . . . . . . . . . . ~ t d u u u . v w x y u u u z A . . ",
". . . . . . . . . . . . . . . . . . . . . . . . B t C D D D E i F G H D D D I t . . ",
". . . . . . . . . . . . . . . . . . . . . . . . k J K L M N O P Q R S T M U V J . . ",
". . . . . . . . . . . . . . . . . . . . . . . . W X Y Z `  ...k ` +.@.#.` $.%.X . . ",
"&.&.&.&.&.&.&.&.&.&.&.&.&.&.&.&.&.&.&.&.&.&.&.&.&.*.=.-.;.>.,.'.'.'.).!.~.{.=.*.&.&.",
"* * * * * * * * * * * * * * * * * * * * * * * * ].^./.(._.:.<.[.[.[.}.|.1.(./.^.* * ",
"* * * * * * * * * * * * * * * * * * * * * * * * ].].^.2.3.4.5.6.7.8.9.0.3.2.^.].* * ",
"* * * * * * * * * * * * * * * * * * * * * * * * ].].].k a.b.c.d.e.d.c.b.a.k ].].* * ",
"].* * * ].* * * ].* * * ].* * * * * ].* * * ].* ].].f.].f.k g.h.K h.i.k + ].].].].* ",
"j.j.j.j.j.j.j.j.j.j.j.j.j.j.j.j.j.j.j.j.j.j.j.j.j.j.j.j.j.j.j.j.j.j.j.j.j.j.j.j.j.j.",
"k.k.k.k.k.k.k.k.k.k.k.k.k.k.k.k.k.k.k.k.k.k.k.k.k.k.k.k.k.k.k.k.k.k.k.k.k.k.k.k.k.k.",
"k.k.k.k.k.k.k.k.k.k.k.k.k.k.k.k.k.k.k.k.k.k.k.k.k.k.k.k.k.k.k.k.k.k.k.k.k.k.k.k.k.k.",
"k.k.k.k.k.k.k.k.k.k.k.k.k.k.k.k.k.k.k.k.k.k.k.k.k.k.k.k.k.k.k.k.k.k.k.k.k.k.k.k.k.k.",
"k.k.k.k.k.k.k.k.k.k.k.k.k.k.k.k.k.k.k.k.k.k.k.k.k.k.k.k.k.k.k.k.k.k.k.k.k.k.k.k.k.k.",
"k.k.k.k.k.k.k.k.k.k.k.k.k.k.k.k.k.k.k.k.k.k.k.k.k.k.k.k.k.k.k.k.k.k.k.k.k.k.k.k.k.k.",
"k.k.k.k.k.k.k.k.k.k.k.k.k.k.k.k.k.k.k.k.k.k.k.k.k.k.k.k.k.k.k.k.k.k.k.k.k.k.k.k.k.k.",
"k.k.k.k.k.k.k.k.k.k.k.k.k.k.k.k.k.k.k.k.k.k.k.k.k.k.k.k.k.k.k.k.k.k.k.k.k.k.k.k.k.k.",
"k.k.k.k.k.k.k.k.k.k.k.k.k.k.k.k.k.k.k.k.k.k.k.k.k.k.k.k.k.k.k.k.k.k.k.k.k.k.k.k.k.k.",
"k.k.k.k.k.k.k.k.k.k.k.k.k.k.k.k.k.k.k.k.k.k.k.k.k.k.k.k.k.k.k.k.k.k.k.k.k.k.k.k.k.k.",
"k.k.k.k.k.k.k.k.k.k.k.k.k.k.k.k.k.k.k.k.k.k.k.k.k.k.k.k.k.k.k.k.k.k.k.k.k.k.k.k.k.k.",
"k.k.k.k.k.k.k.k.k.k.k.k.k.k.k.k.k.k.k.k.k.k.k.k.k.k.k.k.k.k.k.k.k.k.k.k.k.k.k.k.k.k.",
"k.k.k.k.k.k.k.k.k.k.k.k.k.k.k.k.k.k.k.k.k.k.k.k.k.k.k.k.k.k.k.k.k.k.k.k.k.k.k.k.k.k.",
"k.k.k.k.k.k.k.k.k.k.k.k.k.k.k.k.k.k.k.k.k.k.k.k.k.k.k.k.k.k.k.k.k.k.k.k.k.k.k.k.k.k.",
"k.k.k.k.k.k.k.k.k.k.k.k.k.k.k.k.k.k.k.k.k.k.k.k.k.k.k.k.k.k.k.k.k.k.k.k.k.k.k.k.k.k.",
"k.k.k.k.k.k.k.k.k.k.k.k.k.k.k.k.k.k.k.k.k.k.k.k.k.k.k.k.k.k.k.k.k.k.k.k.k.k.k.k.k.k.",
"k.k.k.k.k.k.k.k.k.k.k.k.k.k.k.k.k.k.k.k.k.k.k.k.k.k.k.k.k.k.k.k.k.k.k.k.k.k.k.k.k.k.",
"k.k.k.k.k.k.k.k.k.k.k.k.k.k.k.k.k.k.k.k.k.k.k.k.k.k.k.k.k.k.k.k.k.k.k.k.k.k.k.k.k.k.",
"k.k.k.k.k.k.k.k.k.k.k.k.k.k.k.k.k.k.k.k.k.k.k.k.k.k.k.k.k.k.k.k.k.k.k.k.k.k.k.k.k.k."};
