/* XPM */
static char * frameAT_xpm[] = {
"2 4 4 1",
" 	c None",
".	c #6A8EB8",
"+	c #BDD2E9",
"@	c #F5F5F5",
"..",
"++",
"@@",
"@@"};
