/* XPM */
static char * frameABL_xpm[] = {
"22 21 25 1",
" 	c None",
".	c #6A8EB8",
"+	c #BED2E9",
"@	c #F1F1F1",
"#	c #BDD1E8",
"$	c #BCD0E8",
"%	c #BDD0E8",
"&	c #F2F1F1",
"*	c #BDD2E9",
"=	c #F2F2F2",
"-	c #BCD1E8",
";	c #BDD2E8",
">	c #B6CEE6",
",	c #7D9BBF",
"'	c #B3CBE5",
")	c #F1F2F2",
"!	c #A2BCD9",
"~	c #DFE6EE",
"{	c #92ADCA",
"]	c #B0C8E2",
"^	c #B3CBE6",
"/	c #B6CEE7",
"(	c #7F9DC0",
"_	c #698EB7",
":	c #698DB7",
".+@@                  ",
".+@@                  ",
".#@@                  ",
".#@@                  ",
".#@@                  ",
".$@@                  ",
".%&&                  ",
".*==                  ",
".-==                  ",
".-==                  ",
".;==                  ",
".;==                  ",
".*==                  ",
".*==                  ",
".*==                  ",
".>==                  ",
",')=                  ",
" !~=                  ",
" {]~)=================",
"  {!^/****************",
"    (_:..............."};
