/* XPM */
static char * frameAB_xpm[] = {
"2 4 4 1",
" 	c None",
".	c #F2F2F2",
"+	c #BDD2E9",
"@	c #6A8EB8",
"..",
"..",
"++",
"@@"};
