/* XPM */
static char * maximizeA_xpm[] = {
"23 36 129 2",
"  	c None",
". 	c #F5F5F5",
"+ 	c #F1F1F1",
"@ 	c #E5E6E6",
"# 	c #DBDBDC",
"$ 	c #E2E4E4",
"% 	c #E7E9E9",
"& 	c #DCDBDB",
"* 	c #F4F4F4",
"= 	c #EDEDED",
"- 	c #D8D7D7",
"; 	c #F5F6F6",
"> 	c #F8F9FA",
", 	c #F8FAF9",
"' 	c #F9FAFA",
") 	c #F4F6F5",
"! 	c #D7D8D7",
"~ 	c #EAEBEB",
"{ 	c #D4D4D5",
"] 	c #F7F8F8",
"^ 	c #F8F8F9",
"/ 	c #F8F8F8",
"( 	c #F8F9F9",
"_ 	c #D4D4D3",
": 	c #F0F0F0",
"< 	c #CECECE",
"[ 	c #F6F7F6",
"} 	c #F7F7F8",
"| 	c #F7F7F6",
"1 	c #F7F8F6",
"2 	c #F6F6F7",
"3 	c #CECFCE",
"4 	c #DDDDDC",
"5 	c #DEDFDF",
"6 	c #F6F7F7",
"7 	c #F5F6F5",
"8 	c #F0F1F1",
"9 	c #DCDBDC",
"0 	c #CBCCCB",
"a 	c #F4F5F5",
"b 	c #B1B1B0",
"c 	c #201E1C",
"d 	c #A4A4A3",
"e 	c #EFEFEF",
"f 	c #C2C2C2",
"g 	c #F6F5F5",
"h 	c #EFEEEE",
"i 	c #ADABAB",
"j 	c #2B2928",
"k 	c #A5A7A6",
"l 	c #2C2C2B",
"m 	c #A1A09F",
"n 	c #BEBEBE",
"o 	c #E9E8E7",
"p 	c #A9A7A6",
"q 	c #292827",
"r 	c #C7CAC9",
"s 	c #F9F8F9",
"t 	c #D4D6D6",
"u 	c #2A2928",
"v 	c #9E9B9A",
"w 	c #F5F5F4",
"x 	c #BDBDBD",
"y 	c #EBEBEC",
"z 	c #EDEDEF",
"A 	c #E4E1E1",
"B 	c #8D8B8B",
"C 	c #F7F6F6",
"D 	c #F6F5F6",
"E 	c #D2D5D5",
"F 	c #878585",
"G 	c #EDEDEE",
"H 	c #C4C4C4",
"I 	c #D9D9D9",
"J 	c #E1DFDD",
"K 	c #DEDBDA",
"L 	c #F7F6F8",
"M 	c #E2DFDD",
"N 	c #D7D6D7",
"O 	c #F5F4F4",
"P 	c #F1F0F1",
"Q 	c #D2D1D1",
"R 	c #A6A4A5",
"S 	c #E5E2E1",
"T 	c #D9D4D3",
"U 	c #DAD6D5",
"V 	c #E6E3E2",
"W 	c #A1A0A1",
"X 	c #E6E6E6",
"Y 	c #BBBBB9",
"Z 	c #DCD9D8",
"` 	c #D2CFCC",
" .	c #DCDAD8",
"..	c #B7B7B5",
"+.	c #F3F3F3",
"@.	c #F0EFEF",
"#.	c #D7D6D6",
"$.	c #ABAAAA",
"%.	c #B4B1B1",
"&.	c #D8D5D6",
"*.	c #D2CDCC",
"=.	c #CEC8C7",
"-.	c #D2CECC",
";.	c #D9D6D6",
">.	c #AFAEAE",
",.	c #D5D4D5",
"'.	c #B6B6B5",
").	c #898888",
"!.	c #B8B7B6",
"~.	c #D0CFCF",
"{.	c #D3D0D1",
"].	c #CFCECD",
"^.	c #B6B4B5",
"/.	c #888887",
"(.	c #F2F2F2",
"_.	c #DFDFDE",
":.	c #C8C8C8",
"<.	c #BBBBBA",
"[.	c #9F9E9F",
"}.	c #969696",
"|.	c #9E9E9E",
"1.	c #C9C8C9",
"2.	c #E8E7E7",
"3.	c #E7E6E6",
"4.	c #E6E5E5",
"5.	c #E3E2E2",
"6.	c #D1D0D0",
"7.	c #CFCDCD",
"8.	c #010101",
". . . . . . . . . . . . . . . . . . . . . . . ",
". . . . . . . . . . . . . . . . . . . . . . . ",
". . . . . . . + @ # $ % $ & @ + . . . . . . . ",
". . . . . * = - ; > , ' > ' ) ! = * . . . . . ",
". . . . * ~ { ] ^ / ] ] ] / ( ] _ ~ * . . . . ",
". . . . : < [ } | | | | | | | 1 2 3 : . . . . ",
". . . * 4 5 6 7 7 7 7 8 7 7 7 7 6 9 4 * . . . ",
". . . + 0 a . * * * b c d * * * . * 0 + . . . ",
". . . e f g h h h i j k l m h h h 7 f e . . . ",
". . . ~ n a o o p q r s t u v o o w x ~ . . . ",
". . . y n z A A B r C A D E F A A G n y . . . ",
". . . e H I J K C D K K K . L K M N H e . . . ",
"O O O P Q R S T U T T T T T U T V W Q P O O O ",
"* * * * X x Y Z ` ` ` ` ` ` `  ...x X * * * * ",
"* * * +.@.#.$.%.&.*.=.=.=.-.;.>.$.#.@.+.* * * ",
"* * * +.+.@.,.'.).!.~.{.].^./.'.,.@.+.+.* * * ",
"+.* * +.(.+.e _.:.<.[.}.|.<.1._.e +.(.+.* * +.",
"2.2.2.3.3.3.3.4.5.& 6.7.6.& 5.4.3.3.3.3.2.2.2.",
"8.8.8.8.8.8.8.8.8.8.8.8.8.8.8.8.8.8.8.8.8.8.8.",
"8.8.8.8.8.8.8.8.8.8.8.8.8.8.8.8.8.8.8.8.8.8.8.",
"8.8.8.8.8.8.8.8.8.8.8.8.8.8.8.8.8.8.8.8.8.8.8.",
"8.8.8.8.8.8.8.8.8.8.8.8.8.8.8.8.8.8.8.8.8.8.8.",
"8.8.8.8.8.8.8.8.8.8.8.8.8.8.8.8.8.8.8.8.8.8.8.",
"8.8.8.8.8.8.8.8.8.8.8.8.8.8.8.8.8.8.8.8.8.8.8.",
"8.8.8.8.8.8.8.8.8.8.8.8.8.8.8.8.8.8.8.8.8.8.8.",
"8.8.8.8.8.8.8.8.8.8.8.8.8.8.8.8.8.8.8.8.8.8.8.",
"8.8.8.8.8.8.8.8.8.8.8.8.8.8.8.8.8.8.8.8.8.8.8.",
"8.8.8.8.8.8.8.8.8.8.8.8.8.8.8.8.8.8.8.8.8.8.8.",
"8.8.8.8.8.8.8.8.8.8.8.8.8.8.8.8.8.8.8.8.8.8.8.",
"8.8.8.8.8.8.8.8.8.8.8.8.8.8.8.8.8.8.8.8.8.8.8.",
"8.8.8.8.8.8.8.8.8.8.8.8.8.8.8.8.8.8.8.8.8.8.8.",
"8.8.8.8.8.8.8.8.8.8.8.8.8.8.8.8.8.8.8.8.8.8.8.",
"8.8.8.8.8.8.8.8.8.8.8.8.8.8.8.8.8.8.8.8.8.8.8.",
"8.8.8.8.8.8.8.8.8.8.8.8.8.8.8.8.8.8.8.8.8.8.8.",
"8.8.8.8.8.8.8.8.8.8.8.8.8.8.8.8.8.8.8.8.8.8.8.",
"8.8.8.8.8.8.8.8.8.8.8.8.8.8.8.8.8.8.8.8.8.8.8."};
