/* XPM */
static char * maximizeI_xpm[] = {
"23 36 127 2",
"  	c None",
". 	c #F5F5F5",
"+ 	c #F1F1F1",
"@ 	c #E5E6E6",
"# 	c #DBDBDC",
"$ 	c #E2E4E4",
"% 	c #E7E9E9",
"& 	c #DCDBDB",
"* 	c #F4F4F4",
"= 	c #EDEDED",
"- 	c #D8D7D7",
"; 	c #F5F6F6",
"> 	c #F8F9FA",
", 	c #F8FAF9",
"' 	c #F9FAFA",
") 	c #F4F6F5",
"! 	c #D7D8D7",
"~ 	c #EAEBEB",
"{ 	c #D4D4D5",
"] 	c #F7F8F8",
"^ 	c #F8F8F9",
"/ 	c #F8F8F8",
"( 	c #F8F9F9",
"_ 	c #D4D4D3",
": 	c #F0F0F0",
"< 	c #CECECE",
"[ 	c #F6F7F6",
"} 	c #F7F7F8",
"| 	c #F7F7F6",
"1 	c #F7F8F6",
"2 	c #F6F6F7",
"3 	c #CECFCE",
"4 	c #DDDDDC",
"5 	c #DEDFDF",
"6 	c #F6F7F7",
"7 	c #F5F6F5",
"8 	c #F4F5F5",
"9 	c #DCDBDC",
"0 	c #CBCCCB",
"a 	c #D7D6D6",
"b 	c #949393",
"c 	c #CFCECE",
"d 	c #EFEFEF",
"e 	c #C2C2C2",
"f 	c #F6F5F5",
"g 	c #EFEEEE",
"h 	c #D2D0D0",
"i 	c #9A9897",
"j 	c #D6D9D8",
"k 	c #999998",
"l 	c #CDCDCB",
"m 	c #BEBEBE",
"n 	c #E9E8E7",
"o 	c #CECDCB",
"p 	c #989695",
"q 	c #E8EAEA",
"r 	c #F9F8F9",
"s 	c #EFF1F2",
"t 	c #989897",
"u 	c #CAC8C6",
"v 	c #F5F5F4",
"w 	c #BDBDBD",
"x 	c #EBEBEC",
"y 	c #EDEDEF",
"z 	c #E4E1E1",
"A 	c #C2C0C0",
"B 	c #E7EAEA",
"C 	c #F7F6F6",
"D 	c #F6F5F6",
"E 	c #EDF1F0",
"F 	c #BFBEBE",
"G 	c #EDEDEE",
"H 	c #C4C4C4",
"I 	c #D9D9D9",
"J 	c #E1DFDD",
"K 	c #DEDBDA",
"L 	c #F7F6F8",
"M 	c #E2DFDD",
"N 	c #D7D6D7",
"O 	c #F5F4F4",
"P 	c #F1F0F1",
"Q 	c #D2D1D1",
"R 	c #A6A4A5",
"S 	c #E5E2E1",
"T 	c #D9D4D3",
"U 	c #DAD6D5",
"V 	c #E6E3E2",
"W 	c #A1A0A1",
"X 	c #E6E6E6",
"Y 	c #BBBBB9",
"Z 	c #DCD9D8",
"` 	c #D2CFCC",
" .	c #DCDAD8",
"..	c #B7B7B5",
"+.	c #F3F3F3",
"@.	c #F0EFEF",
"#.	c #ABAAAA",
"$.	c #B4B1B1",
"%.	c #D8D5D6",
"&.	c #D2CDCC",
"*.	c #CEC8C7",
"=.	c #D2CECC",
"-.	c #D9D6D6",
";.	c #AFAEAE",
">.	c #D5D4D5",
",.	c #B6B6B5",
"'.	c #898888",
").	c #B8B7B6",
"!.	c #D0CFCF",
"~.	c #D3D0D1",
"{.	c #CFCECD",
"].	c #B6B4B5",
"^.	c #888887",
"/.	c #F2F2F2",
"(.	c #DFDFDE",
"_.	c #C8C8C8",
":.	c #BBBBBA",
"<.	c #9F9E9F",
"[.	c #969696",
"}.	c #9E9E9E",
"|.	c #C9C8C9",
"1.	c #E8E7E7",
"2.	c #E7E6E6",
"3.	c #E6E5E5",
"4.	c #E3E2E2",
"5.	c #D1D0D0",
"6.	c #CFCDCD",
". . . . . . . . . . . . . . . . . . . . . . . ",
". . . . . . . . . . . . . . . . . . . . . . . ",
". . . . . . . + @ # $ % $ & @ + . . . . . . . ",
". . . . . * = - ; > , ' > ' ) ! = * . . . . . ",
". . . . * ~ { ] ^ / ] ] ] / ( ] _ ~ * . . . . ",
". . . . : < [ } | | | | | | | 1 2 3 : . . . . ",
". . . * 4 5 6 7 7 7 7 8 7 7 7 7 6 9 4 * . . . ",
". . . + 0 8 . * * * a b c * * * . * 0 + . . . ",
". . . d e f g g g h i j k l g g g 7 e d . . . ",
". . . ~ m 8 n n o p q r s t u n n v w ~ . . . ",
". . . x m y z z A B C z D E F z z G m x . . . ",
". . . d H I J K C D K K K . L K M N H d . . . ",
"O O O P Q R S T U T T T T T U T V W Q P O O O ",
"* * * * X w Y Z ` ` ` ` ` ` `  ...w X * * * * ",
"* * * +.@.a #.$.%.&.*.*.*.=.-.;.#.a @.+.* * * ",
"* * * +.+.@.>.,.'.).!.~.{.].^.,.>.@.+.+.* * * ",
"+.* * +./.+.d (._.:.<.[.}.:.|.(.d +./.+.* * +.",
"1.1.1.2.2.2.2.3.4.& 5.6.5.& 4.3.2.2.2.2.1.1.1.",
". . . . . . . . . . . . . . . . . . . . . . . ",
". . . . . . . . . . . . . . . . . . . . . . . ",
". . . . . . . + @ # $ % $ & @ + . . . . . . . ",
". . . . . * = - ; > , ' > ' ) ! = * . . . . . ",
". . . . * ~ { ] ^ / ] ] ] / ( ] _ ~ * . . . . ",
". . . . : < [ } | | | | | | | 1 2 3 : . . . . ",
". . . * 4 5 6 7 7 7 7 8 7 7 7 7 6 9 4 * . . . ",
". . . + 0 8 . * * * a b c * * * . * 0 + . . . ",
". . . d e f g g g h i j k l g g g 7 e d . . . ",
". . . ~ m 8 n n o p q r s t u n n v w ~ . . . ",
". . . x m y z z A B C z D E F z z G m x . . . ",
". . . d H I J K C D K K K . L K M N H d . . . ",
"O O O P Q R S T U T T T T T U T V W Q P O O O ",
"* * * * X w Y Z ` ` ` ` ` ` `  ...w X * * * * ",
"* * * +.@.a #.$.%.&.*.*.*.=.-.;.#.a @.+.* * * ",
"* * * +.+.@.>.,.'.).!.~.{.].^.,.>.@.+.+.* * * ",
"+.* * +./.+.d (._.:.<.[.}.:.|.(.d +./.+.* * +.",
"1.1.1.2.2.2.2.3.4.& 5.6.5.& 4.3.2.2.2.2.1.1.1."};
