/* XPM */
static char * maximizeO_xpm[] = {
"23 36 235 2",
"  	c None",
". 	c #F5F5F5",
"+ 	c #F1F4F4",
"@ 	c #E5F2F3",
"# 	c #DAEFF6",
"$ 	c #DEF3F7",
"% 	c #E1F5F7",
"& 	c #DCEFF5",
"* 	c #F4F4F4",
"= 	c #EDF3F2",
"- 	c #D9F0F5",
"; 	c #EDF7F9",
"> 	c #F8F9FA",
", 	c #F8FAF9",
"' 	c #F9FAFA",
") 	c #ECF7F9",
"! 	c #D8F0F5",
"~ 	c #EAF2F3",
"{ 	c #D4EFF5",
"] 	c #F5F9F8",
"^ 	c #F8F8F9",
"/ 	c #F8F8F8",
"( 	c #F7F8F8",
"_ 	c #F8F9F9",
": 	c #F5F8F9",
"< 	c #D4EFF4",
"[ 	c #F0F4F4",
"} 	c #CEECF1",
"| 	c #F4F8F6",
"1 	c #F7F7F8",
"2 	c #F7F7F6",
"3 	c #F7F8F6",
"4 	c #F3F7F8",
"5 	c #CEEDF1",
"6 	c #DCEDF1",
"7 	c #DCF2F6",
"8 	c #F6F7F7",
"9 	c #F5F6F5",
"0 	c #EBF4F6",
"a 	c #DAF0F6",
"b 	c #F1F1F1",
"c 	c #CBEAF0",
"d 	c #EFF6F7",
"e 	c #A8E1EF",
"f 	c #01B8E4",
"g 	c #98DDED",
"h 	c #EEF5F7",
"i 	c #EFEFEF",
"j 	c #C2E8F1",
"k 	c #F6F6F6",
"l 	c #EFEEEE",
"m 	c #A3DCEB",
"n 	c #0FBAE5",
"o 	c #96E5F9",
"p 	c #11BCE5",
"q 	c #96DBEA",
"r 	c #F5F6F6",
"s 	c #EAEBEB",
"t 	c #BEE7F0",
"u 	c #F4F5F5",
"v 	c #E9E8E7",
"w 	c #A0D9E5",
"x 	c #0DBAE3",
"y 	c #BAEDF9",
"z 	c #F9F8F9",
"A 	c #C4EFF9",
"B 	c #0EBAE5",
"C 	c #93D6E5",
"D 	c #F4F5F4",
"E 	c #BDE5F0",
"F 	c #EBEBEC",
"G 	c #EDF2F4",
"H 	c #E4E1E1",
"I 	c #7FD1E5",
"J 	c #F7F6F6",
"K 	c #F6F5F6",
"L 	c #C3F0F9",
"M 	c #79D1E6",
"N 	c #C4E9F0",
"O 	c #DAECF0",
"P 	c #E1DFDD",
"Q 	c #DEDBDA",
"R 	c #F7F6F8",
"S 	c #E2DFDD",
"T 	c #D8EBF0",
"U 	c #F5F4F4",
"V 	c #F1F0F1",
"W 	c #D2EAF0",
"X 	c #A6DEEC",
"Y 	c #E5E7E6",
"Z 	c #D9D4D3",
"` 	c #DAD6D5",
" .	c #E6E7E7",
"..	c #A1DCEC",
"+.	c #E6F1F3",
"@.	c #BEE6EE",
"#.	c #BAE0E8",
"$.	c #DCDBDB",
"%.	c #D2CFCC",
"&.	c #DDDDDC",
"*.	c #B7E0E9",
"=.	c #F3F3F3",
"-.	c #F0F2F2",
";.	c #D7EBF0",
">.	c #ABE0EE",
",.	c #B3DDE7",
"'.	c #D9DDE0",
").	c #D2CDCC",
"!.	c #CEC8C7",
"~.	c #D2CECC",
"{.	c #D9DFE1",
"].	c #AEDCE7",
"^.	c #F0F3F3",
"/.	c #D5EBEF",
"(.	c #B6E5ED",
"_.	c #89D9EA",
":.	c #B8DBE4",
"<.	c #D0E0E4",
"[.	c #D3E0E4",
"}.	c #D0E0E3",
"|.	c #B7DBE5",
"1.	c #88D8EA",
"2.	c #F2F2F2",
"3.	c #EFF2F2",
"4.	c #DFEEF1",
"5.	c #C9E8EE",
"6.	c #BAE5EE",
"7.	c #9EDDED",
"8.	c #96DCED",
"9.	c #C9E8EF",
"0.	c #E8E7E7",
"a.	c #E7E6E6",
"b.	c #E6E6E5",
"c.	c #E3E6E6",
"d.	c #DCE4E6",
"e.	c #D1E1E4",
"f.	c #CFE0E4",
"g.	c #E5E6E6",
"h.	c #D2D2D3",
"i.	c #CAC9C8",
"j.	c #CBC9C7",
"k.	c #CBCAC7",
"l.	c #D3D2D3",
"m.	c #EDEDED",
"n.	c #D1CFD0",
"o.	c #DBDAD9",
"p.	c #F5F4F6",
"q.	c #F5F5F6",
"r.	c #D1D0D0",
"s.	c #CACAC9",
"t.	c #D7D3D1",
"u.	c #D3CECC",
"v.	c #D8D3D1",
"w.	c #CACBC8",
"x.	c #F0F0F0",
"y.	c #CDCCCC",
"z.	c #F1F2F1",
"A.	c #E6E3E3",
"B.	c #D8D4D3",
"C.	c #E6E4E3",
"D.	c #CCCDCD",
"E.	c #D5D3D3",
"F.	c #DDDAD9",
"G.	c #D5D3D2",
"H.	c #D2D0D1",
"I.	c #CBCCCB",
"J.	c #F1F2F3",
"K.	c #E3E1DF",
"L.	c #A6A5A3",
"M.	c #201D1C",
"N.	c #999695",
"O.	c #E7E3E3",
"P.	c #C2C2C2",
"Q.	c #F5F5F4",
"R.	c #E8E6E5",
"S.	c #A7A5A5",
"T.	c #2A2928",
"U.	c #A5A6A6",
"V.	c #2C2A29",
"W.	c #9C9B9A",
"X.	c #BEBEBE",
"Y.	c #EEEDED",
"Z.	c #ABABAB",
"`.	c #292927",
" +	c #C7CACA",
".+	c #D5D6D7",
"++	c #A09F9F",
"@+	c #BDBDBD",
"#+	c #F0F0F2",
"$+	c #969493",
"%+	c #CACBCC",
"&+	c #F8F8F7",
"*+	c #F8F7F8",
"=+	c #D4D6D7",
"-+	c #8F8E8E",
";+	c #C4C4C4",
">+	c #DEDFDF",
",+	c #DBDBDC",
"'+	c #D2D1D1",
")+	c #A8A7A8",
"!+	c #F4F3F3",
"~+	c #F6F6F5",
"{+	c #A3A3A3",
"]+	c #E6E6E6",
"^+	c #C1C1C1",
"/+	c #F7F7F7",
"(+	c #BCBDBC",
"_+	c #F0EFEF",
":+	c #D7D6D6",
"<+	c #ABAAAA",
"[+	c #B9B8B9",
"}+	c #EBECEC",
"|+	c #F7F8F7",
"1+	c #F8F9F8",
"2+	c #E9EAEA",
"3+	c #B5B5B4",
"4+	c #D5D4D5",
"5+	c #B6B6B5",
"6+	c #898888",
"7+	c #BFBFC0",
"8+	c #D9D9D9",
"9+	c #DDDDDD",
"0+	c #D8D9D8",
"a+	c #BEBDBD",
"b+	c #888887",
"c+	c #DFDFDE",
"d+	c #C8C8C8",
"e+	c #BBBBBA",
"f+	c #9F9E9F",
"g+	c #969696",
"h+	c #9E9E9E",
"i+	c #C9C8C9",
"j+	c #E6E5E5",
"k+	c #E3E2E2",
"l+	c #CFCDCD",
". . . . . . . . . . . . . . . . . . . . . . . ",
". . . . . . . . . . . . . . . . . . . . . . . ",
". . . . . . . + @ # $ % $ & @ + . . . . . . . ",
". . . . . * = - ; > , ' > ' ) ! = * . . . . . ",
". . . . * ~ { ] ^ / ( ( ( / _ : < ~ * . . . . ",
". . . . [ } | 1 2 2 2 2 2 2 2 3 4 5 [ . . . . ",
". . . * 6 7 8 9 9 9 9 0 9 9 9 9 8 a 6 * . . . ",
". . . b c d . * * * e f g * * * . h c b . . . ",
". . . i j k l l l m n o p q l l l r j i . . . ",
". . . s t u v v w x y z A B C v v D E s . . . ",
". . . F t G H H I y J H K L M H H G t F . . . ",
". . . i N O P Q J K Q Q Q . R Q S T N i . . . ",
"U U U V W X Y Z ` Z Z Z Z Z ` Z  ...W V U U U ",
"* * * * +.@.#.$.%.%.%.%.%.%.%.&.*.@.+.* * * * ",
"* * * =.-.;.>.,.'.).!.!.!.~.{.].>.;.-.=.* * * ",
"* * * =.=.^./.(._.:.<.[.}.|.1.(./.^.=.=.* * * ",
"=.* * =.2.=.3.4.5.6.7.8.7.6.9.4.3.=.2.=.* * =.",
"0.0.0.a.a.a.a.b.c.d.e.f.e.d.c.b.a.a.a.a.0.0.0.",
". . . . . . . . . . . . . . . . . . . . . . . ",
". . . . . . . . . . . . . . . . . . . . . . . ",
". . . . . . . b g.h.i.j.k.l.g.b . . . . . . . ",
". . . . . * m.n.o.p.r q.r q.o.r.m.* . . . . . ",
". . . . * s s.* l t.u.u.u.v.i =.w.s * . . . . ",
". . . . x.y.z.A.B.B.B.B.B.B.B.C.x.D.x.. . . . ",
". . . * &.E.V F.F.F.F.G.F.F.F.F.=.H.&.* . . . ",
". . . b I.J.C.K.K.K.L.M.N.K.K.K.O.i I.b . . . ",
". . . i P.Q.R.R.R.S.T.U.V.W.R.R.R.Q.P.i . . . ",
". . . s X.. Y.Y.Z.`. +z .+T.++Y.Y.. @+s . . . ",
". . . F X.#+=.=.$+%+&+=.*+=+-+=.=.#+X.F . . . ",
". . . i ;+>+. . _ _ . . . / ^ . . ,+;+i . . . ",
"U U U V '+)+!+~+k ~+~+~+~+~+J ~+!+{+'+V U U U ",
"* * * * ]+@+^+. /+/+/+/+/+/+/+D (+@+]+* * * * ",
"* * * =._+:+<+[+}+|+1+1+1+|+2+3+<+:+_+=.* * * ",
"* * * =.=._+4+5+6+7+8+9+0+a+b+5+4+_+=.=.* * * ",
"=.* * =.2.=.i c+d+e+f+g+h+e+i+c+i =.2.=.* * =.",
"0.0.0.a.a.a.a.j+k+$.r.l+r.$.k+j+a.a.a.a.0.0.0."};
