/* XPM */
static char * menuButtonO_xpm[] = {
"23 36 202 2",
"  	c None",
". 	c #F5F5F5",
"+ 	c #F1F4F4",
"@ 	c #E5F2F3",
"# 	c #DAEFF6",
"$ 	c #DEF3F7",
"% 	c #E1F5F7",
"& 	c #DCEFF5",
"* 	c #F4F4F4",
"= 	c #EDF3F2",
"- 	c #D9F0F5",
"; 	c #EDF7F9",
"> 	c #F8F9FA",
", 	c #F8FAF9",
"' 	c #F9FAFA",
") 	c #ECF7F9",
"! 	c #D8F0F5",
"~ 	c #EAF2F3",
"{ 	c #D4EFF5",
"] 	c #F5F9F8",
"^ 	c #F8F8F9",
"/ 	c #F8F8F8",
"( 	c #F7F8F8",
"_ 	c #F8F9F9",
": 	c #F5F8F9",
"< 	c #D4EFF4",
"[ 	c #F0F4F4",
"} 	c #CEECF1",
"| 	c #F4F8F6",
"1 	c #F7F7F8",
"2 	c #F7F7F6",
"3 	c #F7F8F6",
"4 	c #F3F7F8",
"5 	c #CEEDF1",
"6 	c #DCEDF1",
"7 	c #DCF2F6",
"8 	c #F6F7F7",
"9 	c #F5F6F5",
"0 	c #DAF0F6",
"a 	c #CBEAF0",
"b 	c #EFF6F7",
"c 	c #EEF5F7",
"d 	c #EFF3F3",
"e 	c #C2E8F1",
"f 	c #F6F6F6",
"g 	c #EFEEEE",
"h 	c #DCE9ED",
"i 	c #F5F6F6",
"j 	c #BEE7F0",
"k 	c #F4F5F5",
"l 	c #E9E8E7",
"m 	c #72D0E5",
"n 	c #E7E7E7",
"o 	c #F4F5F4",
"p 	c #BDE5F0",
"q 	c #ECF2F2",
"r 	c #EDF2F4",
"s 	c #E4E1E1",
"t 	c #C4E9F0",
"u 	c #DAECF0",
"v 	c #E1DFDD",
"w 	c #DEDBDA",
"x 	c #E0DDDC",
"y 	c #E2DFDD",
"z 	c #D8EBF0",
"A 	c #F5F4F4",
"B 	c #F1F3F4",
"C 	c #D2EAF0",
"D 	c #A6DEEC",
"E 	c #E5E7E6",
"F 	c #D9D4D3",
"G 	c #E6E7E7",
"H 	c #A1DCEC",
"I 	c #E6F1F3",
"J 	c #BEE6EE",
"K 	c #BAE0E8",
"L 	c #DCDBDB",
"M 	c #D2CFCC",
"N 	c #DDDDDC",
"O 	c #B7E0E9",
"P 	c #F3F3F3",
"Q 	c #F0F2F2",
"R 	c #D7EBF0",
"S 	c #ABE0EE",
"T 	c #B3DDE7",
"U 	c #D9DDE0",
"V 	c #D2CDCC",
"W 	c #CEC8C7",
"X 	c #D2CECC",
"Y 	c #D9DFE1",
"Z 	c #AEDCE7",
"` 	c #F0F3F3",
" .	c #D5EBEF",
"..	c #B6E5ED",
"+.	c #89D9EA",
"@.	c #B8DBE4",
"#.	c #D0E0E4",
"$.	c #D3E0E4",
"%.	c #D0E0E3",
"&.	c #B7DBE5",
"*.	c #88D8EA",
"=.	c #F2F2F2",
"-.	c #EFF2F2",
";.	c #DFEEF1",
">.	c #C9E8EE",
",.	c #BAE5EE",
"'.	c #9EDDED",
").	c #96DCED",
"!.	c #C9E8EF",
"~.	c #E8E7E7",
"{.	c #E7E6E6",
"].	c #E6E6E5",
"^.	c #E3E6E6",
"/.	c #DCE4E6",
"(.	c #D1E1E4",
"_.	c #CFE0E4",
":.	c #F1F1F1",
"<.	c #E5E6E6",
"[.	c #D2D2D3",
"}.	c #CAC9C8",
"|.	c #CBC9C7",
"1.	c #CBCAC7",
"2.	c #D3D2D3",
"3.	c #EDEDED",
"4.	c #D1CFD0",
"5.	c #DBDAD9",
"6.	c #F5F4F6",
"7.	c #F5F5F6",
"8.	c #D1D0D0",
"9.	c #EAEBEB",
"0.	c #CACAC9",
"a.	c #D7D3D1",
"b.	c #D3CECC",
"c.	c #D8D3D1",
"d.	c #EFEFEF",
"e.	c #CACBC8",
"f.	c #F0F0F0",
"g.	c #CDCCCC",
"h.	c #F1F2F1",
"i.	c #E6E3E3",
"j.	c #D8D4D3",
"k.	c #E6E4E3",
"l.	c #CCCDCD",
"m.	c #D5D3D3",
"n.	c #F1F0F1",
"o.	c #DDDAD9",
"p.	c #D2D0D1",
"q.	c #CBCCCB",
"r.	c #F1F2F3",
"s.	c #E3E1DF",
"t.	c #E7E3E3",
"u.	c #C2C2C2",
"v.	c #F5F5F4",
"w.	c #E8E6E5",
"x.	c #D9D7D6",
"y.	c #BEBEBE",
"z.	c #EEEDED",
"A.	c #848281",
"B.	c #EBEAEA",
"C.	c #BDBDBD",
"D.	c #EBEBEC",
"E.	c #F0F0F2",
"F.	c #C4C4C4",
"G.	c #DEDFDF",
"H.	c #DBDBDC",
"I.	c #D2D1D1",
"J.	c #A8A7A8",
"K.	c #F4F3F3",
"L.	c #F6F6F5",
"M.	c #A3A3A3",
"N.	c #E6E6E6",
"O.	c #C1C1C1",
"P.	c #F7F7F7",
"Q.	c #BCBDBC",
"R.	c #F0EFEF",
"S.	c #D7D6D6",
"T.	c #ABAAAA",
"U.	c #B9B8B9",
"V.	c #EBECEC",
"W.	c #F7F8F7",
"X.	c #F8F9F8",
"Y.	c #E9EAEA",
"Z.	c #B5B5B4",
"`.	c #D5D4D5",
" +	c #B6B6B5",
".+	c #898888",
"++	c #BFBFC0",
"@+	c #D9D9D9",
"#+	c #DDDDDD",
"$+	c #D8D9D8",
"%+	c #BEBDBD",
"&+	c #888887",
"*+	c #DFDFDE",
"=+	c #C8C8C8",
"-+	c #BBBBBA",
";+	c #9F9E9F",
">+	c #969696",
",+	c #9E9E9E",
"'+	c #C9C8C9",
")+	c #E6E5E5",
"!+	c #E3E2E2",
"~+	c #CFCDCD",
". . . . . . . . . . . . . . . . . . . . . . . ",
". . . . . . . . . . . . . . . . . . . . . . . ",
". . . . . . . + @ # $ % $ & @ + . . . . . . . ",
". . . . . * = - ; > , ' > ' ) ! = * . . . . . ",
". . . . * ~ { ] ^ / ( ( ( / _ : < ~ * . . . . ",
". . . . [ } | 1 2 2 2 2 2 2 2 3 4 5 [ . . . . ",
". . . * 6 7 8 9 9 9 9 9 9 9 9 9 8 0 6 * . . . ",
". . . + a b . * * * * * * * * * . c a + . . . ",
". . . d e f g g g g g h g g g g g i e d . . . ",
". . . ~ j k l l l l l m n l l l l o p ~ . . . ",
". . . q j r s s s s s f s s s s s r j q . . . ",
". . . d t u v w w w w x w w w w y z t d . . . ",
"A A A B C D E F F F F F F F F F G H C B A A A ",
"* * * * I J K L M M M M M M M N O J I * * * * ",
"* * * P Q R S T U V W W W X Y Z S R Q P * * * ",
"* * * P P `  ...+.@.#.$.%.&.*... .` P P * * * ",
"P * * P =.P -.;.>.,.'.).'.,.!.;.-.P =.P * * P ",
"~.~.~.{.{.{.{.].^./.(._.(./.^.].{.{.{.{.~.~.~.",
". . . . . . . . . . . . . . . . . . . . . . . ",
". . . . . . . . . . . . . . . . . . . . . . . ",
". . . . . . . :.<.[.}.|.1.2.<.:.. . . . . . . ",
". . . . . * 3.4.5.6.i 7.i 7.5.8.3.* . . . . . ",
". . . . * 9.0.* g a.b.b.b.c.d.P e.9.* . . . . ",
". . . . f.g.h.i.j.j.j.j.j.j.j.k.f.l.f.. . . . ",
". . . * N m.n.o.o.o.o.o.o.o.o.o.P p.N * . . . ",
". . . :.q.r.k.s.s.s.s.s.s.s.s.s.t.d.q.:.. . . ",
". . . d.u.v.w.w.w.w.w.x.w.w.w.w.w.v.u.d.. . . ",
". . . 9.y.. z.z.z.z.z.A.B.z.z.z.z.. C.9.. . . ",
". . . D.y.E.P P P P P / P P P P P E.y.D.. . . ",
". . . d.F.G.. . . . . 9 . . . . . H.F.d.. . . ",
"A A A n.I.J.K.L.L.L.L.L.L.L.L.L.K.M.I.n.A A A ",
"* * * * N.C.O.. P.P.P.P.P.P.P.o Q.C.N.* * * * ",
"* * * P R.S.T.U.V.W.X.X.X.W.Y.Z.T.S.R.P * * * ",
"* * * P P R.`. +.+++@+#+$+%+&+ +`.R.P P * * * ",
"P * * P =.P d.*+=+-+;+>+,+-+'+*+d.P =.P * * P ",
"~.~.~.{.{.{.{.)+!+L 8.~+8.L !+)+{.{.{.{.~.~.~."};
