/* XPM */
static char * menubg_xpm[] = {
"404 8 21 1",
" 	c None",
".	c #BFBFBF",
"+	c #DEDDDD",
"@	c #EBEAEA",
"#	c #DBD9D9",
"$	c #E5E4E4",
"%	c #E9E9E9",
"&	c #C4C4C4",
"*	c #767676",
"=	c #777777",
"-	c #727272",
";	c #6D6D6D",
">	c #DDDDDD",
",	c #EAEAEA",
"'	c #DAD9D9",
")	c #E4E4E4",
"!	c #6B6B6B",
"~	c #6F6F6F",
"{	c #DAD8D8",
"]	c #E4E3E3",
"^	c #6E6E6E",
".+@#############################################################################################################################################################################################################################################################################################################################################################################################################$%&*",
".+@#############################################################################################################################################################################################################################################################################################################################################################################################################$%&=",
".+@#############################################################################################################################################################################################################################################################################################################################################################################################################$%&=",
".+@#############################################################################################################################################################################################################################################################################################################################################################################################################$%&-",
".+@#############################################################################################################################################################################################################################################################################################################################################################################################################$%&;",
".>,''''''''''''''''''''''''''''''''''''''''''''''''''''''''''''''''''''''''''''''''''''''''''''''''''''''''''''''''''''''''''''''''''''''''''''''''''''''''''''''''''''''''''''''''''''''''''''''''''''''''''''''''''''''''''''''''''''''''''''''''''''''''''''''''''''''''''''''''''''''''''''''''''''''''''''''''''''''''''''''''''''''''''''''''''''''''''''''''''''''''''''''''''''''''''''''''''''''''''''')%&!",
".>,''''''''''''''''''''''''''''''''''''''''''''''''''''''''''''''''''''''''''''''''''''''''''''''''''''''''''''''''''''''''''''''''''''''''''''''''''''''''''''''''''''''''''''''''''''''''''''''''''''''''''''''''''''''''''''''''''''''''''''''''''''''''''''''''''''''''''''''''''''''''''''''''''''''''''''''''''''''''''''''''''''''''''''''''''''''''''''''''''''''''''''''''''''''''''''''''''''''''''''')%&~",
".>,{{{{{{{{{{{{{{{{{{{{{{{{{{{{{{{{{{{{{{{{{{{{{{{{{{{{{{{{{{{{{{{{{{{{{{{{{{{{{{{{{{{{{{{{{{{{{{{{{{{{{{{{{{{{{{{{{{{{{{{{{{{{{{{{{{{{{{{{{{{{{{{{{{{{{{{{{{{{{{{{{{{{{{{{{{{{{{{{{{{{{{{{{{{{{{{{{{{{{{{{{{{{{{{{{{{{{{{{{{{{{{{{{{{{{{{{{{{{{{{{{{{{{{{{{{{{{{{{{{{{{{{{{{{{{{{{{{{{{{{{{{{{{{{{{{{{{{{{{{{{{{{{{{{{{{{{{{{{{{{{{{{{{{{{{{{{{{{{{{{{{{{{{{{{{{{{{{{{{{{{{{{{{{{{{{{{{{{{{{{{{{{{{{{{{{{{{{{{{]%&^"};
