/* XPM */
static char * menusel_xpm[] = {
"4 25 7 1",
" 	c None",
".	c #CBC8C8",
"+	c #BCB8B8",
"@	c #BBB8B8",
"#	c #BBB7B7",
"$	c #C5C2C2",
"%	c #C7C4C4",
"....",
"+@#+",
"$$$$",
"%%%%",
"%%%%",
"%%%%",
"%%%%",
"%%%%",
"%%%%",
"%%%%",
"%%%%",
"%%%%",
"%%%%",
"%%%%",
"%%%%",
"%%%%",
"%%%%",
"%%%%",
"%%%%",
"%%%%",
"%%%%",
"%%%%",
"%%%%",
"%%%%",
"%%%%"};
