/* XPM */
static char * menuButtonI_xpm[] = {
"23 36 110 2",
"  	c None",
". 	c #F5F5F5",
"+ 	c #F1F1F1",
"@ 	c #E5E6E6",
"# 	c #DBDBDC",
"$ 	c #E2E4E4",
"% 	c #E7E9E9",
"& 	c #DCDBDB",
"* 	c #F4F4F4",
"= 	c #EDEDED",
"- 	c #D8D7D7",
"; 	c #F5F6F6",
"> 	c #F8F9FA",
", 	c #F8FAF9",
"' 	c #F9FAFA",
") 	c #F4F6F5",
"! 	c #D7D8D7",
"~ 	c #EAEBEB",
"{ 	c #D4D4D5",
"] 	c #F7F8F8",
"^ 	c #F8F8F9",
"/ 	c #F8F8F8",
"( 	c #F8F9F9",
"_ 	c #D4D4D3",
": 	c #F0F0F0",
"< 	c #CECECE",
"[ 	c #F6F7F6",
"} 	c #F7F7F8",
"| 	c #F7F7F6",
"1 	c #F7F8F6",
"2 	c #F6F6F7",
"3 	c #CECFCE",
"4 	c #DDDDDC",
"5 	c #DEDFDF",
"6 	c #F6F7F7",
"7 	c #F5F6F5",
"8 	c #DCDBDC",
"9 	c #CBCCCB",
"0 	c #F4F5F5",
"a 	c #EFEFEF",
"b 	c #C2C2C2",
"c 	c #F6F5F5",
"d 	c #EFEEEE",
"e 	c #E7E7E7",
"f 	c #BEBEBE",
"g 	c #E9E8E7",
"h 	c #BDBCBB",
"i 	c #E8E6E5",
"j 	c #F5F5F4",
"k 	c #BDBDBD",
"l 	c #EBEBEC",
"m 	c #EDEDEF",
"n 	c #E4E1E1",
"o 	c #F6F6F6",
"p 	c #EDEDEE",
"q 	c #C4C4C4",
"r 	c #D9D9D9",
"s 	c #E1DFDD",
"t 	c #DEDBDA",
"u 	c #E0DDDC",
"v 	c #E2DFDD",
"w 	c #D7D6D7",
"x 	c #F5F4F4",
"y 	c #F1F0F1",
"z 	c #D2D1D1",
"A 	c #A6A4A5",
"B 	c #E5E2E1",
"C 	c #D9D4D3",
"D 	c #E6E3E2",
"E 	c #A1A0A1",
"F 	c #E6E6E6",
"G 	c #BBBBB9",
"H 	c #DCD9D8",
"I 	c #D2CFCC",
"J 	c #DCDAD8",
"K 	c #B7B7B5",
"L 	c #F3F3F3",
"M 	c #F0EFEF",
"N 	c #D7D6D6",
"O 	c #ABAAAA",
"P 	c #B4B1B1",
"Q 	c #D8D5D6",
"R 	c #D2CDCC",
"S 	c #CEC8C7",
"T 	c #D2CECC",
"U 	c #D9D6D6",
"V 	c #AFAEAE",
"W 	c #D5D4D5",
"X 	c #B6B6B5",
"Y 	c #898888",
"Z 	c #B8B7B6",
"` 	c #D0CFCF",
" .	c #D3D0D1",
"..	c #CFCECD",
"+.	c #B6B4B5",
"@.	c #888887",
"#.	c #F2F2F2",
"$.	c #DFDFDE",
"%.	c #C8C8C8",
"&.	c #BBBBBA",
"*.	c #9F9E9F",
"=.	c #969696",
"-.	c #9E9E9E",
";.	c #C9C8C9",
">.	c #E8E7E7",
",.	c #E7E6E6",
"'.	c #E6E5E5",
").	c #E3E2E2",
"!.	c #D1D0D0",
"~.	c #CFCDCD",
". . . . . . . . . . . . . . . . . . . . . . . ",
". . . . . . . . . . . . . . . . . . . . . . . ",
". . . . . . . + @ # $ % $ & @ + . . . . . . . ",
". . . . . * = - ; > , ' > ' ) ! = * . . . . . ",
". . . . * ~ { ] ^ / ] ] ] / ( ] _ ~ * . . . . ",
". . . . : < [ } | | | | | | | 1 2 3 : . . . . ",
". . . * 4 5 6 7 7 7 7 7 7 7 7 7 6 8 4 * . . . ",
". . . + 9 0 . * * * * * * * * * . * 9 + . . . ",
". . . a b c d d d d d e d d d d d 7 b a . . . ",
". . . ~ f 0 g g g g g h i g g g g j k ~ . . . ",
". . . l f m n n n n n o n n n n n p f l . . . ",
". . . a q r s t t t t u t t t t v w q a . . . ",
"x x x y z A B C C C C C C C C C D E z y x x x ",
"* * * * F k G H I I I I I I I J K k F * * * * ",
"* * * L M N O P Q R S S S T U V O N M L * * * ",
"* * * L L M W X Y Z `  ...+.@.X W M L L * * * ",
"L * * L #.L a $.%.&.*.=.-.&.;.$.a L #.L * * L ",
">.>.>.,.,.,.,.'.).& !.~.!.& ).'.,.,.,.,.>.>.>.",
". . . . . . . . . . . . . . . . . . . . . . . ",
". . . . . . . . . . . . . . . . . . . . . . . ",
". . . . . . . + @ # $ % $ & @ + . . . . . . . ",
". . . . . * = - ; > , ' > ' ) ! = * . . . . . ",
". . . . * ~ { ] ^ / ] ] ] / ( ] _ ~ * . . . . ",
". . . . : < [ } | | | | | | | 1 2 3 : . . . . ",
". . . * 4 5 6 7 7 7 7 7 7 7 7 7 6 8 4 * . . . ",
". . . + 9 0 . * * * * * * * * * . * 9 + . . . ",
". . . a b c d d d d d e d d d d d 7 b a . . . ",
". . . ~ f 0 g g g g g h i g g g g j k ~ . . . ",
". . . l f m n n n n n o n n n n n p f l . . . ",
". . . a q r s t t t t u t t t t v w q a . . . ",
"x x x y z A B C C C C C C C C C D E z y x x x ",
"* * * * F k G H I I I I I I I J K k F * * * * ",
"* * * L M N O P Q R S S S T U V O N M L * * * ",
"* * * L L M W X Y Z `  ...+.@.X W M L L * * * ",
"L * * L #.L a $.%.&.*.=.-.&.;.$.a L #.L * * L ",
">.>.>.,.,.,.,.'.).& !.~.!.& ).'.,.,.,.,.>.>.>."};
