/* XPM */
static char * minimizeO_xpm[] = {
"23 36 248 2",
"  	c None",
". 	c #F5F5F5",
"+ 	c #F4F4F5",
"@ 	c #F4F4F4",
"# 	c #F0F3F3",
"$ 	c #E5F2F3",
"% 	c #DBEEF5",
"& 	c #DEF3F7",
"* 	c #E1F5F7",
"= 	c #DCEFF5",
"- 	c #F1F4F4",
"; 	c #EDF3F2",
"> 	c #D9F0F5",
", 	c #EDF7F9",
"' 	c #F8F9FA",
") 	c #F8FAF9",
"! 	c #F9FAFA",
"~ 	c #ECF7F9",
"{ 	c #D8F0F5",
"] 	c #EAF2F3",
"^ 	c #D4EFF5",
"/ 	c #F5F9F8",
"( 	c #F8F8F9",
"_ 	c #F8F8F8",
": 	c #F7F8F8",
"< 	c #F8F9F9",
"[ 	c #F5F8F9",
"} 	c #D4EFF4",
"| 	c #F0F4F4",
"1 	c #CEECF1",
"2 	c #F4F8F6",
"3 	c #F7F7F8",
"4 	c #F7F7F6",
"5 	c #F7F8F6",
"6 	c #F3F7F8",
"7 	c #CEEDF1",
"8 	c #F3F4F5",
"9 	c #DCEDF1",
"0 	c #DCF2F6",
"a 	c #F6F7F7",
"b 	c #F5F6F5",
"c 	c #DAF0F6",
"d 	c #CBEAF0",
"e 	c #EFF6F7",
"f 	c #DEEFF3",
"g 	c #F0F2F4",
"h 	c #F1F2F3",
"i 	c #EEF5F7",
"j 	c #EFF3F3",
"k 	c #C1E7EF",
"l 	c #F6F6F6",
"m 	c #EFEEEE",
"n 	c #5CCCE7",
"o 	c #49C9E6",
"p 	c #E9ECED",
"q 	c #ECEEEF",
"r 	c #55CAE8",
"s 	c #4CC9E7",
"t 	c #F5F6F6",
"u 	c #C2E8F1",
"v 	c #BEE7F0",
"w 	c #F4F5F5",
"x 	c #E9E8E7",
"y 	c #EBF4F7",
"z 	c #3AC7E8",
"A 	c #48C7E4",
"B 	c #E1E6E7",
"C 	c #53C8E5",
"D 	c #30C3E7",
"E 	c #E7F3F7",
"F 	c #F4F5F4",
"G 	c #BDE5F0",
"H 	c #ECF2F2",
"I 	c #EDF2F4",
"J 	c #E4E1E1",
"K 	c #EEEDED",
"L 	c #EFF8FA",
"M 	c #39C6E8",
"N 	c #1ABDE3",
"O 	c #2FC2E6",
"P 	c #EAF8FA",
"Q 	c #EFEFEF",
"R 	c #C4E9F0",
"S 	c #DAECF0",
"T 	c #E1DFDD",
"U 	c #DEDBDA",
"V 	c #EAE8E7",
"W 	c #EFF9FA",
"X 	c #3BC8E8",
"Y 	c #E7F6FA",
"Z 	c #EBEAEA",
"` 	c #E2DFDD",
" .	c #D8EBF0",
"..	c #F5F4F4",
"+.	c #F1F3F4",
"@.	c #D2EAF0",
"#.	c #A6DEEC",
"$.	c #E5E7E6",
"%.	c #D9D4D3",
"&.	c #E5E2E1",
"*.	c #F9FAF9",
"=.	c #E8E5E4",
"-.	c #E6E7E7",
";.	c #A1DCEC",
">.	c #E6F1F3",
",.	c #BEE6EE",
"'.	c #BAE0E8",
").	c #DCDBDB",
"!.	c #D2CFCC",
"~.	c #DDDDDC",
"{.	c #B7E0E9",
"].	c #F3F3F3",
"^.	c #F0F2F2",
"/.	c #D7EBF0",
"(.	c #ABE0EE",
"_.	c #B3DDE7",
":.	c #D9DDE0",
"<.	c #D2CDCC",
"[.	c #CEC8C7",
"}.	c #D2CECC",
"|.	c #D9DFE1",
"1.	c #AEDCE7",
"2.	c #D5EBEF",
"3.	c #B6E5ED",
"4.	c #89D9EA",
"5.	c #B8DBE4",
"6.	c #D0E0E4",
"7.	c #D3E0E4",
"8.	c #D0E0E3",
"9.	c #B7DBE5",
"0.	c #88D8EA",
"a.	c #F2F2F2",
"b.	c #EFF2F2",
"c.	c #DFEEF1",
"d.	c #C9E8EE",
"e.	c #BAE5EE",
"f.	c #9EDDED",
"g.	c #96DCED",
"h.	c #C9E8EF",
"i.	c #E8E7E7",
"j.	c #E7E6E6",
"k.	c #E6E6E5",
"l.	c #E3E6E6",
"m.	c #DCE4E6",
"n.	c #D1E1E4",
"o.	c #CFE0E4",
"p.	c #F1F1F1",
"q.	c #E5E6E6",
"r.	c #D2D2D3",
"s.	c #CAC9C8",
"t.	c #CBC9C7",
"u.	c #CBCAC7",
"v.	c #D3D2D3",
"w.	c #EDEDED",
"x.	c #D1CFD0",
"y.	c #DBDAD9",
"z.	c #F5F4F6",
"A.	c #F5F5F6",
"B.	c #D1D0D0",
"C.	c #EAEBEB",
"D.	c #CACAC9",
"E.	c #D7D3D1",
"F.	c #D3CECC",
"G.	c #D8D3D1",
"H.	c #CACBC8",
"I.	c #F0F0F0",
"J.	c #CDCCCC",
"K.	c #F1F2F1",
"L.	c #E6E3E3",
"M.	c #D8D4D3",
"N.	c #E6E4E3",
"O.	c #CCCDCD",
"P.	c #D5D3D3",
"Q.	c #F1F0F1",
"R.	c #DDDAD9",
"S.	c #D2D0D1",
"T.	c #CBCCCB",
"U.	c #E3E1DF",
"V.	c #D1CFCE",
"W.	c #E7E3E3",
"X.	c #C2C2C2",
"Y.	c #F5F5F4",
"Z.	c #E8E6E5",
"`.	c #6C6968",
" +	c #5C5A5A",
".+	c #E4E2E1",
"++	c #656462",
"@+	c #5E5D5C",
"#+	c #BEBEBE",
"$+	c #F3F3F5",
"%+	c #51514F",
"&+	c #5D5B5B",
"*+	c #E7E5E5",
"=+	c #686765",
"-+	c #484746",
";+	c #BDBDBD",
">+	c #EBEBEC",
",+	c #F0F0F2",
"'+	c #F6F5F5",
")+	c #525150",
"!+	c #373534",
"~+	c #4A4848",
"{+	c #F5F7F6",
"]+	c #F6F6F5",
"^+	c #C4C4C4",
"/+	c #DEDFDF",
"(+	c #F6F7F6",
"_+	c #555453",
":+	c #F4F6F7",
"<+	c #DBDBDC",
"[+	c #D2D1D1",
"}+	c #A8A7A8",
"|+	c #F4F3F3",
"1+	c #F7F7F5",
"2+	c #FAFAFA",
"3+	c #F7F7F7",
"4+	c #A3A3A3",
"5+	c #E6E6E6",
"6+	c #C1C1C1",
"7+	c #BCBDBC",
"8+	c #F0EFEF",
"9+	c #D7D6D6",
"0+	c #ABAAAA",
"a+	c #B9B8B9",
"b+	c #EBECEC",
"c+	c #F7F8F7",
"d+	c #F8F9F8",
"e+	c #E9EAEA",
"f+	c #B5B5B4",
"g+	c #D5D4D5",
"h+	c #B6B6B5",
"i+	c #898888",
"j+	c #BFBFC0",
"k+	c #D9D9D9",
"l+	c #DDDDDD",
"m+	c #D8D9D8",
"n+	c #BEBDBD",
"o+	c #888887",
"p+	c #DFDFDE",
"q+	c #C8C8C8",
"r+	c #BBBBBA",
"s+	c #9F9E9F",
"t+	c #969696",
"u+	c #9E9E9E",
"v+	c #C9C8C9",
"w+	c #E6E5E5",
"x+	c #E3E2E2",
"y+	c #CFCDCD",
". . . . . . . . . . . . . . . . . . . . . . . ",
". . . . . . . . . . . . . . . . . . . . . . . ",
". . . + + @ . # $ % & * & = $ - . . . . . . . ",
". . . + + @ ; > , ' ) ! ' ! ~ { ; @ . . . . . ",
". . . + @ ] ^ / ( _ : : : _ < [ } ] @ . . . . ",
". . . + | 1 2 3 4 4 4 4 4 4 4 5 6 7 | . . . . ",
". . . 8 9 0 a b b b b b b b b b a c 9 @ . . . ",
". . . - d e . @ f g @ @ @ h f @ . i d - . . . ",
". . . j k l m m n o p m q r s m m t u j . . . ",
". . . ] v w x x y z A B C D E x x F G ] . . . ",
". . . H v I J J K L M N O P Q J J I v H . . . ",
". . . j R S T U U V W X Y Z U U `  .R j . . . ",
"......+.@.#.$.%.%.%.&.*.=.%.%.%.-.;.@.+.......",
"@ @ @ @ >.,.'.).!.!.!.!.!.!.!.~.{.,.>.@ @ @ @ ",
"@ @ @ ].^./.(._.:.<.[.[.[.}.|.1.(./.^.].@ @ @ ",
"@ @ @ ].].# 2.3.4.5.6.7.8.9.0.3.2.# ].].@ @ @ ",
"].@ @ ].a.].b.c.d.e.f.g.f.e.h.c.b.].a.].@ @ ].",
"i.i.i.j.j.j.j.k.l.m.n.o.n.m.l.k.j.j.j.j.i.i.i.",
". . . . . . . . . . . . . . . . . . . . . . . ",
". . . . . . . . . . . . . . . . . . . . . . . ",
". . . . . . . p.q.r.s.t.u.v.q.p.. . . . . . . ",
". . . . . @ w.x.y.z.t A.t A.y.B.w.@ . . . . . ",
". . . . @ C.D.@ m E.F.F.F.G.Q ].H.C.@ . . . . ",
". . . . I.J.K.L.M.M.M.M.M.M.M.N.I.O.I.. . . . ",
". . . @ ~.P.Q.R.R.R.R.R.R.R.R.R.].S.~.@ . . . ",
". . . p.T.h N.U.V.T U.U.U.T V.U.W.Q T.p.. . . ",
". . . Q X.Y.Z.Z.`. +.+Z.N.++@+Z.Z.Y.X.Q . . . ",
". . . C.#+. K K $+%+&+*+=+-+h K K . ;+C.. . . ",
". . . >+#+,+].].'+: )+!+~+{+]+].].,+#+>+. . . ",
". . . Q ^+/+. . . (+: _+:+a . . . <+^+Q . . . ",
"......Q.[+}+|+]+]+]+1+2+3+]+]+]+|+4+[+Q.......",
"@ @ @ @ 5+;+6+. 3+3+3+3+3+3+3+F 7+;+5+@ @ @ @ ",
"@ @ @ ].8+9+0+a+b+c+d+d+d+c+e+f+0+9+8+].@ @ @ ",
"@ @ @ ].].8+g+h+i+j+k+l+m+n+o+h+g+8+].].@ @ @ ",
"].@ @ ].a.].Q p+q+r+s+t+u+r+v+p+Q ].a.].@ @ ].",
"i.i.i.j.j.j.j.w+x+).B.y+B.).x+w+j.j.j.j.i.i.i."};
