/* XPM */
static char * minimizeA_xpm[] = {
"23 36 135 2",
"  	c None",
". 	c #F5F5F5",
"+ 	c #F4F4F5",
"@ 	c #F4F4F4",
"# 	c #F0F0F0",
"$ 	c #E5E6E6",
"% 	c #DBDBDB",
"& 	c #E2E4E4",
"* 	c #E7E9E9",
"= 	c #DCDBDB",
"- 	c #F1F1F1",
"; 	c #EDEDED",
"> 	c #D8D7D7",
", 	c #F5F6F6",
"' 	c #F8F9FA",
") 	c #F8FAF9",
"! 	c #F9FAFA",
"~ 	c #F4F6F5",
"{ 	c #D7D8D7",
"] 	c #EAEBEB",
"^ 	c #D4D4D5",
"/ 	c #F7F8F8",
"( 	c #F8F8F9",
"_ 	c #F8F8F8",
": 	c #F8F9F9",
"< 	c #D4D4D3",
"[ 	c #CECECE",
"} 	c #F6F7F6",
"| 	c #F7F7F8",
"1 	c #F7F7F6",
"2 	c #F7F8F6",
"3 	c #F6F6F7",
"4 	c #CECFCE",
"5 	c #DDDDDC",
"6 	c #DEDFDF",
"7 	c #F6F7F7",
"8 	c #F5F6F5",
"9 	c #DCDBDC",
"0 	c #CBCCCB",
"a 	c #F4F5F5",
"b 	c #E0E1E1",
"c 	c #F0F0F1",
"d 	c #EFEFEF",
"e 	c #C1C1C1",
"f 	c #F6F5F5",
"g 	c #EFEEEE",
"h 	c #6E6C6C",
"i 	c #5E5C5C",
"j 	c #EAE9E9",
"k 	c #EBEBEB",
"l 	c #686666",
"m 	c #60605F",
"n 	c #C2C2C2",
"o 	c #BEBEBE",
"p 	c #E9E8E7",
"q 	c #F3F3F4",
"r 	c #52504E",
"s 	c #5C5A5A",
"t 	c #E2E1DF",
"u 	c #656462",
"v 	c #484646",
"w 	c #EFF0F1",
"x 	c #F5F5F4",
"y 	c #BDBDBD",
"z 	c #EBEBEC",
"A 	c #EDEDEF",
"B 	c #E4E1E1",
"C 	c #EEEDED",
"D 	c #504F4E",
"E 	c #353332",
"F 	c #474545",
"G 	c #F5F7F6",
"H 	c #EDEDEE",
"I 	c #C4C4C4",
"J 	c #D9D9D9",
"K 	c #E1DFDD",
"L 	c #DEDBDA",
"M 	c #EAE8E7",
"N 	c #F6F8F7",
"O 	c #51514F",
"P 	c #F3F5F6",
"Q 	c #EBEAEA",
"R 	c #E2DFDD",
"S 	c #D7D6D7",
"T 	c #F5F4F4",
"U 	c #F1F0F1",
"V 	c #D2D1D1",
"W 	c #A6A4A5",
"X 	c #E5E2E1",
"Y 	c #D9D4D3",
"Z 	c #F9FAF9",
"` 	c #E8E5E4",
" .	c #E6E3E2",
"..	c #A1A0A1",
"+.	c #E6E6E6",
"@.	c #BBBBB9",
"#.	c #DCD9D8",
"$.	c #D2CFCC",
"%.	c #DCDAD8",
"&.	c #B7B7B5",
"*.	c #F3F3F3",
"=.	c #F0EFEF",
"-.	c #D7D6D6",
";.	c #ABAAAA",
">.	c #B4B1B1",
",.	c #D8D5D6",
"'.	c #D2CDCC",
").	c #CEC8C7",
"!.	c #D2CECC",
"~.	c #D9D6D6",
"{.	c #AFAEAE",
"].	c #D5D4D5",
"^.	c #B6B6B5",
"/.	c #898888",
"(.	c #B8B7B6",
"_.	c #D0CFCF",
":.	c #D3D0D1",
"<.	c #CFCECD",
"[.	c #B6B4B5",
"}.	c #888887",
"|.	c #F2F2F2",
"1.	c #DFDFDE",
"2.	c #C8C8C8",
"3.	c #BBBBBA",
"4.	c #9F9E9F",
"5.	c #969696",
"6.	c #9E9E9E",
"7.	c #C9C8C9",
"8.	c #E8E7E7",
"9.	c #E7E6E6",
"0.	c #E6E5E5",
"a.	c #E3E2E2",
"b.	c #D1D0D0",
"c.	c #CFCDCD",
"d.	c #010101",
". . . . . . . . . . . . . . . . . . . . . . . ",
". . . . . . . . . . . . . . . . . . . . . . . ",
". . . + + @ . # $ % & * & = $ - . . . . . . . ",
". . . + + @ ; > , ' ) ! ' ! ~ { ; @ . . . . . ",
". . . + @ ] ^ / ( _ / / / _ : / < ] @ . . . . ",
". . . + # [ } | 1 1 1 1 1 1 1 2 3 4 # . . . . ",
". . . @ 5 6 7 8 8 8 8 8 8 8 8 8 7 9 5 @ . . . ",
". . . - 0 a . @ b c @ @ @ - b @ . @ 0 - . . . ",
". . . d e f g g h i j g k l m g g 8 n d . . . ",
". . . ] o a p p q r s t u v w p p x y ] . . . ",
". . . z o A B B C | D E F G d B B H o z . . . ",
". . . d I J K L L M N O P Q L L R S I d . . . ",
"T T T U V W X Y Y Y X Z ` Y Y Y  ...V U T T T ",
"@ @ @ @ +.y @.#.$.$.$.$.$.$.$.%.&.y +.@ @ @ @ ",
"@ @ @ *.=.-.;.>.,.'.).).).!.~.{.;.-.=.*.@ @ @ ",
"@ @ @ *.*.=.].^./.(._.:.<.[.}.^.].=.*.*.@ @ @ ",
"*.@ @ *.|.*.d 1.2.3.4.5.6.3.7.1.d *.|.*.@ @ *.",
"8.8.8.9.9.9.9.0.a.= b.c.b.= a.0.9.9.9.9.8.8.8.",
"d.d.d.d.d.d.d.d.d.d.d.d.d.d.d.d.d.d.d.d.d.d.d.",
"d.d.d.d.d.d.d.d.d.d.d.d.d.d.d.d.d.d.d.d.d.d.d.",
"d.d.d.d.d.d.d.d.d.d.d.d.d.d.d.d.d.d.d.d.d.d.d.",
"d.d.d.d.d.d.d.d.d.d.d.d.d.d.d.d.d.d.d.d.d.d.d.",
"d.d.d.d.d.d.d.d.d.d.d.d.d.d.d.d.d.d.d.d.d.d.d.",
"d.d.d.d.d.d.d.d.d.d.d.d.d.d.d.d.d.d.d.d.d.d.d.",
"d.d.d.d.d.d.d.d.d.d.d.d.d.d.d.d.d.d.d.d.d.d.d.",
"d.d.d.d.d.d.d.d.d.d.d.d.d.d.d.d.d.d.d.d.d.d.d.",
"d.d.d.d.d.d.d.d.d.d.d.d.d.d.d.d.d.d.d.d.d.d.d.",
"d.d.d.d.d.d.d.d.d.d.d.d.d.d.d.d.d.d.d.d.d.d.d.",
"d.d.d.d.d.d.d.d.d.d.d.d.d.d.d.d.d.d.d.d.d.d.d.",
"d.d.d.d.d.d.d.d.d.d.d.d.d.d.d.d.d.d.d.d.d.d.d.",
"d.d.d.d.d.d.d.d.d.d.d.d.d.d.d.d.d.d.d.d.d.d.d.",
"d.d.d.d.d.d.d.d.d.d.d.d.d.d.d.d.d.d.d.d.d.d.d.",
"d.d.d.d.d.d.d.d.d.d.d.d.d.d.d.d.d.d.d.d.d.d.d.",
"d.d.d.d.d.d.d.d.d.d.d.d.d.d.d.d.d.d.d.d.d.d.d.",
"d.d.d.d.d.d.d.d.d.d.d.d.d.d.d.d.d.d.d.d.d.d.d.",
"d.d.d.d.d.d.d.d.d.d.d.d.d.d.d.d.d.d.d.d.d.d.d."};
