/* XPM */
static char * minimizeI_xpm[] = {
"23 36 130 2",
"  	c None",
". 	c #F5F5F5",
"+ 	c #F4F4F5",
"@ 	c #F4F4F4",
"# 	c #F0F0F0",
"$ 	c #E5E6E6",
"% 	c #DBDBDB",
"& 	c #E2E4E4",
"* 	c #E7E9E9",
"= 	c #DCDBDB",
"- 	c #F1F1F1",
"; 	c #EDEDED",
"> 	c #D8D7D7",
", 	c #F5F6F6",
"' 	c #F8F9FA",
") 	c #F8FAF9",
"! 	c #F9FAFA",
"~ 	c #F4F6F5",
"{ 	c #D7D8D7",
"] 	c #EAEBEB",
"^ 	c #D4D4D5",
"/ 	c #F7F8F8",
"( 	c #F8F8F9",
"_ 	c #F8F8F8",
": 	c #F8F9F9",
"< 	c #D4D4D3",
"[ 	c #CECECE",
"} 	c #F6F7F6",
"| 	c #F7F7F8",
"1 	c #F7F7F6",
"2 	c #F7F8F6",
"3 	c #F6F6F7",
"4 	c #CECFCE",
"5 	c #DDDDDC",
"6 	c #DEDFDF",
"7 	c #F6F7F7",
"8 	c #F5F6F5",
"9 	c #DCDBDC",
"0 	c #CBCCCB",
"a 	c #F4F5F5",
"b 	c #F1F1F2",
"c 	c #F3F3F3",
"d 	c #EFEFEF",
"e 	c #C1C1C1",
"f 	c #F6F5F5",
"g 	c #EFEEEE",
"h 	c #B7B6B5",
"i 	c #AEAEAC",
"j 	c #ECEBEB",
"k 	c #B3B2B3",
"l 	c #B0B0AE",
"m 	c #C2C2C2",
"n 	c #BEBEBE",
"o 	c #E9E8E7",
"p 	c #F4F5F6",
"q 	c #AAAAA9",
"r 	c #ADACAB",
"s 	c #E6E4E3",
"t 	c #B1B0AF",
"u 	c #A6A5A5",
"v 	c #F5F5F4",
"w 	c #BDBDBD",
"x 	c #EBEBEC",
"y 	c #EDEDEF",
"z 	c #E4E1E1",
"A 	c #EEEDED",
"B 	c #AAA9A9",
"C 	c #9B9B9A",
"D 	c #A5A4A4",
"E 	c #EDEDEE",
"F 	c #C4C4C4",
"G 	c #D9D9D9",
"H 	c #E1DFDD",
"I 	c #DEDBDA",
"J 	c #EAE8E7",
"K 	c #F8F9F8",
"L 	c #ABABAB",
"M 	c #F6F8F8",
"N 	c #EBEAEA",
"O 	c #E2DFDD",
"P 	c #D7D6D7",
"Q 	c #F5F4F4",
"R 	c #F1F0F1",
"S 	c #D2D1D1",
"T 	c #A6A4A5",
"U 	c #E5E2E1",
"V 	c #D9D4D3",
"W 	c #F9FAF9",
"X 	c #E8E5E4",
"Y 	c #E6E3E2",
"Z 	c #A1A0A1",
"` 	c #E6E6E6",
" .	c #BBBBB9",
"..	c #DCD9D8",
"+.	c #D2CFCC",
"@.	c #DCDAD8",
"#.	c #B7B7B5",
"$.	c #F0EFEF",
"%.	c #D7D6D6",
"&.	c #ABAAAA",
"*.	c #B4B1B1",
"=.	c #D8D5D6",
"-.	c #D2CDCC",
";.	c #CEC8C7",
">.	c #D2CECC",
",.	c #D9D6D6",
"'.	c #AFAEAE",
").	c #D5D4D5",
"!.	c #B6B6B5",
"~.	c #898888",
"{.	c #B8B7B6",
"].	c #D0CFCF",
"^.	c #D3D0D1",
"/.	c #CFCECD",
"(.	c #B6B4B5",
"_.	c #888887",
":.	c #F2F2F2",
"<.	c #DFDFDE",
"[.	c #C8C8C8",
"}.	c #BBBBBA",
"|.	c #9F9E9F",
"1.	c #969696",
"2.	c #9E9E9E",
"3.	c #C9C8C9",
"4.	c #E8E7E7",
"5.	c #E7E6E6",
"6.	c #E6E5E5",
"7.	c #E3E2E2",
"8.	c #D1D0D0",
"9.	c #CFCDCD",
". . . . . . . . . . . . . . . . . . . . . . . ",
". . . . . . . . . . . . . . . . . . . . . . . ",
". . . + + @ . # $ % & * & = $ - . . . . . . . ",
". . . + + @ ; > , ' ) ! ' ! ~ { ; @ . . . . . ",
". . . + @ ] ^ / ( _ / / / _ : / < ] @ . . . . ",
". . . + # [ } | 1 1 1 1 1 1 1 2 3 4 # . . . . ",
". . . @ 5 6 7 8 8 8 8 8 8 8 8 8 7 9 5 @ . . . ",
". . . - 0 a . @ ] b @ @ @ c ] @ . @ 0 - . . . ",
". . . d e f g g h i j g ; k l g g 8 m d . . . ",
". . . ] n a o o p q r s t u a o o v w ] . . . ",
". . . x n y z z A : B C D / d z z E n x . . . ",
". . . d F G H I I J K L M N I I O P F d . . . ",
"Q Q Q R S T U V V V U W X V V V Y Z S R Q Q Q ",
"@ @ @ @ ` w  ...+.+.+.+.+.+.+.@.#.w ` @ @ @ @ ",
"@ @ @ c $.%.&.*.=.-.;.;.;.>.,.'.&.%.$.c @ @ @ ",
"@ @ @ c c $.).!.~.{.].^./.(._.!.).$.c c @ @ @ ",
"c @ @ c :.c d <.[.}.|.1.2.}.3.<.d c :.c @ @ c ",
"4.4.4.5.5.5.5.6.7.= 8.9.8.= 7.6.5.5.5.5.4.4.4.",
". . . . . . . . . . . . . . . . . . . . . . . ",
". . . . . . . . . . . . . . . . . . . . . . . ",
". . . + + @ . # $ % & * & = $ - . . . . . . . ",
". . . + + @ ; > , ' ) ! ' ! ~ { ; @ . . . . . ",
". . . + @ ] ^ / ( _ / / / _ : / < ] @ . . . . ",
". . . + # [ } | 1 1 1 1 1 1 1 2 3 4 # . . . . ",
". . . @ 5 6 7 8 8 8 8 8 8 8 8 8 7 9 5 @ . . . ",
". . . - 0 a . @ ] b @ @ @ c ] @ . @ 0 - . . . ",
". . . d e f g g h i j g ; k l g g 8 m d . . . ",
". . . ] n a o o p q r s t u a o o v w ] . . . ",
". . . x n y z z A : B C D / d z z E n x . . . ",
". . . d F G H I I J K L M N I I O P F d . . . ",
"Q Q Q R S T U V V V U W X V V V Y Z S R Q Q Q ",
"@ @ @ @ ` w  ...+.+.+.+.+.+.+.@.#.w ` @ @ @ @ ",
"@ @ @ c $.%.&.*.=.-.;.;.;.>.,.'.&.%.$.c @ @ @ ",
"@ @ @ c c $.).!.~.{.].^./.(._.!.).$.c c @ @ @ ",
"c @ @ c :.c d <.[.}.|.1.2.}.3.<.d c :.c @ @ c ",
"4.4.4.5.5.5.5.6.7.= 8.9.8.= 7.6.5.5.5.5.4.4.4."};
