/* XPM */
static char * restoreO_xpm[] = {
"23 36 268 2",
"  	c None",
". 	c #F5F5F5",
"+ 	c #F1F4F4",
"@ 	c #E5F2F3",
"# 	c #DAEFF6",
"$ 	c #DEF3F7",
"% 	c #E1F5F7",
"& 	c #DCEFF5",
"* 	c #F4F4F4",
"= 	c #EDF3F2",
"- 	c #D9F0F5",
"; 	c #EDF7F9",
"> 	c #F8F9FA",
", 	c #F8FAF9",
"' 	c #F9FAFA",
") 	c #ECF7F9",
"! 	c #D8F0F5",
"~ 	c #EAF2F3",
"{ 	c #D4EFF5",
"] 	c #F5F9F8",
"^ 	c #F8F8F9",
"/ 	c #F8F8F8",
"( 	c #F7F8F8",
"_ 	c #F8F9F9",
": 	c #F5F8F9",
"< 	c #D4EFF4",
"[ 	c #F0F4F4",
"} 	c #CEECF1",
"| 	c #F4F8F6",
"1 	c #F7F7F8",
"2 	c #F7F7F6",
"3 	c #F7F8F6",
"4 	c #F3F7F8",
"5 	c #CEEDF1",
"6 	c #DCEDF1",
"7 	c #DCF2F6",
"8 	c #F6F7F7",
"9 	c #F5F6F5",
"0 	c #BEEBF5",
"a 	c #1CBFE6",
"b 	c #B2E7F4",
"c 	c #DAF0F6",
"d 	c #CBEAF0",
"e 	c #EFF6F7",
"f 	c #B8E5EF",
"g 	c #0DBBE4",
"h 	c #77DBF2",
"i 	c #0CBCE4",
"j 	c #ABE1EF",
"k 	c #EEF5F7",
"l 	c #EFF3F3",
"m 	c #C2E8F1",
"n 	c #F6F6F6",
"o 	c #EFEEEE",
"p 	c #B3E0EB",
"q 	c #AAEAF9",
"r 	c #FAFAFA",
"s 	c #B6EDF9",
"t 	c #0BBAE4",
"u 	c #A8DEEA",
"v 	c #F5F6F6",
"w 	c #BEE7F0",
"x 	c #F4F5F5",
"y 	c #E9E8E7",
"z 	c #5FCDE6",
"A 	c #2CC5E9",
"B 	c #EEF6F8",
"C 	c #EAE9E8",
"D 	c #F0F7F7",
"E 	c #39C9EC",
"F 	c #51C9E6",
"G 	c #F4F5F4",
"H 	c #BDE5F0",
"I 	c #ECF2F2",
"J 	c #EDF2F4",
"K 	c #E4E1E1",
"L 	c #F0F6F7",
"M 	c #4ACEEF",
"N 	c #35C3E3",
"O 	c #D2DEE2",
"P 	c #40C4E3",
"Q 	c #3DCBEC",
"R 	c #ECF6F8",
"S 	c #C4E9F0",
"T 	c #DAECF0",
"U 	c #E1DFDD",
"V 	c #DEDBDA",
"W 	c #E8E4E3",
"X 	c #F5F9F9",
"Y 	c #48C9E9",
"Z 	c #0AB9E3",
"` 	c #3CC6E7",
" .	c #F1F8FA",
"..	c #E9E7E7",
"+.	c #E2DFDD",
"@.	c #D8EBF0",
"#.	c #F5F4F4",
"$.	c #F1F3F4",
"%.	c #D2EAF0",
"&.	c #A6DEEC",
"*.	c #E5E7E6",
"=.	c #D9D4D3",
"-.	c #E2DEDD",
";.	c #F4F8F9",
">.	c #8FDEF1",
",.	c #F0F7F9",
"'.	c #E4E1E0",
").	c #E6E7E7",
"!.	c #A1DCEC",
"~.	c #E6F1F3",
"{.	c #BEE6EE",
"].	c #BAE0E8",
"^.	c #DCDBDB",
"/.	c #D2CFCC",
"(.	c #DCDAD7",
"_.	c #DEDCDB",
":.	c #DDDDDC",
"<.	c #B7E0E9",
"[.	c #F3F3F3",
"}.	c #F0F2F2",
"|.	c #D7EBF0",
"1.	c #ABE0EE",
"2.	c #B3DDE7",
"3.	c #D9DDE0",
"4.	c #D2CDCC",
"5.	c #CEC8C7",
"6.	c #D2CECC",
"7.	c #D9DFE1",
"8.	c #AEDCE7",
"9.	c #F0F3F3",
"0.	c #D5EBEF",
"a.	c #B6E5ED",
"b.	c #89D9EA",
"c.	c #B8DBE4",
"d.	c #D0E0E4",
"e.	c #D3E0E4",
"f.	c #D0E0E3",
"g.	c #B7DBE5",
"h.	c #88D8EA",
"i.	c #F2F2F2",
"j.	c #EFF2F2",
"k.	c #DFEEF1",
"l.	c #C9E8EE",
"m.	c #BAE5EE",
"n.	c #9EDDED",
"o.	c #96DCED",
"p.	c #C9E8EF",
"q.	c #E8E7E7",
"r.	c #E7E6E6",
"s.	c #E6E6E5",
"t.	c #E3E6E6",
"u.	c #DCE4E6",
"v.	c #D1E1E4",
"w.	c #CFE0E4",
"x.	c #F1F1F1",
"y.	c #E5E6E6",
"z.	c #D2D2D3",
"A.	c #CAC9C8",
"B.	c #CBC9C7",
"C.	c #CBCAC7",
"D.	c #D3D2D3",
"E.	c #EDEDED",
"F.	c #D1CFD0",
"G.	c #DBDAD9",
"H.	c #F5F4F6",
"I.	c #F5F5F6",
"J.	c #D1D0D0",
"K.	c #EAEBEB",
"L.	c #CACAC9",
"M.	c #D7D3D1",
"N.	c #D3CECC",
"O.	c #D8D3D1",
"P.	c #EFEFEF",
"Q.	c #CACBC8",
"R.	c #F0F0F0",
"S.	c #CDCCCC",
"T.	c #F1F2F1",
"U.	c #E6E3E3",
"V.	c #D8D4D3",
"W.	c #E6E4E3",
"X.	c #CCCDCD",
"Y.	c #D5D3D3",
"Z.	c #F1F0F1",
"`.	c #DDDAD9",
" +	c #AFACAB",
".+	c #343231",
"++	c #A8A4A4",
"@+	c #D2D0D1",
"#+	c #CBCCCB",
"$+	c #F1F2F3",
"%+	c #E3E1DF",
"&+	c #B4B1B0",
"*+	c #282827",
"=+	c #848282",
"-+	c #292726",
";+	c #A9A6A6",
">+	c #E7E3E3",
",+	c #C2C2C2",
"'+	c #F5F5F4",
")+	c #E8E6E5",
"!+	c #B7B5B4",
"~+	c #B7B9B9",
"{+	c #F9FAF9",
"]+	c #C4C6C6",
"^+	c #282726",
"/+	c #ACABAA",
"(+	c #BEBEBE",
"_+	c #EEEDED",
":+	c #727171",
"<+	c #454343",
"[+	c #F4F6F6",
"}+	c #51514F",
"|+	c #676465",
"1+	c #BDBDBD",
"2+	c #EBEBEC",
"3+	c #F0F0F2",
"4+	c #616161",
"5+	c #504F4E",
"6+	c #E3E2E2",
"7+	c #595857",
"8+	c #555554",
"9+	c #C4C4C4",
"0+	c #DEDFDF",
"a+	c #616160",
"b+	c #565655",
"c+	c #F7F9F8",
"d+	c #F6F7F6",
"e+	c #DBDBDC",
"f+	c #D2D1D1",
"g+	c #A8A7A8",
"h+	c #F4F3F3",
"i+	c #F6F6F5",
"j+	c #F7F6F6",
"k+	c #A3A3A2",
"l+	c #F7F8F7",
"m+	c #A3A3A3",
"n+	c #E6E6E6",
"o+	c #C1C1C1",
"p+	c #F7F7F7",
"q+	c #F8F7F8",
"r+	c #FAFAF9",
"s+	c #BCBDBC",
"t+	c #F0EFEF",
"u+	c #D7D6D6",
"v+	c #ABAAAA",
"w+	c #B9B8B9",
"x+	c #EBECEC",
"y+	c #F8F9F8",
"z+	c #E9EAEA",
"A+	c #B5B5B4",
"B+	c #D5D4D5",
"C+	c #B6B6B5",
"D+	c #898888",
"E+	c #BFBFC0",
"F+	c #D9D9D9",
"G+	c #DDDDDD",
"H+	c #D8D9D8",
"I+	c #BEBDBD",
"J+	c #888887",
"K+	c #DFDFDE",
"L+	c #C8C8C8",
"M+	c #BBBBBA",
"N+	c #9F9E9F",
"O+	c #969696",
"P+	c #9E9E9E",
"Q+	c #C9C8C9",
"R+	c #E6E5E5",
"S+	c #CFCDCD",
". . . . . . . . . . . . . . . . . . . . . . . ",
". . . . . . . . . . . . . . . . . . . . . . . ",
". . . . . . . + @ # $ % $ & @ + . . . . . . . ",
". . . . . * = - ; > , ' > ' ) ! = * . . . . . ",
". . . . * ~ { ] ^ / ( ( ( / _ : < ~ * . . . . ",
". . . . [ } | 1 2 2 2 2 2 2 2 3 4 5 [ . . . . ",
". . . * 6 7 8 9 9 9 0 a b 9 9 9 8 c 6 * . . . ",
". . . + d e . * * f g h i j * * . k d + . . . ",
". . . l m n o o p i q r s t u o o v m l . . . ",
". . . ~ w x y y z A B C D E F y y G H ~ . . . ",
". . . I w J K K L M N O P Q R K K J w I . . . ",
". . . l S T U V W X Y Z `  ...V +.@.S l . . . ",
"#.#.#.$.%.&.*.=.=.-.;.>.,.'.=.=.).!.%.$.#.#.#.",
"* * * * ~.{.].^././.(.2 _././.:.<.{.~.* * * * ",
"* * * [.}.|.1.2.3.4.5.5.5.6.7.8.1.|.}.[.* * * ",
"* * * [.[.9.0.a.b.c.d.e.f.g.h.a.0.9.[.[.* * * ",
"[.* * [.i.[.j.k.l.m.n.o.n.m.p.k.j.[.i.[.* * [.",
"q.q.q.r.r.r.r.s.t.u.v.w.v.u.t.s.r.r.r.r.q.q.q.",
". . . . . . . . . . . . . . . . . . . . . . . ",
". . . . . . . . . . . . . . . . . . . . . . . ",
". . . . . . . x.y.z.A.B.C.D.y.x.. . . . . . . ",
". . . . . * E.F.G.H.v I.v I.G.J.E.* . . . . . ",
". . . . * K.L.* o M.N.N.N.O.P.[.Q.K.* . . . . ",
". . . . R.S.T.U.V.V.V.V.V.V.V.W.R.X.R.. . . . ",
". . . * :.Y.Z.`.`.`. +.+++`.`.`.[.@+:.* . . . ",
". . . x.#+$+W.%+%+&+*+=+-+;+%+%+>+P.#+x.. . . ",
". . . P.,+'+)+)+!+-+~+{+]+^+/+)+)+'+,+P.. . . ",
". . . K.(+. _+_+:+<+I.o [+}+|+_+_+. 1+K.. . . ",
". . . 2+(+3+[.[.8 4+5+6+7+8+[+[.[.3+(+2+. . . ",
". . . P.9+0+. . n _ a+^+b+c+d+. . e+9+P.. . . ",
"#.#.#.Z.f+g+h+i+i+j+_ k+l+2 i+i+h+m+f+Z.#.#.#.",
"* * * * n+1+o+. p+p+q+r+q+p+p+G s+1+n+* * * * ",
"* * * [.t+u+v+w+x+l+y+y+y+l+z+A+v+u+t+[.* * * ",
"* * * [.[.t+B+C+D+E+F+G+H+I+J+C+B+t+[.[.* * * ",
"[.* * [.i.[.P.K+L+M+N+O+P+M+Q+K+P.[.i.[.* * [.",
"q.q.q.r.r.r.r.R+6+^.J.S+J.^.6+R+r.r.r.r.q.q.q."};
