/* XPM */
static char * restoreA_xpm[] = {
"23 36 142 2",
"  	c None",
". 	c #F5F5F5",
"+ 	c #F1F1F1",
"@ 	c #E5E6E6",
"# 	c #DBDBDC",
"$ 	c #E2E4E4",
"% 	c #E7E9E9",
"& 	c #DCDBDB",
"* 	c #F4F4F4",
"= 	c #EDEDED",
"- 	c #D8D7D7",
"; 	c #F5F6F6",
"> 	c #F8F9FA",
", 	c #F8FAF9",
"' 	c #F9FAFA",
") 	c #F4F6F5",
"! 	c #D7D8D7",
"~ 	c #EAEBEB",
"{ 	c #D4D4D5",
"] 	c #F7F8F8",
"^ 	c #F8F8F9",
"/ 	c #F8F8F8",
"( 	c #F8F9F9",
"_ 	c #D4D4D3",
": 	c #F0F0F0",
"< 	c #CECECE",
"[ 	c #F6F7F6",
"} 	c #F7F7F8",
"| 	c #F7F7F6",
"1 	c #F7F8F6",
"2 	c #F6F6F7",
"3 	c #CECFCE",
"4 	c #DDDDDC",
"5 	c #DEDFDF",
"6 	c #F6F7F7",
"7 	c #F5F6F5",
"8 	c #C4C6C5",
"9 	c #383736",
"0 	c #BBBBBC",
"a 	c #DCDBDC",
"b 	c #CBCCCB",
"c 	c #F4F5F5",
"d 	c #C0BFBF",
"e 	c #292928",
"f 	c #888788",
"g 	c #292827",
"h 	c #B4B3B4",
"i 	c #EFEFEF",
"j 	c #C2C2C2",
"k 	c #F6F5F5",
"l 	c #EFEEEE",
"m 	c #BBBABA",
"n 	c #B8BAB8",
"o 	c #FAFAFA",
"p 	c #C5C7C6",
"q 	c #282726",
"r 	c #B1B0AF",
"s 	c #BEBEBE",
"t 	c #E9E8E7",
"u 	c #706F6E",
"v 	c #454343",
"w 	c #EAE9E8",
"x 	c #51504F",
"y 	c #656262",
"z 	c #F5F5F4",
"A 	c #BDBDBD",
"B 	c #EBEBEC",
"C 	c #EDEDEF",
"D 	c #E4E1E1",
"E 	c #606060",
"F 	c #4D4B49",
"G 	c #D4D2D2",
"H 	c #555453",
"I 	c #545554",
"J 	c #EDEDEE",
"K 	c #C4C4C4",
"L 	c #D9D9D9",
"M 	c #E1DFDD",
"N 	c #DEDBDA",
"O 	c #E8E4E3",
"P 	c #F7F9F8",
"Q 	c #5D5C5B",
"R 	c #262524",
"S 	c #525250",
"T 	c #F6F8F8",
"U 	c #E9E7E7",
"V 	c #E2DFDD",
"W 	c #D7D6D7",
"X 	c #F5F4F4",
"Y 	c #F1F0F1",
"Z 	c #D2D1D1",
"` 	c #A6A4A5",
" .	c #E5E2E1",
"..	c #D9D4D3",
"+.	c #E2DEDD",
"@.	c #9B9A9A",
"#.	c #E4E1E0",
"$.	c #E6E3E2",
"%.	c #A1A0A1",
"&.	c #E6E6E6",
"*.	c #BBBBB9",
"=.	c #DCD9D8",
"-.	c #D2CFCC",
";.	c #DCDAD7",
">.	c #DEDCDB",
",.	c #DCDAD8",
"'.	c #B7B7B5",
").	c #F3F3F3",
"!.	c #F0EFEF",
"~.	c #D7D6D6",
"{.	c #ABAAAA",
"].	c #B4B1B1",
"^.	c #D8D5D6",
"/.	c #D2CDCC",
"(.	c #CEC8C7",
"_.	c #D2CECC",
":.	c #D9D6D6",
"<.	c #AFAEAE",
"[.	c #D5D4D5",
"}.	c #B6B6B5",
"|.	c #898888",
"1.	c #B8B7B6",
"2.	c #D0CFCF",
"3.	c #D3D0D1",
"4.	c #CFCECD",
"5.	c #B6B4B5",
"6.	c #888887",
"7.	c #F2F2F2",
"8.	c #DFDFDE",
"9.	c #C8C8C8",
"0.	c #BBBBBA",
"a.	c #9F9E9F",
"b.	c #969696",
"c.	c #9E9E9E",
"d.	c #C9C8C9",
"e.	c #E8E7E7",
"f.	c #E7E6E6",
"g.	c #E6E5E5",
"h.	c #E3E2E2",
"i.	c #D1D0D0",
"j.	c #CFCDCD",
"k.	c #010101",
". . . . . . . . . . . . . . . . . . . . . . . ",
". . . . . . . . . . . . . . . . . . . . . . . ",
". . . . . . . + @ # $ % $ & @ + . . . . . . . ",
". . . . . * = - ; > , ' > ' ) ! = * . . . . . ",
". . . . * ~ { ] ^ / ] ] ] / ( ] _ ~ * . . . . ",
". . . . : < [ } | | | | | | | 1 2 3 : . . . . ",
". . . * 4 5 6 7 7 7 8 9 0 7 7 7 6 a 4 * . . . ",
". . . + b c . * * d e f g h * * . * b + . . . ",
". . . i j k l l m g n o p q r l l 7 j i . . . ",
". . . ~ s c t t u v . w ; x y t t z A ~ . . . ",
". . . B s C D D ) E F G H I c D D J s B . . . ",
". . . i K L M N O P Q R S T U N V W K i . . . ",
"X X X Y Z `  .....+.} @.6 #.....$.%.Z Y X X X ",
"* * * * &.A *.=.-.-.;.| >.-.-.,.'.A &.* * * * ",
"* * * ).!.~.{.].^./.(.(.(._.:.<.{.~.!.).* * * ",
"* * * ).).!.[.}.|.1.2.3.4.5.6.}.[.!.).).* * * ",
").* * ).7.).i 8.9.0.a.b.c.0.d.8.i ).7.).* * ).",
"e.e.e.f.f.f.f.g.h.& i.j.i.& h.g.f.f.f.f.e.e.e.",
"k.k.k.k.k.k.k.k.k.k.k.k.k.k.k.k.k.k.k.k.k.k.k.",
"k.k.k.k.k.k.k.k.k.k.k.k.k.k.k.k.k.k.k.k.k.k.k.",
"k.k.k.k.k.k.k.k.k.k.k.k.k.k.k.k.k.k.k.k.k.k.k.",
"k.k.k.k.k.k.k.k.k.k.k.k.k.k.k.k.k.k.k.k.k.k.k.",
"k.k.k.k.k.k.k.k.k.k.k.k.k.k.k.k.k.k.k.k.k.k.k.",
"k.k.k.k.k.k.k.k.k.k.k.k.k.k.k.k.k.k.k.k.k.k.k.",
"k.k.k.k.k.k.k.k.k.k.k.k.k.k.k.k.k.k.k.k.k.k.k.",
"k.k.k.k.k.k.k.k.k.k.k.k.k.k.k.k.k.k.k.k.k.k.k.",
"k.k.k.k.k.k.k.k.k.k.k.k.k.k.k.k.k.k.k.k.k.k.k.",
"k.k.k.k.k.k.k.k.k.k.k.k.k.k.k.k.k.k.k.k.k.k.k.",
"k.k.k.k.k.k.k.k.k.k.k.k.k.k.k.k.k.k.k.k.k.k.k.",
"k.k.k.k.k.k.k.k.k.k.k.k.k.k.k.k.k.k.k.k.k.k.k.",
"k.k.k.k.k.k.k.k.k.k.k.k.k.k.k.k.k.k.k.k.k.k.k.",
"k.k.k.k.k.k.k.k.k.k.k.k.k.k.k.k.k.k.k.k.k.k.k.",
"k.k.k.k.k.k.k.k.k.k.k.k.k.k.k.k.k.k.k.k.k.k.k.",
"k.k.k.k.k.k.k.k.k.k.k.k.k.k.k.k.k.k.k.k.k.k.k.",
"k.k.k.k.k.k.k.k.k.k.k.k.k.k.k.k.k.k.k.k.k.k.k.",
"k.k.k.k.k.k.k.k.k.k.k.k.k.k.k.k.k.k.k.k.k.k.k."};
