/* XPM */
static char * restoreI_xpm[] = {
"23 36 132 2",
"  	c None",
". 	c #F5F5F5",
"+ 	c #E8E7E7",
"@ 	c #DDDCDC",
"# 	c #D3D3D4",
"$ 	c #DEDFDF",
"% 	c #E2E4E4",
"& 	c #DEDDDF",
"* 	c #D4D2D3",
"= 	c #E4E3E3",
"- 	c #D2CFD1",
"; 	c #F4F5F6",
"> 	c #F8F9FA",
", 	c #F8FAF9",
"' 	c #F9FAFA",
") 	c #F3F5F5",
"! 	c #D1D0D0",
"~ 	c #E3E1E1",
"{ 	c #CDCDCE",
"] 	c #F7F8F8",
"^ 	c #F8F8F9",
"/ 	c #F8F8F8",
"( 	c #F8F9F9",
"_ 	c #CECDCD",
": 	c #E7E5E5",
"< 	c #C6C7C7",
"[ 	c #F6F7F6",
"} 	c #F7F7F8",
"| 	c #F7F7F6",
"1 	c #F7F8F6",
"2 	c #F6F6F7",
"3 	c #C8C7C6",
"4 	c #D4D3D3",
"5 	c #DBDCDC",
"6 	c #F6F7F7",
"7 	c #F5F6F5",
"8 	c #E0E2E1",
"9 	c #9F9F9E",
"0 	c #DCDCDD",
"a 	c #D8D8D9",
"b 	c #C4C3C3",
"c 	c #F4F4F4",
"d 	c #DCDCDC",
"e 	c #989897",
"f 	c #C5C7C7",
"g 	c #979697",
"h 	c #D6D6D6",
"i 	c #BAB9B9",
"j 	c #F6F5F5",
"k 	c #EFEEEE",
"l 	c #D7D8D7",
"m 	c #FAFAFA",
"n 	c #E7E9E9",
"o 	c #979695",
"p 	c #D3D3D2",
"q 	c #B6B5B6",
"r 	c #F4F5F5",
"s 	c #E9E8E7",
"t 	c #B7B6B5",
"u 	c #A6A5A5",
"v 	c #EAE9E8",
"w 	c #ADABAC",
"x 	c #B2B1AF",
"y 	c #F5F5F4",
"z 	c #B5B4B5",
"A 	c #EDEDEF",
"B 	c #E4E1E1",
"C 	c #F6F6F6",
"D 	c #B3B3B4",
"E 	c #A6A5A4",
"F 	c #A9A8A7",
"G 	c #AEADAE",
"H 	c #F5F6F6",
"I 	c #EDEDED",
"J 	c #BDBCBC",
"K 	c #D9D8D8",
"L 	c #E1DFDD",
"M 	c #DEDBDA",
"N 	c #E8E4E3",
"O 	c #F8F9F8",
"P 	c #AFAFAE",
"Q 	c #969594",
"R 	c #AAAAA9",
"S 	c #E9E7E7",
"T 	c #E2DFDD",
"U 	c #D7D5D6",
"V 	c #F5F4F4",
"W 	c #C9C8C7",
"X 	c #A1A0A1",
"Y 	c #E5E2E1",
"Z 	c #D9D4D3",
"` 	c #E2DEDD",
" .	c #CECECD",
"..	c #E4E1E0",
"+.	c #9E9B9D",
"@.	c #DDDDDD",
"#.	c #B9B9B7",
"$.	c #DCD9D8",
"%.	c #D2CFCC",
"&.	c #DCDAD7",
"*.	c #DEDCDB",
"=.	c #DCDAD8",
"-.	c #B6B6B4",
";.	c #E7E6E6",
">.	c #A5A4A4",
",.	c #B3B0B0",
"'.	c #D8D5D6",
").	c #D2CDCC",
"!.	c #CEC8C7",
"~.	c #D2CECC",
"{.	c #D9D6D6",
"].	c #ADADAD",
"^.	c #CDCBCC",
"/.	c #AFAFAF",
"(.	c #858585",
"_.	c #D0CFCF",
":.	c #D3D0D1",
"<.	c #CFCECD",
"[.	c #B6B5B4",
"}.	c #848484",
"|.	c #F3F3F3",
"1.	c #D8D7D7",
"2.	c #C1C0C0",
"3.	c #B4B4B3",
"4.	c #9A9999",
"5.	c #919090",
"6.	c #999898",
"7.	c #C2C1C1",
"8.	c #DCDADA",
"9.	c #D4D2D2",
"0.	c #CBCACA",
"a.	c #C9C6C6",
". . . . . . . . . . . . . . . . . . . . . . . ",
". . . . . . . . . . . . . . . . . . . . . . . ",
". . . . . . . + @ # $ % & * @ + . . . . . . . ",
". . . . . . = - ; > , ' > ' ) ! = . . . . . . ",
". . . . . ~ { ] ^ / ] ] ] / ( ] _ ~ . . . . . ",
". . . . : < [ } | | | | | | | 1 2 3 : . . . . ",
". . . . 4 5 6 7 7 7 8 9 0 7 7 7 6 a 4 . . . . ",
". . . . b ) . c c d e f g h c c . c b . . . . ",
". . . . i j k k l g 8 m n o p k k 7 i . . . . ",
". . . . q r s s t u [ v [ w x s s y z . . . . ",
". . . . q A B B C D E @ F G H B B I q . . . . ",
". . . . J K L M N O P Q R ( S M T U J . . . . ",
"V V V V W X Y Z Z ` /  ./ ..Z Z Y +.W V V V V ",
"c c c c @.t #.$.%.%.&.| *.%.%.=.-.t @.c c c c ",
"c c c c ;. .>.,.'.).!.!.!.~.{.].>. .;.c c c c ",
"c c c c c ;.^./.(.t _.:.<.[.}./.^.;.c c c c c ",
"|.c c c |.c c 1.2.3.4.5.6.3.7.1.;.c |.c c c |.",
"+ + + + + + + + 8.9.0.a.0.9.+ + + + + + + + + ",
". . . . . . . . . . . . . . . . . . . . . . . ",
". . . . . . . . . . . . . . . . . . . . . . . ",
". . . . . . . + @ # $ % & * @ + . . . . . . . ",
". . . . . . = - ; > , ' > ' ) ! = . . . . . . ",
". . . . . ~ { ] ^ / ] ] ] / ( ] _ ~ . . . . . ",
". . . . : < [ } | | | | | | | 1 2 3 : . . . . ",
". . . . 4 5 6 7 7 7 8 9 0 7 7 7 6 a 4 . . . . ",
". . . . b ) . c c d e f g h c c . c b . . . . ",
". . . . i j k k l g 8 m n o p k k 7 i . . . . ",
". . . . q r s s t u [ v [ w x s s y z . . . . ",
". . . . q A B B C D E @ F G H B B I q . . . . ",
". . . . J K L M N O P Q R ( S M T U J . . . . ",
"V V V V W X Y Z Z ` /  ./ ..Z Z Y +.W V V V V ",
"c c c c @.t #.$.%.%.&.| *.%.%.=.-.t @.c c c c ",
"c c c c ;. .>.,.'.).!.!.!.~.{.].>. .;.c c c c ",
"c c c c c ;.^./.(.t _.:.<.[.}./.^.;.c c c c c ",
"|.c c c |.c c 1.2.3.4.5.6.3.7.1.;.c |.c c c |.",
"+ + + + + + + + 8.9.0.a.0.9.+ + + + + + + + + "};
