/* XPM */
static char * titleAB_xpm[] = {
"4 18 6 1",
" 	c None",
".	c #F5F5F5",
"+	c #F5F4F4",
"@	c #F4F4F4",
"#	c #F3F3F3",
"$	c #E8E7E7",
"....",
"....",
"....",
"....",
"....",
"....",
"....",
"....",
"....",
"....",
"....",
"....",
"++++",
"@@@@",
"@@@@",
"@@@@",
"#@@@",
"$$$$"};
